<svg xmlns="http://www.w3.org/2000/svg" viewBox="0 0 31.95 22.95"><defs><style>.cls-1{fill:#253d8f;}</style></defs><title>Asset 2465</title><g id="Layer_2" data-name="Layer 2"><g id="Layer_1-2" data-name="Layer 1"><path class="cls-1" d="M30.47,0h-29A1.48,1.48,0,0,0,0,1.48V6A1.48,1.48,0,0,0,1.48,7.43H5.9V22.16a.79.79,0,0,0,.79.79H25.27a.78.78,0,0,0,.78-.79V7.43h4.42A1.48,1.48,0,0,0,32,6V1.48A1.48,1.48,0,0,0,30.47,0Zm-6,21.38h-17V4.63h17Zm6-15.6A.18.18,0,0,1,30.3,6H26.05V4.46h1.12a.6.6,0,0,0,.66-.62A1.1,1.1,0,0,0,27.17,3H4.81a1.11,1.11,0,0,0-.65.87.6.6,0,0,0,.65.62H5.9V6H1.65a.17.17,0,0,1-.16-.17V1.65a.16.16,0,0,1,.16-.16H30.3a.17.17,0,0,1,.17.16Z"/></g></g></svg>