<svg xmlns="http://www.w3.org/2000/svg" viewBox="0 0 8.07 6.87"><defs><style>.cls-1{fill:#999;}</style></defs><title>biscase-g</title><g id="Layer_2" data-name="Layer 2"><g id="Layer_1-2" data-name="Layer 1"><path class="cls-1" d="M8.07,1.64a.44.44,0,0,0-.43-.44H.44A.44.44,0,0,0,0,1.64V3.16H8.07Z"/><path class="cls-1" d="M5.89,3.6v.76a.77.77,0,0,1-.76.77H3a.77.77,0,0,1-.77-.77V3.6H0V6.44a.44.44,0,0,0,.44.43h7.2a.43.43,0,0,0,.43-.43V3.6Z"/><path class="cls-1" d="M2.84,4.36A.11.11,0,0,0,3,4.47H5.13a.11.11,0,0,0,.11-.11V3.6H2.84Z"/><path class="cls-1" d="M5.35,2.73H2.73A1.31,1.31,0,0,1,1.42,1.42V1.31A1.31,1.31,0,0,1,2.73,0H5.35a1.31,1.31,0,0,1,1.3,1.31v.11A1.31,1.31,0,0,1,5.35,2.73ZM2.73.44a.88.88,0,0,0-.88.87v.11a.88.88,0,0,0,.88.87H5.35a.87.87,0,0,0,.87-.87V1.31A.87.87,0,0,0,5.35.44Z"/></g></g></svg>