<svg xmlns="http://www.w3.org/2000/svg" viewBox="0 0 36.1 29.24"><defs><style>.cls-1{fill:#fb9300;}</style></defs><title>camera-o-org</title><g id="Layer_2" data-name="Layer 2"><g id="Layer_1-2" data-name="Layer 1"><path class="cls-1" d="M0,9V24.84a4.4,4.4,0,0,0,4.41,4.4H31.69a4.41,4.41,0,0,0,4.41-4.4V9a4.2,4.2,0,0,0-4.2-4.2H26l-.14-.62A5.36,5.36,0,0,0,20.66,0H15.43a5.36,5.36,0,0,0-5.24,4.17l-.14.62H4.19A4.2,4.2,0,0,0,0,9ZM10.83,6.56a.89.89,0,0,0,.88-.71L12,4.54a3.56,3.56,0,0,1,3.49-2.77h5.24a3.58,3.58,0,0,1,3.5,2.77l.3,1.31a.91.91,0,0,0,.88.71h6.51a2.38,2.38,0,0,1,2.39,2.38V24.88a2.61,2.61,0,0,1-2.6,2.6H4.44a2.61,2.61,0,0,1-2.6-2.6V8.94A2.38,2.38,0,0,1,4.23,6.56ZM6.11,9.2a1.21,1.21,0,1,1-1.2,1.21A1.21,1.21,0,0,1,6.11,9.2ZM18.05,24.64a7.58,7.58,0,1,0-7.58-7.58A7.59,7.59,0,0,0,18.05,24.64Zm0-13.36a5.78,5.78,0,1,1-5.77,5.78A5.79,5.79,0,0,1,18.05,11.28Z"/></g></g></svg>