<svg xmlns="http://www.w3.org/2000/svg" viewBox="0 0 24.06 24.06"><defs><style>.cls-1{fill:#575757;}.cls-2{fill:#fff;}</style></defs><title>category-icon</title><g id="Layer_2" data-name="Layer 2"><g id="Layer_1-2" data-name="Layer 1"><circle class="cls-1" cx="12.03" cy="12.03" r="12.03"/><path class="cls-2" d="M5.76,9.4v4.65h-.6V9.4Z"/><path class="cls-2" d="M10.05,13.9a3,3,0,0,1-1.22.22,2.18,2.18,0,0,1-2.3-2.35A2.31,2.31,0,0,1,9,9.33a2.55,2.55,0,0,1,1.1.2L9.92,10A2.23,2.23,0,0,0,9,9.83a1.74,1.74,0,0,0-1.82,1.92A1.69,1.69,0,0,0,9,13.62a2.34,2.34,0,0,0,1-.2Z"/><path class="cls-2" d="M14.63,11.68a2.18,2.18,0,0,1-2.16,2.45,2.13,2.13,0,0,1-2.09-2.36,2.21,2.21,0,0,1,2.16-2.44A2.11,2.11,0,0,1,14.63,11.68Zm-3.6.08c0,1,.53,1.88,1.48,1.88S14,12.76,14,11.71s-.48-1.89-1.48-1.89S11,10.73,11,11.76Z"/><path class="cls-2" d="M15.41,14.05V9.4h.66l1.48,2.36a11.77,11.77,0,0,1,.84,1.51h0c0-.62-.07-1.19-.07-1.91V9.4h.57v4.65h-.61l-1.47-2.36A12.8,12.8,0,0,1,16,10.14h0c0,.58.05,1.14.05,1.92v2Z"/></g></g></svg>