<svg xmlns="http://www.w3.org/2000/svg" viewBox="0 0 20 20"><defs><style>.cls-1{fill:#e6e6e6;}.cls-2{fill:#ccc;}</style></defs><title>default-image</title><g id="Layer_2" data-name="Layer 2"><g id="Layer_1-2" data-name="Layer 1"><rect class="cls-1" width="20" height="20"/><path class="cls-2" d="M14.62,6.06H5.48a.16.16,0,0,0-.16.16V13.4a.17.17,0,0,0,.16.17h9.14a.17.17,0,0,0,.16-.17V6.22A.16.16,0,0,0,14.62,6.06Zm-.16,7.18H5.65V6.39h8.81ZM7.93,9.68A.91.91,0,1,0,7,8.77.91.91,0,0,0,7.93,9.68Zm0-1.49a.58.58,0,0,1,.58.58.58.58,0,1,1-1.16,0A.58.58,0,0,1,7.93,8.19ZM6.46,12.6a.21.21,0,0,0,.11,0l2.66-2.35,1.68,1.68a.16.16,0,0,0,.23-.23l-.78-.78,1.5-1.64,1.83,1.68a.16.16,0,1,0,.22-.24L12,8.89a.21.21,0,0,0-.12-.05.23.23,0,0,0-.12.06l-1.59,1.75-.78-.78a.16.16,0,0,0-.22,0L6.35,12.31a.17.17,0,0,0,0,.23A.16.16,0,0,0,6.46,12.6Z"/></g></g></svg>