<svg xmlns="http://www.w3.org/2000/svg" viewBox="0 0 49 71.75"><defs><style>.cls-1{fill:#fff;}</style></defs><title>door-o</title><g id="Layer_2" data-name="Layer 2"><g id="Layer_1-2" data-name="Layer 1"><path class="cls-1" d="M43.28,71.75H5.72A5.73,5.73,0,0,1,0,66V5.72A5.73,5.73,0,0,1,5.72,0H43.28A5.73,5.73,0,0,1,49,5.72V66A5.73,5.73,0,0,1,43.28,71.75ZM5.72,3A2.72,2.72,0,0,0,3,5.72V66a2.72,2.72,0,0,0,2.72,2.72H43.28A2.72,2.72,0,0,0,46,66V5.72A2.72,2.72,0,0,0,43.28,3Z"/><circle class="cls-1" cx="38.63" cy="36.63" r="3.87"/></g></g></svg>