<svg xmlns="http://www.w3.org/2000/svg" viewBox="0 0 32.81 32.81"><defs><style>.cls-1{fill:#fa9200;}.cls-2{fill:none;stroke:#fa9200;stroke-miterlimit:10;stroke-width:0.5px;}</style></defs><title>edit-circle-org</title><g id="Layer_2" data-name="Layer 2"><g id="Layer_1-2" data-name="Layer 1"><path class="cls-1" d="M21.86,9.39,19.48,8a.29.29,0,0,0-.24,0,.3.3,0,0,0-.19.14l-1.24,2.12h0l-7,11.91a.32.32,0,0,0,0,.19l.32,2.16a.27.27,0,0,0,.15.22.28.28,0,0,0,.15,0,.25.25,0,0,0,.12,0L13.6,24a.24.24,0,0,0,.15-.13l7-11.9h0L22,9.8A.29.29,0,0,0,21.86,9.39ZM13.27,23.44l-1.6.63-.24-1.67,6.76-11.55,1.85,1Zm7.07-12.08-1.84-1,.94-1.6,1.84,1Z"/><path class="cls-1" d="M11.42,25.13a.56.56,0,0,1-.31-.09.59.59,0,0,1-.31-.45l-.32-2.16a.61.61,0,0,1,.07-.4l7-11.91h0L18.77,8a.65.65,0,0,1,.87-.23L22,9.11a.63.63,0,0,1,.3.38.63.63,0,0,1-.07.48L21,12.08h0L14,24a.61.61,0,0,1-.31.26l-2.06.82A.6.6,0,0,1,11.42,25.13Zm0-.89,0,.26.25-.1a.28.28,0,0,1-.17,0A.2.2,0,0,1,11.4,24.24Zm.36-1.77.17,1.15,1.12-.44L19.59,12l-1.28-.72Zm1.51,1h0Zm7.46-11.51h0Zm-.45-.25a.47.47,0,0,1,.07.12.49.49,0,0,1,0,.12l.08-.15h0l.08-.14A.28.28,0,0,1,20.28,11.68ZM19,10.2l1.28.72.6-1-1.27-.72Zm-.87.26-.08.13a.35.35,0,0,1,.26-.06.21.21,0,0,1-.07-.12.25.25,0,0,1,0-.12l-.09.16Zm3.47-.88a.3.3,0,0,1,0,.1.25.25,0,0,1,0,.12l.08-.14ZM19.32,8.33l-.09.15a.3.3,0,0,1,.22-.08Z"/><circle class="cls-2" cx="16.4" cy="16.4" r="16.15"/></g></g></svg>