<svg xmlns="http://www.w3.org/2000/svg" viewBox="0 0 20 20"><defs><style>.cls-1{fill:#253d8e;}</style></defs><title>expand-search</title><g id="Layer_2" data-name="Layer 2"><g id="Layer_1-2" data-name="Layer 1"><path class="cls-1" d="M9.29,6.41A2.74,2.74,0,1,0,12,9.15,2.74,2.74,0,0,0,9.29,6.41Zm1.33,3.38H9.8v.83a.53.53,0,0,1-.36.51.54.54,0,0,1-.71-.51V9.79H7.91a.53.53,0,1,1,0-1.06h.82V7.9a.54.54,0,1,1,1.07,0v.83h.83a.53.53,0,1,1,0,1.06Z"/><path class="cls-1" d="M10,0A10,10,0,1,0,20,10,10,10,0,0,0,10,0Zm5,14.75a.81.81,0,0,1-1.15,0l-2.27-2.28a4,4,0,1,1,1.12-1.17L15,13.61A.8.8,0,0,1,15,14.75Z"/></g></g></svg>