<svg xmlns="http://www.w3.org/2000/svg" viewBox="0 0 105.2 138.06"><defs><style>.cls-1{fill:#fff;opacity:0.61;}</style></defs><title>f-zoom</title><g id="Layer_2" data-name="Layer 2"><g id="Layer_1-2" data-name="Layer 1"><path class="cls-1" d="M104.11,126.66,85.88,96.78a7.53,7.53,0,0,0-7.95-3.42l-5.47-9A47.07,47.07,0,1,0,68.18,87l5.48,9a7.52,7.52,0,0,0-.59,8.63L91.3,134.47A7.52,7.52,0,0,0,101.61,137h0A7.51,7.51,0,0,0,104.11,126.66ZM36.8,85.39A40.25,40.25,0,0,1,25.3,11.91,40,40,0,0,1,46.19,6a40.42,40.42,0,0,1,9.55,1.15A40.25,40.25,0,0,1,36.8,85.39Z"/><path class="cls-1" d="M62.1,42.91H49.6V30.41a3.5,3.5,0,0,0-7,0v12.5H30.1a3.5,3.5,0,1,0,0,7H42.6v12.5a3.5,3.5,0,0,0,7,0V49.91H62.1a3.5,3.5,0,0,0,0-7Z"/></g></g></svg>