<svg xmlns="http://www.w3.org/2000/svg" viewBox="0 0 28.65 61.78"><defs><style>.cls-1{fill:#0071bb;}</style></defs><title>facebook</title><g id="Layer_2" data-name="Layer 2"><g id="Layer_1-2" data-name="Layer 1"><path class="cls-1" d="M6,31H0V20c1.71,0,3.39,0,5.06,0,.79,0,1-.23,1-1,0-2.48-.07-5,.11-7.42.27-3.84,1.65-7.19,4.94-9.48A13.67,13.67,0,0,1,19,0c2.94,0,5.88,0,8.82,0,.36,0,.7,0,.7.51,0,3.31,0,6.62,0,10.08h-1.6c-1.87,0-3.73,0-5.59.08A2.22,2.22,0,0,0,19,13c-.14,2.21-.09,4.42-.06,6.63,0,.16.46.44.72.44,2.73,0,5.47,0,8.2,0,.23,0,.46,0,.84,0-.38,3.62-.74,7.19-1.12,10.85H18.89V61.78H6Z"/></g></g></svg>