<svg xmlns="http://www.w3.org/2000/svg" viewBox="0 0 46.25 54.25"><defs><style>.cls-1,.cls-2{fill:none;stroke:#999;stroke-width:0.5px;}.cls-1{stroke-miterlimit:10;}.cls-2{stroke-linecap:round;stroke-linejoin:round;}.cls-3{fill:#2a36a2;}.cls-4{fill:#fff;}</style></defs><title>file-o-jpeg</title><g id="Layer_2" data-name="Layer 2"><g id="Layer_1-2" data-name="Layer 1"><path class="cls-1" d="M39.07.25H19.91L.25,19.91v31.6A2.48,2.48,0,0,0,2.74,54H39.07a2.49,2.49,0,0,0,2.49-2.49V2.74A2.49,2.49,0,0,0,39.07.25Z"/><path class="cls-2" d="M17.42,19.91a2.5,2.5,0,0,0,2.49-2.49V.25L.25,19.91Z"/><rect class="cls-3" x="16.64" y="32.1" width="29.61" height="14.18"/><path class="cls-4" d="M23.44,41.67a.44.44,0,0,1,.45-.47.47.47,0,0,1,0,.94A.44.44,0,0,1,23.44,41.67Z"/><path class="cls-4" d="M26.2,37h.65v3.36c0,1.34-.66,1.75-1.52,1.75a2.09,2.09,0,0,1-.7-.12l.1-.53a1.58,1.58,0,0,0,.54.1c.59,0,.93-.27.93-1.25Z"/><path class="cls-4" d="M27.93,37.09a6.76,6.76,0,0,1,1.25-.1,2.06,2.06,0,0,1,1.41.42A1.37,1.37,0,0,1,31,38.46a1.49,1.49,0,0,1-.39,1.07,2.06,2.06,0,0,1-1.54.56,2.09,2.09,0,0,1-.52-.05v2h-.65Zm.65,2.42a2.06,2.06,0,0,0,.54.05c.78,0,1.26-.38,1.26-1.07s-.47-1-1.19-1a2.59,2.59,0,0,0-.61.06Z"/><path class="cls-4" d="M34.51,39.7h-2v1.81h2.18v.55H31.9V37h2.72v.54H32.55v1.59h2Z"/><path class="cls-4" d="M39.4,41.83a4.48,4.48,0,0,1-1.54.28,2.37,2.37,0,0,1-2.58-2.54A2.52,2.52,0,0,1,38,37a3,3,0,0,1,1.25.24l-.15.53A2.61,2.61,0,0,0,38,37.52a1.88,1.88,0,0,0-2,2,1.84,1.84,0,0,0,1.94,2,2.23,2.23,0,0,0,.87-.13v-1.5h-1v-.53H39.4Z"/></g></g></svg>