<svg xmlns="http://www.w3.org/2000/svg" viewBox="0 0 97.98 71.22"><defs><style>.cls-1{opacity:0.7;}.cls-2,.cls-4,.cls-5{fill:#b2bace;}.cls-2,.cls-3,.cls-4,.cls-5{stroke:#253d8e;stroke-miterlimit:10;}.cls-2,.cls-3{stroke-width:0.62px;}.cls-3{fill:#47bff9;}.cls-4{stroke-width:0.18px;}.cls-5{stroke-width:0.22px;}.cls-6{fill:#253d8e;opacity:0.1;}</style></defs><title>fix-home</title><g id="Layer_2" data-name="Layer 2"><g id="Layer_1-2" data-name="Layer 1"><g class="cls-1"><path class="cls-2" d="M85.35,34.49A3.69,3.69,0,0,0,84,32L50.32,4.46a3.69,3.69,0,0,0-4.69,0L36.79,11.8a2.45,2.45,0,0,0-2.43-2.22H23.42a2.5,2.5,0,0,0-1.78.76A2.47,2.47,0,0,0,21,12.15l.52,12.36-12,10a3.69,3.69,0,0,0,4.72,5.68l3.13-2.6V67.32a3.6,3.6,0,1,0,7.2,0V31.59l6.34-5.27A2.61,2.61,0,0,0,31.3,26L48,12.1,72.68,32.27v35a3.6,3.6,0,0,0,7.2,0V38.07a3.68,3.68,0,0,0,4.65-.88A3.62,3.62,0,0,0,85.35,34.49Z"/><path class="cls-3" d="M37.08,38.56a.46.46,0,0,1,.26.15L45.59,47l1.49-1.49-8.24-8.24a.52.52,0,0,1-.15-.27l-.52-2.07-3.44-2L33,34.6,35,38Zm7.33,18.81L57.5,44.28a.57.57,0,0,1,.54-.15,5.75,5.75,0,0,0,7.17-5.59c0-.11,0-.22,0-.33l-3.05,3a.56.56,0,0,1-.59.14L58.1,40.24a.56.56,0,0,1-.36-.37l-1.16-3.46a.59.59,0,0,1,.14-.59l3.05-3a5.74,5.74,0,0,0-5.92,7.15.58.58,0,0,1-.15.55L40.61,53.57a.58.58,0,0,1-.55.15,5.41,5.41,0,0,0-1.39-.18,5.8,5.8,0,1,0,5.59,4.37A.57.57,0,0,1,44.41,57.37Zm-4.34,4.24h-2.8l-1.39-2.3L37.27,57h2.8l1.38,2.31Zm2.23-6.75L55,42.17l.82.81-12.7,12.7Zm18.18,10a3.49,3.49,0,0,0,4.5-4.5Zm3.7-5.75L57.7,52.62a1.8,1.8,0,0,1-2.54-2.54l-.91-.92-5,5,.92.92a1.8,1.8,0,0,1,2.54,2.53l6.48,6.48a2.09,2.09,0,0,0,.22.2l4.93-4.93A2.09,2.09,0,0,0,64.18,59.1Zm-3.42,2.35L55,55.68l.82-.82,5.77,5.77Z"/><path class="cls-4" d="M88.28,52.4A2.77,2.77,0,1,1,91,49.63,2.77,2.77,0,0,1,88.28,52.4Zm0-4.06a1.29,1.29,0,1,0,1.29,1.29A1.3,1.3,0,0,0,88.28,48.34Z"/><path class="cls-4" d="M8.3,54.86a2.77,2.77,0,1,1,2.77-2.77A2.77,2.77,0,0,1,8.3,54.86Zm0-4.06a1.29,1.29,0,1,0,1.3,1.29A1.29,1.29,0,0,0,8.3,50.8Z"/><path class="cls-5" d="M9.57,17.3H3.35a.89.89,0,1,1,0-1.78H9.57a.89.89,0,0,1,0,1.78Z"/><path class="cls-5" d="M6.46,20.41a.89.89,0,0,1-.89-.89V13.3a.89.89,0,1,1,1.78,0v6.22A.89.89,0,0,1,6.46,20.41Z"/><path class="cls-5" d="M77.24,5H71a.89.89,0,0,1,0-1.78h6.22a.89.89,0,1,1,0,1.78Z"/><path class="cls-5" d="M74.13,8.11a.89.89,0,0,1-.89-.89V1A.89.89,0,0,1,75,1V7.22A.89.89,0,0,1,74.13,8.11Z"/><circle class="cls-6" cx="4.92" cy="23.03" r="4.92"/><circle class="cls-6" cx="72.59" cy="9.49" r="6.15"/><circle class="cls-6" cx="91.82" cy="42.5" r="6.15"/><circle class="cls-6" cx="11.85" cy="48.65" r="6.15"/><circle class="cls-6" cx="49.21" cy="46.4" r="18.45"/></g></g></g></svg>