<svg xmlns="http://www.w3.org/2000/svg" viewBox="0 0 17.67 17.67"><defs><style>.cls-1{fill:#fa9200;}</style></defs><title>fix</title><g id="Layer_2" data-name="Layer 2"><g id="Layer_1-2" data-name="Layer 1"><path class="cls-1" d="M2.32,3.16a.28.28,0,0,1,.15.08L7,7.74l.81-.81-4.5-4.5a.28.28,0,0,1-.08-.15L2.92,1.15,1,.08.12,1,1.19,2.88Zm4,10.26,7.14-7.14a.3.3,0,0,1,.3-.08,3.14,3.14,0,0,0,2.71-.57,3.11,3.11,0,0,0,1.2-2.48,1.09,1.09,0,0,0,0-.18L16,4.63a.33.33,0,0,1-.32.08l-1.89-.63a.36.36,0,0,1-.2-.2L13,2A.34.34,0,0,1,13,1.67L14.7,0a3.09,3.09,0,0,0-2.61,1.13,3.12,3.12,0,0,0-.62,2.77.3.3,0,0,1-.08.3L4.25,11.35a.3.3,0,0,1-.3.08,3.23,3.23,0,0,0-.76-.1,3.17,3.17,0,1,0,3.05,2.39A.3.3,0,0,1,6.32,13.42ZM4,15.74H2.43l-.76-1.26.76-1.26H4l.76,1.26Zm1.22-3.69L12.1,5.13l.44.44L5.62,12.5Zm9.92,5.46a1.91,1.91,0,0,0,2.46-2.46Zm2-3.14-3.53-3.54a1,1,0,0,1-1.33-.06,1,1,0,0,1-.06-1.32l-.5-.51L9,11.65l.5.5a1,1,0,0,1,1.39,1.38l3.53,3.54.12.11,2.69-2.69A1.31,1.31,0,0,0,17.11,14.37Zm-1.87,1.28L12.1,12.5l.44-.45,3.15,3.15Z"/></g></g></svg>