<svg xmlns="http://www.w3.org/2000/svg" viewBox="0 0 224.67 178.88"><defs><style>.cls-1{opacity:0.5;}.cls-2,.cls-4{fill:#253d8e;}.cls-2{opacity:0.1;}.cls-3{fill:#47bff9;}.cls-3,.cls-4,.cls-5{stroke:#253d8e;stroke-miterlimit:10;}.cls-3,.cls-4{stroke-width:0.22px;}.cls-5{fill:#b2bace;stroke-width:0.4px;}</style></defs><title>folder-open</title><g id="Layer_2" data-name="Layer 2"><g id="Layer_1-2" data-name="Layer 1"><g class="cls-1"><circle class="cls-2" cx="120.07" cy="93.78" r="51.48"/><path class="cls-3" d="M101.34,83.66a2.32,2.32,0,0,1,.46,0h42.44V76.85a.79.79,0,0,0-.79-.8H115.58l-5.4-7.56H91a.79.79,0,0,0-.79.79V110l9-24.42A2.72,2.72,0,0,1,101.34,83.66Z"/><path class="cls-3" d="M150.54,85.78H102.15a.61.61,0,0,0-.58.45l-11,30.22a.57.57,0,0,0,.13.44.6.6,0,0,0,.49.24h48.38a.6.6,0,0,0,.59-.45l10.94-30C151.06,86.37,151,85.78,150.54,85.78Z"/><path class="cls-4" d="M150.18,83.62h-3.77V76.85a3,3,0,0,0-3-3H116.7l-5.41-7.56H91a3,3,0,0,0-3,3v46.77h.37a2.77,2.77,0,0,0,.56,1.77,8,8,0,0,0,2.21,1.47h48a2.75,2.75,0,0,0,2.65-2l11-30.3v-.2C152.89,85,151.75,83.62,150.18,83.62Zm-60-14.34a.79.79,0,0,1,.79-.79h19.19l5.4,7.56h27.87a.79.79,0,0,1,.79.8v6.77H101.8a2.32,2.32,0,0,0-.46,0,2.72,2.72,0,0,0-2.19,1.92L90.2,110Zm49.94,47.4a.6.6,0,0,1-.59.45H91.17a.6.6,0,0,1-.49-.24.57.57,0,0,1-.13-.44l11-30.22a.61.61,0,0,1,.58-.45h48.39c.41,0,.52.59.54.89Z"/><path class="cls-5" d="M80,37.05l-1.89-2.57a70.81,70.81,0,0,1,77.15-4.25L153.64,33a67.62,67.62,0,0,0-73.66,4Z"/><path class="cls-5" d="M60.84,58.75,58.05,57.2A70.94,70.94,0,0,1,69.9,41.52l2.26,2.26A67.66,67.66,0,0,0,60.84,58.75Z"/><path class="cls-5" d="M49.61,99.36a71.41,71.41,0,0,1,3.72-31.74l3,1.07A68.13,68.13,0,0,0,52.79,99Z"/><path class="cls-5" d="M103.68,160.39a70.78,70.78,0,0,1-53.53-57.17l3.15-.53a67.6,67.6,0,0,0,51.11,54.59Z"/><path class="cls-5" d="M119.85,162.26a72.22,72.22,0,0,1-8.68-.53l.39-3.17a67.67,67.67,0,0,0,52-15.48l2.07,2.43A70.83,70.83,0,0,1,119.85,162.26Z"/><path class="cls-5" d="M169.93,141.55l-2.26-2.26a67,67,0,0,0,16.17-25.89l3,1A70.11,70.11,0,0,1,169.93,141.55Z"/><path class="cls-5" d="M186.71,81.48a67.18,67.18,0,0,0-19-37.7l2.26-2.26a71.61,71.61,0,0,1,5.79,6.54,70.5,70.5,0,0,1,14.14,33Z"/><path class="cls-5" d="M193.26,52.35a84.19,84.19,0,0,0-23.62-27.23l1.91-2.56a87.4,87.4,0,0,1,24.52,28.27Z"/><path class="cls-5" d="M163.76,21.12A83,83,0,0,0,119.92,8.68V5.49A86.27,86.27,0,0,1,165.44,18.4Z"/><path class="cls-5" d="M66.27,28.22l-2.06-2.44a87.33,87.33,0,0,1,12.88-9,85.8,85.8,0,0,1,34-10.87l.33,3.18A83,83,0,0,0,66.27,28.22Z"/><path class="cls-5" d="M36.51,92.08H33.32A86.28,86.28,0,0,1,56.88,32.71L59.2,34.9A83.19,83.19,0,0,0,36.51,92.08Z"/><path class="cls-5" d="M41.86,129.62a86,86,0,0,1-8-27.46l3.17-.37a82.78,82.78,0,0,0,7.67,26.45Z"/><path class="cls-5" d="M72.31,164.43a87.58,87.58,0,0,1-25.86-26.49l2.7-1.7a84.25,84.25,0,0,0,24.92,25.52Z"/><path class="cls-5" d="M119.92,178.68a85.72,85.72,0,0,1-38.78-9.15l1.43-2.85a82.61,82.61,0,0,0,37.35,8.8Z"/><path class="cls-5" d="M129.94,178.1l-.37-3.17A83.08,83.08,0,0,0,172,157.21l2,2.49A86.17,86.17,0,0,1,129.94,178.1Z"/><path class="cls-5" d="M183.48,150.89l-2.34-2.17a82.76,82.76,0,0,0,21.51-46l3.17.4A85.89,85.89,0,0,1,183.48,150.89Z"/><path class="cls-5" d="M206.51,92.08h-3.19A83,83,0,0,0,197,60.22L200,59A86.16,86.16,0,0,1,206.51,92.08Z"/><path class="cls-5" d="M23.34,29.43a6.39,6.39,0,1,1,6.39-6.38A6.38,6.38,0,0,1,23.34,29.43Zm0-9.58a3.2,3.2,0,1,0,3.2,3.2A3.2,3.2,0,0,0,23.34,19.85Z"/><path class="cls-5" d="M218.48,122a6,6,0,1,1,6-6A6,6,0,0,1,218.48,122Zm0-8.78a2.8,2.8,0,1,0,2.8,2.79A2.79,2.79,0,0,0,218.48,113.23Z"/><path class="cls-5" d="M219.68,29.43H208.51a1.6,1.6,0,1,1,0-3.19h11.17a1.6,1.6,0,1,1,0,3.19Z"/><path class="cls-5" d="M214.09,35a1.6,1.6,0,0,1-1.59-1.6V22.25a1.6,1.6,0,1,1,3.19,0V33.42A1.6,1.6,0,0,1,214.09,35Z"/><path class="cls-5" d="M13,83.7H1.8a1.6,1.6,0,1,1,0-3.19H13a1.6,1.6,0,1,1,0,3.19Z"/><path class="cls-5" d="M7.38,89.29a1.6,1.6,0,0,1-1.59-1.6V76.52a1.6,1.6,0,1,1,3.19,0V87.69A1.6,1.6,0,0,1,7.38,89.29Z"/><circle class="cls-5" cx="49.28" cy="158.32" r="2.79"/><circle class="cls-2" cx="29.48" cy="19.95" r="9.58"/><circle class="cls-2" cx="211.45" cy="122.11" r="9.58"/><circle class="cls-2" cx="39.86" cy="158.03" r="7.98"/><circle class="cls-2" cx="161.57" cy="21.15" r="21.15"/></g></g></g></svg>