<svg xmlns="http://www.w3.org/2000/svg" viewBox="0 0 34.31 35"><defs><style>.cls-1{fill:#253d8e;}</style></defs><title>grid-4</title><g id="Layer_2" data-name="Layer 2"><g id="Layer_1-2" data-name="Layer 1"><path class="cls-1" d="M12,16H4a4,4,0,0,1-4-4V4A4,4,0,0,1,4,0h8a4,4,0,0,1,4,4v8A4,4,0,0,1,12,16ZM4,.72A3.26,3.26,0,0,0,.72,4v8A3.25,3.25,0,0,0,4,15.23h8A3.24,3.24,0,0,0,15.23,12V4A3.25,3.25,0,0,0,12,.72Z"/><path class="cls-1" d="M12,34.65H4a4,4,0,0,1-4-4v-8a4,4,0,0,1,4-4h8a4,4,0,0,1,4,4v8A4,4,0,0,1,12,34.65ZM4,19.42A3.26,3.26,0,0,0,.72,22.67v8A3.25,3.25,0,0,0,4,33.93h8a3.24,3.24,0,0,0,3.24-3.25v-8A3.25,3.25,0,0,0,12,19.42Z"/><path class="cls-1" d="M30.34,16.3h-8a4,4,0,0,1-4-4v-8a4,4,0,0,1,4-4h8a4,4,0,0,1,4,4v8A4,4,0,0,1,30.34,16.3Zm-8-15.23a3.25,3.25,0,0,0-3.25,3.25v8a3.26,3.26,0,0,0,3.25,3.25h8a3.26,3.26,0,0,0,3.25-3.25v-8a3.25,3.25,0,0,0-3.25-3.25Z"/><path class="cls-1" d="M30.34,35h-8a4,4,0,0,1-4-4V23a4,4,0,0,1,4-4h8a4,4,0,0,1,4,4v8A4,4,0,0,1,30.34,35Zm-8-15.23A3.25,3.25,0,0,0,19.07,23v8a3.26,3.26,0,0,0,3.25,3.25h8A3.26,3.26,0,0,0,33.59,31V23a3.25,3.25,0,0,0-3.25-3.24Z"/></g></g></svg>