<svg xmlns="http://www.w3.org/2000/svg" viewBox="0 0 50 50"><defs><style>.cls-1{fill:#253d8f;}.cls-2{fill:#fff;}</style></defs><title>guard</title><g id="Layer_2" data-name="Layer 2"><g id="Layer_1-2" data-name="Layer 1"><path class="cls-1" d="M0,11V9.38L1,9C8.79,5.87,16.56,2.69,24.56.13A.8.8,0,0,0,24.8,0h.4a2.53,2.53,0,0,0,.37.18c4.49,1.62,9,3.19,13.47,4.87,3.68,1.37,7.31,2.88,11,4.33V11c0,.15-.06.31-.07.47-.11,1.58-.18,3.15-.33,4.72a52,52,0,0,1-2,10,38.53,38.53,0,0,1-6.51,12.89,30.61,30.61,0,0,1-11.66,9.25C28.09,49,26.62,49.47,25.2,50h-.4a1.12,1.12,0,0,0-.25-.11,28.44,28.44,0,0,1-7.62-3.54A34.52,34.52,0,0,1,3.62,29.7a51.85,51.85,0,0,1-3.43-16C.13,12.81.06,11.92,0,11Zm46.58,2.05c0-.16,0-.32.05-.49a1.17,1.17,0,0,0-.86-1.39c-6.62-2.65-13.25-5.29-20-7.56a2.33,2.33,0,0,0-1.52,0c-6.76,2.28-13.39,4.9-20,7.56a1.17,1.17,0,0,0-.86,1.4c.08,1,.15,2,.24,3a49.46,49.46,0,0,0,2,9.93A32.85,32.85,0,0,0,16,41.69a26,26,0,0,0,8.5,4.76,1.93,1.93,0,0,0,1.09,0,24.44,24.44,0,0,0,6.6-3.3A31,31,0,0,0,42.86,29.75,48.73,48.73,0,0,0,46.58,13.09Z"/><path class="cls-2" d="M46.59,13.07a49,49,0,0,1-3.73,16.66A30.86,30.86,0,0,1,32.15,43.11a24.19,24.19,0,0,1-6.6,3.31,1.84,1.84,0,0,1-1.09,0A25.81,25.81,0,0,1,16,41.67,33,33,0,0,1,5.57,25.49a49.41,49.41,0,0,1-2-9.94c-.09-1-.16-2-.24-3a1.17,1.17,0,0,1,.86-1.4c6.62-2.66,13.25-5.28,20-7.56a2.21,2.21,0,0,1,1.52,0c6.76,2.27,13.39,4.91,20,7.55a1.18,1.18,0,0,1,.86,1.4C46.61,12.74,46.6,12.91,46.59,13.07Zm-2.12,0L44.33,13c-6.29-2.53-12.62-5-19-7.18a1.06,1.06,0,0,0-.61,0L5.88,12.85c-.27.11-.31.25-.29.51a52.54,52.54,0,0,0,1.83,10.7A31.48,31.48,0,0,0,17,39.74a23.56,23.56,0,0,0,7.67,4.47,1,1,0,0,0,.59,0A22.7,22.7,0,0,0,31.36,41a29.12,29.12,0,0,0,9.58-12.33,42.63,42.63,0,0,0,3-10.92C44.16,16.19,44.3,14.6,44.47,13Z"/><path class="cls-1" d="M44.31,13C38,10.42,31.69,8,25.25,5.78a1,1,0,0,0-.61,0L5.86,12.86c-.28.1-.32.24-.3.5a52.42,52.42,0,0,0,1.83,10.7A31.51,31.51,0,0,0,17,39.75a24,24,0,0,0,7.67,4.47,1,1,0,0,0,.6,0,22.8,22.8,0,0,0,6-3.2,29.12,29.12,0,0,0,9.59-12.32,43.13,43.13,0,0,0,3-10.92c.23-1.58.37-3.16.55-4.73Z"/><path class="cls-2" d="M21,34.94,13.47,24.88a1.47,1.47,0,0,1,2.35-1.76l5.39,7.19,13-14.76a1.46,1.46,0,1,1,2.19,1.94Z"/></g></g></svg>