<svg xmlns="http://www.w3.org/2000/svg" viewBox="0 0 28 28"><defs><style>.cls-1{fill:#253D8F;}</style></defs><title>i-cog</title><g id="Layer_2" data-name="Layer 2"><g id="Layer_1-2" data-name="Layer 1"><path class="cls-1" d="M26.35,11.18l-2.48-.5a10,10,0,0,0-.54-1.31l1.4-2.11a2,2,0,0,0-.26-2.58L23.32,3.53a2,2,0,0,0-2.58-.26l-2.11,1.4a10,10,0,0,0-1.31-.54l-.5-2.48a2,2,0,0,0-2-1.65H13.18a2,2,0,0,0-2,1.65l-.49,2.44a11.41,11.41,0,0,0-1.3.53L7.3,3.24a2,2,0,0,0-2.56.25L3.6,4.63a2,2,0,0,0-.26,2.56L4.73,9.27A10.26,10.26,0,0,0,4.05,11a.87.87,0,0,0,.49,1.05.85.85,0,0,0,1.13-.56,8.69,8.69,0,0,1,.79-1.89.84.84,0,0,0,0-.88L4.76,6.25a.33.33,0,0,1,0-.42L5.94,4.69a.33.33,0,0,1,.42,0l2.5,1.67a.86.86,0,0,0,.89,0,8,8,0,0,1,1.89-.78.84.84,0,0,0,.6-.66L12.83,2a.33.33,0,0,1,.33-.27h1.7a.33.33,0,0,1,.33.27l.6,3a.83.83,0,0,0,.61.64,9.3,9.3,0,0,1,1.9.79.88.88,0,0,0,.91,0l2.51-1.67a.33.33,0,0,1,.42,0l1.15,1.15a.33.33,0,0,1,0,.42L21.64,8.81a.86.86,0,0,0,0,.89,9.3,9.3,0,0,1,.79,1.9.84.84,0,0,0,.65.61l3,.6a.33.33,0,0,1,.27.33v1.62a.33.33,0,0,1-.27.33l-3,.59a.85.85,0,0,0-.64.61,9.38,9.38,0,0,1-.79,1.91.86.86,0,0,0,0,.9l1.67,2.51a.35.35,0,0,1,0,.43l-1.15,1.14a.32.32,0,0,1-.42,0l-2.53-1.68a.84.84,0,0,0-.89,0,8.77,8.77,0,0,1-1.9.79.86.86,0,0,0-.61.66l-.6,3a.34.34,0,0,1-.33.27H13.05a.33.33,0,0,1-.32-.27l-.65-3.29a.37.37,0,0,0-.28-.28,8.43,8.43,0,0,1-2.16-.87.86.86,0,0,0-.89,0l-2.5,1.68a.32.32,0,0,1-.42,0L4.69,22a.33.33,0,0,1,0-.42l1.84-2.79a.37.37,0,0,0,0-.39,9,9,0,0,1-.92-2.16.86.86,0,0,0-.66-.61L2,15.05a.33.33,0,0,1-.27-.33V12.94a.16.16,0,0,1,.12-.15l.57-.11a.4.4,0,0,0,.26-.18.89.89,0,0,0-.84-1.45l-1.09.22a.89.89,0,0,0-.72.87v2.67a2,2,0,0,0,1.65,2l2.48.5a10,10,0,0,0,.54,1.31l-1.4,2.11a2,2,0,0,0,.26,2.58l1.15,1.15a2,2,0,0,0,2.58.26l2.11-1.4a10,10,0,0,0,1.31.54l.5,2.48a2,2,0,0,0,2,1.65h1.62a2.07,2.07,0,0,0,2-1.65l.49-2.48a10,10,0,0,0,1.31-.54l2.11,1.4a2.06,2.06,0,0,0,2.59-.26l1.14-1.15a2,2,0,0,0,.26-2.58l-1.4-2.11a10,10,0,0,0,.54-1.31l2.48-.5a2,2,0,0,0,1.65-2V13.19A2,2,0,0,0,26.35,11.18Z"/><path class="cls-1" d="M14,10.86a3.09,3.09,0,0,1,3.09,3.08.86.86,0,1,0,1.71,0,4.8,4.8,0,1,0-4.8,4.8,4.7,4.7,0,0,0,2.93-1,.85.85,0,0,0,.16-1.2.87.87,0,0,0-1.21-.15A3,3,0,0,1,14,17a3.09,3.09,0,1,1,0-6.17Z"/></g></g></svg>