<svg xmlns="http://www.w3.org/2000/svg" viewBox="0 0 28 32.96"><defs><style>.cls-1{fill:none;stroke:#253D8F;stroke-linecap:round;stroke-linejoin:round;stroke-width:2px;}</style></defs><title>i-exit</title><g id="Layer_2" data-name="Layer 2"><g id="Layer_1-2" data-name="Layer 1"><path class="cls-1" d="M19.78,18.81v7.46a1.66,1.66,0,0,1-1.66,1.65h-6.5"/><path class="cls-1" d="M1,26.27V2.66A1.67,1.67,0,0,1,2.66,1H18.12a1.67,1.67,0,0,1,1.66,1.66V9.59"/><path class="cls-1" d="M1.87,1.58,10.58,5a2.41,2.41,0,0,1,.82,2V30.64c0,.91-.37,1.49-.82,1.28L1.82,28a2.39,2.39,0,0,1-.82-2"/><line class="cls-1" x1="17.18" y1="13.88" x2="27" y2="13.88"/><line class="cls-1" x1="22.66" y1="9.49" x2="26.82" y2="13.65"/><line class="cls-1" x1="22.66" y1="18.27" x2="26.82" y2="14.11"/></g></g></svg>