<svg xmlns="http://www.w3.org/2000/svg" viewBox="0 0 31.5 22.75"><defs><style>.cls-1{fill:#253D8F;stroke:#253D8F;stroke-miterlimit:10;stroke-width:0.5px;}</style></defs><title>i-help</title><g id="Layer_2" data-name="Layer 2"><g id="Layer_1-2" data-name="Layer 1"><path class="cls-1" d="M29.21,7H18.35a9.33,9.33,0,0,0-2.71-4.37A9.11,9.11,0,0,0,8.43.31,9.27,9.27,0,0,0,.3,8.58a9.37,9.37,0,0,0,1.8,6.57,9.21,9.21,0,0,0,5.43,3.5L9.8,21a1,1,0,0,0,.71.3,1,1,0,0,0,.5-.14,1,1,0,0,0,.5-.89V18.63a8,8,0,0,0,1.09-.32v.06a2.05,2.05,0,0,0,2,2.05h3.49L20,22.25a.86.86,0,0,0,.6.25.86.86,0,0,0,.85-.88v-1.2H29.2a2.05,2.05,0,0,0,2.05-2.05V9A2.05,2.05,0,0,0,29.21,7ZM10.94,17.76a.48.48,0,0,0-.41.48v2s0,0,0,0,0,0,0,0l-2.4-2.4a.52.52,0,0,0-.25-.14,8.33,8.33,0,0,1-4.29-14,8.25,8.25,0,0,1,5-2.42,7.72,7.72,0,0,1,1-.05A8.25,8.25,0,0,1,15,3.33a8.34,8.34,0,0,1-4.09,14.43Zm19.34.62a1.07,1.07,0,0,1-1.07,1.07H20.89s-.48.22-.51.49v1.42l-1.74-1.77a.31.31,0,0,0-.35-.08H14.66c-.59-.06-1.09-1.13-1.09-1.13V17.9A9.26,9.26,0,0,0,18.63,8H29.21A1.07,1.07,0,0,1,30.28,9v9.34Z"/><path class="cls-1" d="M27.47,10.76a.49.49,0,0,0-.69,0l-4.85,4.85-2.25-2.25a.49.49,0,0,0-.69.69l2.6,2.6a.49.49,0,0,0,.34.14.52.52,0,0,0,.35-.14l5.19-5.2A.49.49,0,0,0,27.47,10.76Z"/><path class="cls-1" d="M9.44,13.19h0a.49.49,0,0,0-.49.49H9a.48.48,0,0,0,.49.48h0a.48.48,0,0,0,.49-.48h0A.49.49,0,0,0,9.44,13.19Z"/><path class="cls-1" d="M11.61,5.83A3.06,3.06,0,0,0,6.36,8a.5.5,0,0,0,.42.5A.48.48,0,0,0,7.33,8a2.11,2.11,0,0,1,2.11-2.1A2.15,2.15,0,0,1,11.55,8a2.12,2.12,0,0,1-1.5,2A1.52,1.52,0,0,0,9,11.47v.14a.5.5,0,0,0,.42.49.48.48,0,0,0,.56-.48v-.15a.55.55,0,0,1,.4-.53,3.06,3.06,0,0,0,1.28-5.11Z"/></g></g></svg>