<svg xmlns="http://www.w3.org/2000/svg" viewBox="0 0 17.4 21.52"><defs><style>.cls-1{fill:#253d8e;}</style></defs><title>invoice</title><g id="Layer_2" data-name="Layer 2"><g id="Layer_1-2" data-name="Layer 1"><polygon class="cls-1" points="17.39 21.23 16.94 21.23 16.94 0.45 0.45 0.45 0.45 21.23 0 21.23 0 0 17.39 0 17.39 21.23"/><polygon class="cls-1" points="13.02 21.52 10.9 19.72 8.79 21.52 6.67 19.72 4.55 21.52 2.43 19.72 0.46 21.4 0.17 21.06 2.43 19.12 4.55 20.93 6.67 19.12 8.79 20.93 10.9 19.12 13.02 20.93 15.14 19.12 17.4 21.06 17.11 21.4 15.14 19.72 13.02 21.52"/><path class="cls-1" d="M14.57,4.4H2.82a.56.56,0,0,1-.56-.56.57.57,0,0,1,.56-.57H14.57a.57.57,0,0,1,.56.57A.56.56,0,0,1,14.57,4.4Z"/><path class="cls-1" d="M14.57,7.23H2.82a.57.57,0,0,1-.56-.57.56.56,0,0,1,.56-.56H14.57a.56.56,0,0,1,.56.56A.57.57,0,0,1,14.57,7.23Z"/><path class="cls-1" d="M7.79,10.05h-5a.57.57,0,0,1,0-1.13h5a.57.57,0,1,1,0,1.13Z"/><path class="cls-1" d="M10.14,16.28V10.79h1.55v-.7h.59v.72a2.25,2.25,0,0,1,1.27.37,1.11,1.11,0,0,1,.43,1,1.24,1.24,0,0,1-.26.8,1.26,1.26,0,0,1-.76.41v0a1.65,1.65,0,0,1,.85.4,1.2,1.2,0,0,1,.32.91,1.37,1.37,0,0,1-.49,1.12,2.27,2.27,0,0,1-1.36.45v.8h-.59v-.8Zm.94-3.21h.61V11.5h-.61Zm0,2.49h.61v-1.8h-.61ZM13,12.25c0-.42-.24-.66-.72-.73v1.53a.81.81,0,0,0,.55-.25A.86.86,0,0,0,13,12.25Zm.13,2.38a.83.83,0,0,0-.2-.57,1,1,0,0,0-.65-.28v1.77a.93.93,0,0,0,.66-.29A1,1,0,0,0,13.13,14.63Z"/></g></g></svg>