<svg xmlns="http://www.w3.org/2000/svg" viewBox="0 0 74.42 28.65"><defs><style>.cls-1{fill:#8bc53f;}</style></defs><title>line</title><g id="Layer_2" data-name="Layer 2"><g id="Layer_1-2" data-name="Layer 1"><path class="cls-1" d="M44.78,15.61V6.23c0-.91,0-1.81.06-2.71C45,1.7,46.07.38,47.73.69c1.07.2,2.67,1.7,2.7,2.66.23,7.49.2,15,0,22.48a3.29,3.29,0,0,1-2,2.44A3.91,3.91,0,0,1,45.26,27c-3-3.75-5.69-7.68-8.51-11.54-.37-.5-.76-1-1.66-2.09,0,3.79,0,6.87,0,10,0,1,.22,2.21-.27,2.9-.68,1-2,2.18-2.93,2.1a3.59,3.59,0,0,1-2.52-2.5c-.21-7.31-.19-14.63,0-21.94a3.2,3.2,0,0,1,2-2.4A4.46,4.46,0,0,1,34.69,2.9c3,3.74,5.7,7.68,8.52,11.54.31.43.62.85.94,1.27Z"/><path class="cls-1" d="M60.34,11.26c2.92,0,5.53.05,8.14,0,2-.05,3.49.79,3.5,2.85s-1.55,2.93-3.5,3c-2.61,0-5.23,0-8.06,0V22.2c3.32,0,6.63,0,10,0,2.09,0,4,.42,4,2.91s-1.76,3-3.91,3c-4.07-.05-8.13,0-12.2,0-2.86,0-3.93-1-3.95-3.92,0-6.78,0-13.56,0-20.34,0-2.42,1.2-3.75,3.61-3.79Q64.32,0,70.69.05c2,0,3.44,1,3.34,3.11S72.45,6,70.43,5.92c-3.32-.07-6.64,0-10.09,0Z"/><path class="cls-1" d="M5.89,22.75c2.5,0,4.66,0,6.81,0s3.69.73,3.64,3c0,2.08-1.51,2.9-3.51,2.88q-4.61,0-9.22,0C1.09,28.66,0,27.3,0,24.92,0,18.06,0,11.2,0,4.33,0,2.23.85.65,3.07.72S5.93,2.44,5.91,4.53C5.85,10.47,5.89,16.42,5.89,22.75Z"/><path class="cls-1" d="M18.75,14.46c0-3.43,0-6.87,0-10.3,0-2,.77-3.52,2.85-3.55s2.95,1.46,3,3.45V24.94c0,2-.78,3.54-2.86,3.55-2.27,0-3-1.65-3-3.72C18.77,21.33,18.75,17.9,18.75,14.46Z"/></g></g></svg>