<svg xmlns="http://www.w3.org/2000/svg" viewBox="0 0 26.35 26.35"><defs><style>.cls-1{fill:#fff;}</style></defs><title>location</title><g id="Layer_2" data-name="Layer 2"><g id="Layer_1-2" data-name="Layer 1"><path class="cls-1" d="M22.46,12.65A9.32,9.32,0,0,0,13.7,3.89V0h-1V3.89a9.32,9.32,0,0,0-8.76,8.76H0v1H3.89a9.32,9.32,0,0,0,8.76,8.76v3.89h1V22.46a9.31,9.31,0,0,0,8.76-8.76h3.89v-1ZM13.7,21.41l-.52,0-.53,0A8.27,8.27,0,0,1,5,13.7a4.61,4.61,0,0,1,0-1A8.25,8.25,0,0,1,12.65,5a4.61,4.61,0,0,1,1,0,8.27,8.27,0,0,1,7.71,7.7c0,.17,0,.35,0,.53s0,.35,0,.52A8.28,8.28,0,0,1,13.7,21.41Z"/><path class="cls-1" d="M13.7,12.65h0a.71.71,0,0,0-1,0h0v0a.71.71,0,0,0,0,1v0h0a.71.71,0,0,0,1,0h0v0a.71.71,0,0,0,0-1Z"/><path class="cls-1" d="M13.7,7.82a4.36,4.36,0,0,0-.52-.05,4.53,4.53,0,0,0-.53.05,5.37,5.37,0,0,0-4.83,4.83,4.34,4.34,0,0,0-.05.53,4.36,4.36,0,0,0,.05.52,5.37,5.37,0,0,0,4.83,4.83,4.53,4.53,0,0,0,.53,0,4.36,4.36,0,0,0,.52,0,5.37,5.37,0,0,0,4.83-4.83,4.36,4.36,0,0,0,0-.52,4.34,4.34,0,0,0,0-.53A5.37,5.37,0,0,0,13.7,7.82Zm0,9.66a4.36,4.36,0,0,1-.52.05,4.53,4.53,0,0,1-.53-.05A4.33,4.33,0,0,1,8.88,13.7a3,3,0,0,1-.06-.52,3,3,0,0,1,.06-.53,4.31,4.31,0,0,1,3.77-3.77,3.07,3.07,0,0,1,.53-.06,3,3,0,0,1,.52.06,4.31,4.31,0,0,1,3.77,3.77,3,3,0,0,1,.06.53,3,3,0,0,1-.06.52A4.33,4.33,0,0,1,13.7,17.48Z"/></g></g></svg>