<svg xmlns="http://www.w3.org/2000/svg" viewBox="0 0 446.83 258.36"><defs><style>.cls-1{fill:#253d8f;}.cls-2{fill:#fb9300;}</style></defs><title>logo</title><g id="Layer_2" data-name="Layer 2"><g id="Layer_1-2" data-name="Layer 1"><path class="cls-1" d="M154.14,147.27V170l25.8-26.9a23.68,23.68,0,0,1,3.17-2.88,5.85,5.85,0,0,1,3.47-.93,6.39,6.39,0,0,1,4.58,1.66,5.37,5.37,0,0,1,1.75,4q0,2.88-3,5.71l-16,15.13,18.41,26.38a33.93,33.93,0,0,1,2.92,4.8,9.32,9.32,0,0,1,1,4,5,5,0,0,1-1.7,3.76,6.52,6.52,0,0,1-4.63,1.59,7.81,7.81,0,0,1-4.47-1.17,10.07,10.07,0,0,1-2.92-3.12c-.79-1.3-1.5-2.48-2.12-3.54l-15.53-23.9L154.14,185v13.41c0,2.71-.62,4.73-1.86,6a6.29,6.29,0,0,1-4.78,2,6.45,6.45,0,0,1-3.23-.89,6.17,6.17,0,0,1-2.39-2.39,7.82,7.82,0,0,1-.75-2.87c-.09-1.09-.13-2.67-.13-4.74V147.27q0-4,1.75-6a6,6,0,0,1,4.75-2,6.29,6.29,0,0,1,4.81,2Q154.14,143.24,154.14,147.27Z"/><path class="cls-1" d="M216.14,140.41h17.13a46,46,0,0,1,11.46,1.24,21.05,21.05,0,0,1,8.67,4.64q10.14,8.69,10.14,26.38a51.58,51.58,0,0,1-1,10.66,31.38,31.38,0,0,1-3.15,8.7,26.84,26.84,0,0,1-5.44,6.92,22.45,22.45,0,0,1-5.71,3.77,26.14,26.14,0,0,1-6.66,2,51.09,51.09,0,0,1-8,.57H216.41a10.76,10.76,0,0,1-5.4-1.08,5,5,0,0,1-2.37-3,19.4,19.4,0,0,1-.56-5.12V148.46q0-4.25,1.91-6.15T216.14,140.41Zm5.09,10.4v44h10q3.27,0,5.13-.18a16.23,16.23,0,0,0,3.85-.88,10.48,10.48,0,0,0,3.45-2q6.6-5.58,6.59-19.21,0-9.6-2.89-14.38t-7.15-6.09a35.3,35.3,0,0,0-10.27-1.3Z"/><path class="cls-1" d="M317.83,150.54h-29.6v15.93h27.26a6.5,6.5,0,0,1,4.49,1.35,4.59,4.59,0,0,1,1.48,3.57A4.77,4.77,0,0,1,320,175a6.33,6.33,0,0,1-4.51,1.4H288.23v18.45h30.62a6.7,6.7,0,0,1,4.67,1.44,4.93,4.93,0,0,1,1.57,3.83,4.8,4.8,0,0,1-1.57,3.73,6.7,6.7,0,0,1-4.67,1.44H283.14q-4.29,0-6.17-1.9t-1.89-6.15V148.46a10.74,10.74,0,0,1,.85-4.62,5.15,5.15,0,0,1,2.63-2.61,11,11,0,0,1,4.58-.82h34.69a6.74,6.74,0,0,1,4.67,1.39,4.71,4.71,0,0,1,1.53,3.65,4.76,4.76,0,0,1-1.53,3.7A6.74,6.74,0,0,1,317.83,150.54Z"/><path class="cls-1" d="M377,197.94,374,189.79H347.57l-3.1,8.32a29.57,29.57,0,0,1-3.09,6.58,5,5,0,0,1-4.21,1.7,6.2,6.2,0,0,1-4.38-1.81,5.56,5.56,0,0,1-1.9-4.12,9.27,9.27,0,0,1,.44-2.74c.3-.95.78-2.26,1.46-3.94l16.6-42.13,1.7-4.36a22.16,22.16,0,0,1,2.12-4.23,8.74,8.74,0,0,1,3-2.72,9.09,9.09,0,0,1,4.53-1,9.27,9.27,0,0,1,4.59,1,8.9,8.9,0,0,1,3,2.68,18.32,18.32,0,0,1,1.9,3.52c.52,1.25,1.17,2.93,2,5l16.95,41.86q2,4.79,2,7a5.73,5.73,0,0,1-1.88,4.14,6.18,6.18,0,0,1-4.53,1.88,5.87,5.87,0,0,1-2.66-.55,5.37,5.37,0,0,1-1.86-1.51,13.65,13.65,0,0,1-1.61-2.92C378,200.1,377.46,198.94,377,197.94Zm-26-18h19.39l-9.78-26.78Z"/><path class="cls-1" d="M413.6,147.27v47.21h26.64a7.05,7.05,0,0,1,4.89,1.55,5.08,5.08,0,0,1,1.7,3.9,4.92,4.92,0,0,1-1.68,3.87,7.2,7.2,0,0,1-4.91,1.48H408.51q-4.29,0-6.18-1.9t-1.88-6.15v-50q0-4,1.79-6a6.08,6.08,0,0,1,4.72-2,6.29,6.29,0,0,1,4.8,2C413,142.58,413.6,144.58,413.6,147.27Z"/><path class="cls-2" d="M90.94,131.87A37.13,37.13,0,1,0,128.06,169,37.17,37.17,0,0,0,90.94,131.87ZM111.06,169a20.13,20.13,0,1,1-20.12-20.12A20.15,20.15,0,0,1,111.06,169Z"/><path class="cls-2" d="M49.38,123.05a63.81,63.81,0,0,1,8.85-6.11,64.83,64.83,0,0,1,80.41,13.17,13.45,13.45,0,1,0,20.21-17.75A91.1,91.1,0,0,0,90.33,81.55h-.28L128,23.63a15.38,15.38,0,0,0-4.11-21.07h0a14.7,14.7,0,0,0-20.64,4.19L66.68,62.57,77,26.39c2.3-8-2.08-16.5-9.78-18.9A14.46,14.46,0,0,0,49.16,17.7L33.66,71.88l2.41-27.45C36.8,36.07,31.71,28.74,24.7,28s-13.28,5.51-14,13.87L.08,162.87a17.51,17.51,0,0,0,0,3.32C0,167.44,0,168.69,0,170c0,48.75,40.52,88.41,90.33,88.41a90.77,90.77,0,0,0,63.8-25.82,13.45,13.45,0,0,0-18.8-19.25,64,64,0,0,1-45,18.16c-35,0-63.42-27.59-63.42-61.5A59.84,59.84,0,0,1,37,136.8,62.75,62.75,0,0,1,49.38,123.05Z"/></g></g></svg>