<?xml version="1.0" encoding="utf-8"?>
<!-- Generator: Adobe Illustrator 23.0.0, SVG Export Plug-In . SVG Version: 6.00 Build 0)  -->
<svg version="1.1" id="Layer_1" xmlns="http://www.w3.org/2000/svg" xmlns:xlink="http://www.w3.org/1999/xlink" x="0px" y="0px"
	 viewBox="0 0 446.8 258.4" style="enable-background:new 0 0 446.8 258.4;" xml:space="preserve">
<style type="text/css">
	.st0{fill:#FFFFFF;}
	.st1{fill:#FB9300;}
</style>
<title>logo</title>
<g>
	<g id="Layer_1-2">
		<path class="st0" d="M154.1,147.3V170l25.8-26.9c1-1.1,2-2,3.2-2.9c1-0.7,2.2-1,3.5-0.9c1.7-0.1,3.3,0.5,4.6,1.7
			c1.1,1,1.8,2.5,1.8,4c0,1.9-1,3.8-3,5.7l-16,15.1l18.4,26.4c1.1,1.5,2.1,3.1,2.9,4.8c0.6,1.2,1,2.6,1,4c0,1.4-0.6,2.8-1.7,3.8
			c-1.3,1.1-2.9,1.7-4.6,1.6c-1.6,0.1-3.1-0.3-4.5-1.2c-1.2-0.8-2.2-1.9-2.9-3.1c-0.8-1.3-1.5-2.5-2.1-3.5l-15.5-23.9L154.1,185
			v13.4c0,2.7-0.6,4.7-1.9,6c-1.2,1.3-3,2.1-4.8,2c-1.1,0-2.3-0.3-3.2-0.9c-1-0.6-1.8-1.4-2.4-2.4c-0.4-0.9-0.7-1.9-0.8-2.9
			c-0.1-1.1-0.1-2.7-0.1-4.7v-48.3c0-2.7,0.6-4.7,1.8-6c1.2-1.3,2.9-2.1,4.8-2c1.8-0.1,3.6,0.7,4.8,2
			C153.5,142.6,154.1,144.6,154.1,147.3z"/>
		<path class="st0" d="M216.1,140.4h17.1c3.9-0.1,7.7,0.3,11.5,1.2c3.2,0.8,6.2,2.4,8.7,4.6c6.8,5.8,10.1,14.6,10.1,26.4
			c0,3.6-0.3,7.2-1,10.7c-0.6,3-1.7,6-3.1,8.7c-1.4,2.6-3.3,4.9-5.4,6.9c-1.7,1.5-3.6,2.8-5.7,3.8c-2.1,1-4.4,1.6-6.7,2
			c-2.6,0.4-5.3,0.6-8,0.6h-17.2c-1.9,0.1-3.7-0.3-5.4-1.1c-1.2-0.6-2-1.7-2.4-3c-0.4-1.7-0.6-3.4-0.6-5.1v-47.6
			c0-2.8,0.6-4.9,1.9-6.1C211.3,141,213.3,140.4,216.1,140.4z M221.2,150.8v44h10c2.2,0,3.9-0.1,5.1-0.2c1.3-0.1,2.6-0.4,3.9-0.9
			c1.3-0.4,2.4-1.1,3.4-2c4.4-3.7,6.6-10.1,6.6-19.2c0-6.4-1-11.2-2.9-14.4s-4.3-5.2-7.1-6.1c-3.3-0.9-6.8-1.4-10.3-1.3L221.2,150.8
			z"/>
		<path class="st0" d="M317.8,150.5h-29.6v15.9h27.3c1.6-0.1,3.2,0.4,4.5,1.4c1,0.9,1.5,2.2,1.5,3.6c0,1.4-0.5,2.7-1.5,3.6
			c-1.3,1-2.9,1.5-4.5,1.4h-27.3v18.4h30.6c1.7-0.1,3.4,0.4,4.7,1.4c1.1,1,1.6,2.4,1.6,3.8c0.1,1.4-0.5,2.8-1.6,3.7
			c-1.3,1.1-3,1.6-4.7,1.4h-35.7c-2.9,0-4.9-0.6-6.2-1.9c-1.3-1.3-1.9-3.3-1.9-6.1v-48.8c-0.1-1.6,0.2-3.2,0.9-4.6
			c0.5-1.2,1.5-2.1,2.6-2.6c1.5-0.6,3-0.9,4.6-0.8h34.7c1.7-0.1,3.3,0.4,4.7,1.4c1,0.9,1.6,2.3,1.5,3.6c0.1,1.4-0.5,2.8-1.5,3.7
			C321.2,150.2,319.5,150.7,317.8,150.5z"/>
		<path class="st0" d="M377,197.9l-3-8.2h-26.4l-3.1,8.3c-0.8,2.3-1.8,4.5-3.1,6.6c-1.1,1.2-2.6,1.8-4.2,1.7c-1.6,0-3.2-0.7-4.4-1.8
			c-1.2-1-1.9-2.5-1.9-4.1c0-0.9,0.2-1.9,0.4-2.7c0.3-0.9,0.8-2.3,1.5-3.9l16.6-42.1l1.7-4.4c0.6-1.5,1.3-2.9,2.1-4.2
			c0.8-1.1,1.8-2.1,3-2.7c1.4-0.7,3-1.1,4.5-1c1.6-0.1,3.2,0.3,4.6,1c1.2,0.7,2.2,1.6,3,2.7c0.8,1.1,1.4,2.3,1.9,3.5
			c0.5,1.3,1.2,2.9,2,5l17,41.9c1.3,3.2,2,5.5,2,7c0,1.6-0.7,3.1-1.9,4.1c-1.2,1.2-2.8,1.9-4.5,1.9c-0.9,0-1.8-0.2-2.7-0.6
			c-0.7-0.4-1.4-0.9-1.9-1.5c-0.7-0.9-1.2-1.9-1.6-2.9C378,200.1,377.5,198.9,377,197.9z M351,179.9h19.4l-9.8-26.8L351,179.9z"/>
		<path class="st0" d="M413.6,147.3v47.2h26.6c1.8-0.1,3.5,0.4,4.9,1.6c1.1,1,1.7,2.4,1.7,3.9c0,1.5-0.6,2.9-1.7,3.9
			c-1.4,1.1-3.1,1.6-4.9,1.5h-31.7c-2.9,0-4.9-0.6-6.2-1.9s-1.9-3.3-1.9-6.1v-50c0-2.7,0.6-4.7,1.8-6c1.2-1.3,2.9-2.1,4.7-2
			c1.8-0.1,3.6,0.7,4.8,2C413,142.6,413.6,144.6,413.6,147.3z"/>
		<path class="st1" d="M90.9,131.9c-20.5,0-37.1,16.6-37.1,37.1c0,20.5,16.6,37.1,37.1,37.1s37.1-16.6,37.1-37.1c0,0,0,0,0,0
			C128,148.5,111.4,131.9,90.9,131.9z M111.1,169c0,11.1-9,20.1-20.1,20.1s-20.1-9-20.1-20.1s9-20.1,20.1-20.1c0,0,0,0,0,0
			C102,148.9,111,157.9,111.1,169z"/>
		<path class="st1" d="M49.4,123.1c2.8-2.3,5.7-4.3,8.9-6.1c26.6-15.1,60.1-9.6,80.4,13.2c4.8,5.6,13.3,6.3,19,1.5s6.3-13.3,1.5-19
			c-0.1-0.1-0.1-0.2-0.2-0.2c-17.3-19.6-42.3-30.9-68.5-30.8h-0.3L128,23.6c4.6-7,2.7-16.3-4.1-21.1l0,0C117.2-2,108-0.3,103.5,6.4
			c-0.1,0.1-0.1,0.2-0.2,0.3L66.7,62.6L77,26.4c2.3-8-2.1-16.5-9.8-18.9c-7.7-2.2-15.7,2.1-17.9,9.8c0,0.1-0.1,0.3-0.1,0.4
			L33.7,71.9l2.4-27.5c0.7-8.4-4.4-15.7-11.4-16.4s-13.3,5.5-14,13.9l-10.6,121c-0.1,1.1-0.1,2.2,0,3.3C0,167.4,0,168.7,0,170
			c0,48.8,40.5,88.4,90.3,88.4c23.8,0.1,46.7-9.2,63.8-25.8c5.3-5.2,5.4-13.7,0.2-19c-5.2-5.3-13.7-5.4-19-0.2
			c-12,11.7-28.2,18.2-45,18.2c-35,0-63.4-27.6-63.4-61.5c0-11.8,3.5-23.4,10.1-33.2C40.4,131.6,44.6,127,49.4,123.1z"/>
	</g>
</g>
</svg>
