<?xml version="1.0" encoding="utf-8"?>
<!-- Generator: Adobe Illustrator 23.0.0, SVG Export Plug-In . SVG Version: 6.00 Build 0)  -->
<svg version="1.1" id="Layer_1" xmlns="http://www.w3.org/2000/svg" xmlns:xlink="http://www.w3.org/1999/xlink" x="0px" y="0px"
	 viewBox="0 0 38.3 50" style="enable-background:new 0 0 38.3 50;" xml:space="preserve">
<style type="text/css">
	.st0{fill:#253D8E;}
</style>
<title>menu-3</title>
<g>
	<g id="Layer_1-2">
		<path class="st0" d="M37.7,9.1h-8.6V0.5h0.2c1.1,0,2.3,0.5,3.1,1.3l4,4.1c0.8,0.8,1.3,1.9,1.3,3L37.7,9.1z M33.5,50H4.8
			C2.1,50,0,47.9,0,45.2V4.8C0,2.1,2.1,0,4.8,0c0,0,0,0,0,0h21.5c0.3,0,0.5,0.2,0.5,0.5v10.1c0,0.5,0.4,0.9,0.9,0.9h10.1
			c0.3,0,0.5,0.2,0.5,0.5v0v33.2C38.3,47.8,36.2,50,33.5,50L33.5,50z M4.8,1C2.7,1,1,2.7,1,4.8v40.4C1,47.3,2.7,49,4.8,49h28.7
			c2.1,0,3.9-1.7,3.9-3.9l0,0V12.5h-9.6c-1,0-1.9-0.8-1.9-1.9V1H4.8z M30.4,22.6c0-0.6-0.4-1-1-1H8.9c-0.6,0-1,0.4-1,1s0.4,1,1,1
			h20.6C30,23.6,30.4,23.1,30.4,22.6z M30.4,27.6c0-0.6-0.4-1-1-1H8.9c-0.6,0-1,0.4-1,1s0.4,1,1,1h20.6C30,28.6,30.4,28.1,30.4,27.6
			z M30.4,32.6c0-0.6-0.4-1-1-1H8.9c-0.6,0-1,0.4-1,1s0.4,1,1,1h20.6C30,33.6,30.4,33.1,30.4,32.6z M30.4,37.6c0-0.6-0.4-1-1-1H8.9
			c-0.6,0-1,0.4-1,1s0.4,1,1,1h20.6C30,38.6,30.4,38.1,30.4,37.6z"/>
	</g>
</g>
</svg>
