<?xml version="1.0" encoding="utf-8"?>
<!-- Generator: Adobe Illustrator 23.0.0, SVG Export Plug-In . SVG Version: 6.00 Build 0)  -->
<svg version="1.1" id="Layer_1" xmlns="http://www.w3.org/2000/svg" xmlns:xlink="http://www.w3.org/1999/xlink" x="0px" y="0px"
	 viewBox="0 0 50 49" style="enable-background:new 0 0 50 49;" xml:space="preserve">
<style type="text/css">
	.st0{fill:#253D8E;}
</style>
<title>menu-4</title>
<g>
	<g id="Layer_1-2">
		<path class="st0" d="M25.4,25c-6.9,0-12.5-5.6-12.5-12.5S18.4,0,25.3,0s12.5,5.6,12.5,12.5c0,0,0,0,0,0C37.8,19.4,32.2,25,25.4,25
			z M25.4,1C19,1,13.8,6.1,13.8,12.5S19,24,25.3,24s11.5-5.1,11.5-11.5c0,0,0,0,0,0C36.8,6.2,31.7,1,25.4,1z M50,49H0v-0.5
			C0,37.2,9.2,28,20.5,28h9C40.8,28,50,37.2,50,48.5V49z M1,48h48c-0.3-10.6-8.9-19-19.5-19h-9C9.9,29,1.3,37.4,1,48z"/>
	</g>
</g>
</svg>
