<svg xmlns="http://www.w3.org/2000/svg" viewBox="0 0 62.71 51"><defs><style>.cls-1{fill:#253d8e;}</style></defs><title>menu-1</title><g id="Layer_2" data-name="Layer 2"><g id="Layer_1-2" data-name="Layer 1"><path class="cls-1" d="M50,51H39.11a3.61,3.61,0,0,1-3.61-3.61V38.81a4.81,4.81,0,0,0-3.23-4.59,5.22,5.22,0,0,0-4.71.7,4.57,4.57,0,0,0-1.93,3.71v8.76A3.61,3.61,0,0,1,22,51H12.69a3.61,3.61,0,0,1-3.6-3.61V30.8H3.74A3.66,3.66,0,0,1,1,29.63a3.8,3.8,0,0,1-1-2.81,3.76,3.76,0,0,1,1.3-2.57L29,.85a3.6,3.6,0,0,1,4.64,0L61.12,24a3.79,3.79,0,0,1,1.28,4.64h0a3.59,3.59,0,0,1-3.32,2.13H53.6V47.39A3.61,3.61,0,0,1,50,51ZM30.56,33a6.4,6.4,0,0,1,2,.32,5.8,5.8,0,0,1,3.93,5.54v8.58A2.61,2.61,0,0,0,39.11,50H50a2.61,2.61,0,0,0,2.61-2.61V29.8h6.45a2.57,2.57,0,0,0,2.42-1.52h0a2.79,2.79,0,0,0-.95-3.45L33,1.61a2.6,2.6,0,0,0-3.34,0L2,25A2.71,2.71,0,0,0,1,26.9,2.8,2.8,0,0,0,1.72,29a2.65,2.65,0,0,0,2,.83h6.35V47.39A2.61,2.61,0,0,0,12.69,50H22a2.61,2.61,0,0,0,2.61-2.61V38.63A5.57,5.57,0,0,1,27,34.11,6.1,6.1,0,0,1,30.56,33Z"/></g></g></svg>