<svg xmlns="http://www.w3.org/2000/svg" viewBox="0 0 35.75 35"><defs><style>.cls-1{fill:#fff;}</style></defs><title>messager</title><g id="Layer_2" data-name="Layer 2"><g id="Layer_1-2" data-name="Layer 1"><path class="cls-1" d="M1.52,35c.11-.67.21-1.3.31-1.94l.9-5.64c.1-.62.21-1.23.29-1.85A.46.46,0,0,0,3,25.25a15,15,0,0,1-2.61-5.8,14.8,14.8,0,0,1,1.2-9.77,16.18,16.18,0,0,1,3.6-4.8A18,18,0,0,1,14,.39a18.43,18.43,0,0,1,5.59-.3,18.12,18.12,0,0,1,12,5.78,14.93,14.93,0,0,1,4,8.29,14.85,14.85,0,0,1-3.24,11.69A17.57,17.57,0,0,1,23,31.92a19.25,19.25,0,0,1-6.54.6,19.86,19.86,0,0,1-5-1,.5.5,0,0,0-.34,0L1.76,34.91ZM16.86,10.87,6.14,21.53a.47.47,0,0,0,.21,0l9-3.54a.27.27,0,0,1,.32,0c.7.56,1.42,1.12,2.13,1.67L19.45,21,29.5,10.72l-.25.09c-2.74,1.06-5.47,2.11-8.2,3.18a.31.31,0,0,1-.35-.06L17.9,11.7Z"/></g></g></svg>