<svg xmlns="http://www.w3.org/2000/svg" viewBox="0 0 68.15 49.8"><defs><style>.cls-1{fill:#fff;}</style></defs><title>new-order-w</title><g id="Layer_2" data-name="Layer 2"><g id="Layer_1-2" data-name="Layer 1"><path class="cls-1" d="M53.08,49.8H22.82a9.19,9.19,0,0,1-9.18-9.18V23.73a9.19,9.19,0,0,1,9.18-9.18H53.08V16H22.82a7.71,7.71,0,0,0-7.7,7.71V40.62a7.71,7.71,0,0,0,7.7,7.7H53.08a7.72,7.72,0,0,0,7.71-7.7V23.73h1.47V40.62A9.19,9.19,0,0,1,53.08,49.8Z"/><path class="cls-1" d="M66.84,9.54a4.48,4.48,0,0,0-6.32,0L48.92,21.13a.54.54,0,0,0-.16.34l-.86,6.36a.59.59,0,0,0,.16.49.63.63,0,0,0,.41.17h.08L52.38,28a.58.58,0,0,0,.5-.66.58.58,0,0,0-.65-.5l-3.08.41.6-4.43,4.68,4.67a.55.55,0,0,0,.41.17.58.58,0,0,0,.41-.17L66.84,15.87a4.48,4.48,0,0,0,0-6.33ZM60.74,11l1.95,1.94L52.11,23.49l-2-1.94Zm-5.9,15.25-1.9-1.9L63.52,13.74l1.9,1.9ZM66.23,14.81l-4.66-4.66a3.28,3.28,0,0,1,2.11-.75,3.3,3.3,0,0,1,2.55,5.41Z"/><rect class="cls-1" x="20.64" y="26.65" width="22.1" height="1.47"/><rect class="cls-1" x="21.01" y="31.8" width="34.62" height="1.47"/><rect class="cls-1" x="21.01" y="36.96" width="34.62" height="1.47"/><path class="cls-1" d="M10.9,0V8.84h8.5v2.25H10.9V20H8.5V11.09H0V8.84H8.5V0Z"/></g></g></svg>