<svg xmlns="http://www.w3.org/2000/svg" viewBox="0 0 24.63 26.76"><defs><style>.cls-1{fill:#fff;}</style></defs><title>noti-w</title><g id="Layer_2" data-name="Layer 2"><g id="Layer_1-2" data-name="Layer 1"><path class="cls-1" d="M21,7.57A7.59,7.59,0,0,0,16.67.94,10.31,10.31,0,0,0,14.45.21h0A10.74,10.74,0,0,0,10,.25h0A10.9,10.9,0,0,0,8,.94,7.37,7.37,0,0,0,3.59,7.57V12.8A14.58,14.58,0,0,1,0,22.3l4.46.77a12.85,12.85,0,0,1,3.12.78h0a1.88,1.88,0,0,1,1.24-.16h0l1.07.09h.22l.91.05h.19q1.08,0,2.16,0h.19l.92-.05h.21l1.09-.09h0a2.28,2.28,0,0,0,1.25-.42h0a9.87,9.87,0,0,0,3.11-.2l4.45-.77A13.67,13.67,0,0,1,21,12.8ZM16.24,3.3a.58.58,0,0,1-.77.28,7.74,7.74,0,0,0-6.29,0,4.71,4.71,0,0,0-2.78,4,.58.58,0,0,1-.58.58h0a.57.57,0,0,1-.57-.59,5.86,5.86,0,0,1,3.46-5,8.89,8.89,0,0,1,7.25,0A.58.58,0,0,1,16.24,3.3Z"/><path class="cls-1" d="M8.59,24.83a4.58,4.58,0,0,0,7.47,0,34.87,34.87,0,0,1-3.74.21A34.4,34.4,0,0,1,8.59,24.83Z"/></g></g></svg>