<svg xmlns="http://www.w3.org/2000/svg" viewBox="0 0 23.86 38"><defs><style>.cls-1{fill:#fa9200;}</style></defs><title>ok-c</title><g id="Layer_2" data-name="Layer 2"><g id="Layer_1-2" data-name="Layer 1"><path class="cls-1" d="M7.26,18.1a8.45,8.45,0,0,1,1.31-.9,9,9,0,0,1,1.76-.78,9.61,9.61,0,0,1,3-.47,9.43,9.43,0,0,1,7.1,3.19,2,2,0,0,0,3-2.61A13.38,13.38,0,0,0,13.29,12h0l5.57-8.52a2.25,2.25,0,0,0-.6-3.1h0a2.17,2.17,0,0,0-3,.61L9.81,9.2l1.52-5.32A2.25,2.25,0,0,0,9.89,1.1,2.13,2.13,0,0,0,7.23,2.6L5,10.57l.35-4A2.11,2.11,0,0,0,3.63,4.12a2.06,2.06,0,0,0-2.06,2L0,24a3.84,3.84,0,0,0,0,.48c0,.19,0,.37,0,.56A13.16,13.16,0,0,0,13.29,38a13.35,13.35,0,0,0,9.38-3.8,2,2,0,1,0-2.77-2.83A9.4,9.4,0,0,1,13.29,34,9.2,9.2,0,0,1,4,25a8.75,8.75,0,0,1,1.48-4.88A9,9,0,0,1,7.26,18.1Z"/></g></g></svg>