<?xml version="1.0" encoding="utf-8"?>
<!-- Generator: Adobe Illustrator 23.0.0, SVG Export Plug-In . SVG Version: 6.00 Build 0)  -->
<svg version="1.1" id="Layer_1" xmlns="http://www.w3.org/2000/svg" xmlns:xlink="http://www.w3.org/1999/xlink" x="0px" y="0px"
	 viewBox="0 0 65.6 50" style="enable-background:new 0 0 65.6 50;" xml:space="preserve">
<style type="text/css">
	.st0{fill:#555555;}
</style>
<title>menu-2</title>
<g>
	<g id="Layer_1-2">
		<path class="st0" d="M47.4,50H11C4.9,50,0,45.1,0,39V18.6c0-6.1,4.9-11,11-11h36.4v1.7H11c-5.1,0-9.3,4.2-9.3,9.3V39
			c0,5.1,4.2,9.2,9.3,9.2h36.4c5.1,0,9.3-4.1,9.3-9.2V18.6h1.8V39C58.5,45.1,53.6,50,47.4,50C47.5,50,47.5,50,47.4,50z"/>
		<path class="st0" d="M64,1.6c-2.1-2.1-5.5-2.1-7.6,0c0,0,0,0,0,0l-14,13.9c-0.1,0.1-0.2,0.2-0.2,0.4l-1,7.7c0,0.2,0,0.4,0.2,0.6
			c0.1,0.1,0.3,0.2,0.5,0.2H42l4.6-0.6c0.4,0,0.7-0.4,0.6-0.8c0,0,0,0,0,0c-0.1-0.4-0.4-0.6-0.8-0.6l-3.7,0.5l0.7-5.3l5.6,5.6
			c0.1,0.1,0.3,0.2,0.5,0.2c0.2,0,0.4-0.1,0.5-0.2L64,9.2C66.1,7.1,66.1,3.7,64,1.6C64,1.6,64,1.6,64,1.6z M56.7,3.3L59,5.6
			L46.3,18.4L43.9,16L56.7,3.3z M49.6,21.6l-2.3-2.3L60,6.6l2.3,2.3L49.6,21.6z M63.3,7.9l-5.6-5.6c0.7-0.6,1.6-0.9,2.5-0.9
			c1.1,0,2.1,0.4,2.8,1.2C64.4,4,64.5,6.3,63.3,7.9L63.3,7.9z"/>
		<rect x="8.4" y="22.1" class="st0" width="26.6" height="1.8"/>
		<rect x="8.9" y="28.4" class="st0" width="41.7" height="1.8"/>
		<rect x="8.9" y="34.6" class="st0" width="41.7" height="1.8"/>
	</g>
</g>
</svg>
