<svg xmlns="http://www.w3.org/2000/svg" viewBox="0 0 27.34 30"><defs><style>.cls-1{fill:gray;}</style></defs><title>password</title><g id="Layer_2" data-name="Layer 2"><g id="Layer_1-2" data-name="Layer 1"><rect class="cls-1" x="3.61" y="11.01" width="20.13" height="0.76"/><path class="cls-1" d="M25.62,11H24.49v.76h1.13a1,1,0,0,1,1,1V28.28a1,1,0,0,1-1,1H1.72a1,1,0,0,1-1-1V12.73a1,1,0,0,1,1-1H2.85V11H1.72A1.72,1.72,0,0,0,0,12.73V28.28A1.72,1.72,0,0,0,1.72,30h23.9a1.72,1.72,0,0,0,1.72-1.72V12.73A1.72,1.72,0,0,0,25.62,11Z"/><path class="cls-1" d="M3.61,9.88A9.13,9.13,0,0,1,12.73.76h1.88a9.13,9.13,0,0,1,9.12,9.12V11h.76V9.88A9.89,9.89,0,0,0,14.61,0H12.73A9.89,9.89,0,0,0,2.85,9.88V11h.76Z"/><rect class="cls-1" x="2.85" y="11.01" width="0.76" height="0.76"/><rect class="cls-1" x="23.73" y="11.01" width="0.76" height="0.76"/><path class="cls-1" d="M13.67,23.92a3.8,3.8,0,1,1,3.8-3.79A3.8,3.8,0,0,1,13.67,23.92Zm0-6.83a3,3,0,1,0,3,3A3,3,0,0,0,13.67,17.09Z"/></g></g></svg>