<svg xmlns="http://www.w3.org/2000/svg" viewBox="0 0 25.09 25.09"><defs><style>.cls-1{fill:#fb9300;}</style></defs><title>phone-org</title><g id="Layer_2" data-name="Layer 2"><g id="Layer_1-2" data-name="Layer 1"><path class="cls-1" d="M0,6.06a7.59,7.59,0,0,1,2.1-5A1.79,1.79,0,0,1,2.86.55C3.61.33,4.37.18,5.13,0a.82.82,0,0,1,.93.46c.27.48.54,1,.82,1.43C7.51,3,8.15,4.1,8.8,5.18c.46.76.45,1.11-.17,1.74-.35.35-.74.67-1.12,1L6.23,9.05A.86.86,0,0,0,6,10.18c.55,1,1.07,1.9,1.68,2.81a17,17,0,0,0,6,5.38c.44.25.88.5,1.34.73a.75.75,0,0,0,.94-.16c.41-.42.8-.87,1.2-1.31s.69-.83,1.08-1.2a1.1,1.1,0,0,1,1.64-.17l3.7,2.17c.37.22.75.42,1.11.64a.82.82,0,0,1,.42.81,7.32,7.32,0,0,1-.59,2.47,1.83,1.83,0,0,1-.45.62,7.49,7.49,0,0,1-5.24,2.12,7.83,7.83,0,0,1-2.52-.53c-.84-.29-1.67-.6-2.51-.92a17.09,17.09,0,0,1-4.42-2.59A33.82,33.82,0,0,1,4,15.74,22.16,22.16,0,0,1,.39,8.36,6.86,6.86,0,0,1,0,6.06Z"/></g></g></svg>