<svg xmlns="http://www.w3.org/2000/svg" viewBox="0 0 29.98 29.97"><defs><style>.cls-1{fill:#999;}</style></defs><title>phone-0</title><g id="Layer_2" data-name="Layer 2"><g id="Layer_1-2" data-name="Layer 1"><path class="cls-1" d="M22.37,30h-.15a9.84,9.84,0,0,1-3.07-.64c-1-.34-1.94-.7-2.91-1.07A19.69,19.69,0,0,1,11,25.2,39.83,39.83,0,0,1,4.77,19,26.07,26.07,0,0,1,.48,10.3,8.22,8.22,0,0,1,0,7.48H0A9.28,9.28,0,0,1,2.56,1.39,2.54,2.54,0,0,1,3.67.65C4.52.4,5.39.22,6.24,0a1.5,1.5,0,0,1,1.7.75l.26.47.67,1.19L9,2.67C9.7,3.86,10.39,5,11.1,6.22a1.78,1.78,0,0,1-.28,2.61,12.21,12.21,0,0,1-.92.84L9,10.43c-.34.29-.67.58-1,.88A.49.49,0,0,0,7.9,12l.35.62c.5.86,1,1.76,1.57,2.59a19.06,19.06,0,0,0,6.7,6.07c.51.28,1,.56,1.53.82a.39.39,0,0,0,.51-.08c.36-.38.72-.77,1.07-1.17l.3-.33.4-.47c.28-.32.56-.65.87-.94a1.75,1.75,0,0,1,2.49-.27l3.53,2.07,1.31.76c.24.14.48.27.72.42A1.4,1.4,0,0,1,30,23.48a9.35,9.35,0,0,1-.72,3,2.47,2.47,0,0,1-.65.89A9,9,0,0,1,22.37,30ZM1,7.5A7.25,7.25,0,0,0,1.43,10a25.19,25.19,0,0,0,4.12,8.36,38.73,38.73,0,0,0,6.08,6.07,19.15,19.15,0,0,0,5,2.91c1,.36,1.92.72,2.89,1.06a9,9,0,0,0,2.75.58,8.09,8.09,0,0,0,5.7-2.32,1.53,1.53,0,0,0,.4-.55A8.1,8.1,0,0,0,29,23.41a.45.45,0,0,0-.24-.47l-.7-.4-1.32-.77q-1.77-1-3.54-2.07c-.63-.38-.79-.36-1.29.12-.28.28-.54.58-.8.89l-.42.48-.3.33c-.36.4-.72.81-1.09,1.2A1.38,1.38,0,0,1,17.6,23c-.53-.26-1.05-.55-1.57-.84a20.47,20.47,0,0,1-7-6.38c-.57-.87-1.09-1.78-1.6-2.66L7,12.5a1.49,1.49,0,0,1,.33-1.92c.33-.31.67-.6,1-.9l.88-.77c.29-.25.59-.5.86-.78.54-.55.55-.69.13-1.4-.71-1.18-1.4-2.36-2.1-3.55L8,3c-.23-.4-.46-.8-.68-1.2l-.26-.46A.46.46,0,0,0,6.52,1c-.91.19-1.76.37-2.57.6a1.54,1.54,0,0,0-.65.46A8.25,8.25,0,0,0,1,7.5Z"/></g></g></svg>