<svg xmlns="http://www.w3.org/2000/svg" viewBox="0 0 28.98 28.98"><defs><style>.cls-1{fill:#253d8f;}</style></defs><title>phone-s</title><g id="Layer_2" data-name="Layer 2"><g id="Layer_1-2" data-name="Layer 1"><path class="cls-1" d="M0,7A8.74,8.74,0,0,1,2.43,1.24a2,2,0,0,1,.88-.6C4.16.38,5,.21,5.92,0A1,1,0,0,1,7,.55c.31.55.62,1.11.94,1.66Q9,4.1,10.17,6c.52.87.51,1.27-.21,2-.4.41-.85.77-1.28,1.16s-1,.86-1.48,1.31A1,1,0,0,0,7,11.76C7.59,12.85,8.2,14,8.9,15a19.75,19.75,0,0,0,6.88,6.22c.51.29,1,.58,1.54.84a.88.88,0,0,0,1.1-.18c.47-.49.92-1,1.38-1.51s.8-1,1.25-1.39a1.27,1.27,0,0,1,1.89-.2l4.28,2.51c.42.25.85.48,1.28.74A1,1,0,0,1,29,23a8.49,8.49,0,0,1-.68,2.85,2,2,0,0,1-.52.72A8.61,8.61,0,0,1,21.73,29a9.06,9.06,0,0,1-2.91-.61c-1-.34-1.94-.7-2.9-1.07a19.49,19.49,0,0,1-5.1-3,39.74,39.74,0,0,1-6.16-6.14A25.58,25.58,0,0,1,.45,9.65,7.89,7.89,0,0,1,0,7Z"/></g></g></svg>