<svg xmlns="http://www.w3.org/2000/svg" xmlns:xlink="http://www.w3.org/1999/xlink" viewBox="0 0 155.1 112.29"><defs><style>.cls-1{fill:none;}.cls-2,.cls-4{fill:#1e90ff;}.cls-2{opacity:0.2;}.cls-3{fill:#1067bf;}.cls-5{fill:#35a0f9;}.cls-13,.cls-14,.cls-6{fill:#126ad2;}.cls-12,.cls-6{opacity:0.5;}.cls-7{fill:#0c56bc;}.cls-8{clip-path:url(#clip-path);}.cls-9{fill:#fedc00;}.cls-10{fill:#f1ab00;}.cls-11{fill:#dd9903;}.cls-14{opacity:0.3;}.cls-15{fill:#f9bb32;}.cls-16{fill:#f0ac01;}.cls-17{fill:#edd9c8;}.cls-18{fill:#262525;}</style><clipPath id="clip-path"><path class="cls-1" d="M66.88,21.69a46.74,46.74,0,0,1,21.17.54,12.7,12.7,0,0,0,.39-1.5,11.88,11.88,0,0,0,.18-2,11.07,11.07,0,0,0-22.14,0A11.71,11.71,0,0,0,66.7,21Q66.78,21.33,66.88,21.69Z"/></clipPath></defs><title>piggy-b</title><g id="Layer_2" data-name="Layer 2"><g id="Layer_1-2" data-name="Layer 1"><ellipse class="cls-2" cx="77.55" cy="101.14" rx="77.55" ry="11.15"/><path class="cls-3" d="M90.67,82.15l.84,15c.06,1,.23,2.37,2.2,2.37h8.19c2,0,2.14-1.4,2.2-2.37l.84-15Z"/><path class="cls-3" d="M37.9,82.15l.84,15c.06,1,.24,2.37,2.2,2.37h8.19c2,0,2.14-1.4,2.2-2.37l.84-15Z"/><path class="cls-4" d="M141.38,38.63a1.42,1.42,0,0,0-2-.43,20.14,20.14,0,0,0-5.71,5.56,8.82,8.82,0,0,0-4.09,1.33l-.72.46c-4.58-20.14-26.39-35.4-52.6-35.4a64,64,0,0,0-22.24,3.91c-17.63-11.26-31-1.44-31-1.44,0,9.14,2.73,15.43,6.48,19.77a36.93,36.93,0,0,0-6.74,21c0,.29,0,.58,0,.86l-6.26,2.23A1.91,1.91,0,0,0,15.41,59L22.08,77.7a1.9,1.9,0,0,0,2.42,1.15l6.55-2.33a47.24,47.24,0,0,0,9.58,9.17l.74,13.38c.06,1,.24,2.36,2.2,2.36h8.19c2,0,2.15-1.4,2.2-2.36l.34-6.16a65.26,65.26,0,0,0,44,0l.34,6.16c.06,1,.24,2.36,2.2,2.36H109c2,0,2.15-1.4,2.2-2.36L112,85.69c10.94-7.92,17.82-19.43,17.82-32.25a35.08,35.08,0,0,0-.32-4.72,10.71,10.71,0,0,1,1.6-1.19,8.13,8.13,0,0,1,1-.5,7.36,7.36,0,0,0-.3,1.79c-.07,2,.95,4.3,3,4.89a3.5,3.5,0,0,0,3.13-.72,4.91,4.91,0,0,0,1.77-4,5.69,5.69,0,0,0-3-4.55A17.3,17.3,0,0,1,141,40.59,1.42,1.42,0,0,0,141.38,38.63Zm-4.53,10.53a2.05,2.05,0,0,1-.72,1.62.72.72,0,0,1-.58.2,2.15,2.15,0,0,1-1-2.06,5.21,5.21,0,0,1,.58-2.09A2.84,2.84,0,0,1,136.85,49.16Z"/><path class="cls-5" d="M120.51,29.07C110.88,17.65,94.67,10.15,76.3,10.15a65.36,65.36,0,0,0-13.87,1.48C70.06,19.5,87.38,31.59,120.51,29.07Z"/><path class="cls-6" d="M47.13,10.56c-14.08-5.27-24.06,2.06-24.06,2.06a32.2,32.2,0,0,0,3.12,14.74C29.7,20.26,35.84,13.5,47.13,10.56Z"/><path class="cls-6" d="M46.86,43a3.77,3.77,0,1,1-3.77-3.77A3.77,3.77,0,0,1,46.86,43Z"/><path class="cls-7" d="M90.05,22.71a1.87,1.87,0,0,1-.57-.08,46.74,46.74,0,0,0-24-.64,2,2,0,0,1-.92-3.87,50.6,50.6,0,0,1,26,.7,2,2,0,0,1-.56,3.89Z"/><g class="cls-8"><circle class="cls-9" cx="77.55" cy="18.67" r="11.07" transform="matrix(0.98, -0.21, 0.21, 0.98, -2.2, 17.11)"/><path class="cls-10" d="M77.33,28.83h0a5.44,5.44,0,0,1-.57,0,.12.12,0,1,1,0-.24l.55,0a.11.11,0,0,1,.12.12A.12.12,0,0,1,77.33,28.83Zm.94,0a.13.13,0,0,1-.13-.12.14.14,0,0,1,.12-.13l.55,0a.12.12,0,1,1,0,.24,5,5,0,0,1-.56.06Zm-2.43-.12h0l-.56-.11a.12.12,0,0,1-.09-.15.11.11,0,0,1,.14-.09l.55.1a.13.13,0,0,1,.1.15A.12.12,0,0,1,75.84,28.69Zm3.91-.1a.13.13,0,0,1-.12-.09.13.13,0,0,1,.1-.15l.53-.14a.13.13,0,0,1,.16.09.12.12,0,0,1-.09.15l-.55.14Zm-5.37-.26h0l-.53-.2a.11.11,0,0,1-.07-.16.13.13,0,0,1,.16-.07,4.6,4.6,0,0,0,.52.19.13.13,0,0,1,.08.16A.14.14,0,0,1,74.38,28.33Zm6.81-.18a.12.12,0,0,1-.12-.07.13.13,0,0,1,.07-.16l.52-.22a.12.12,0,0,1,.16.06.12.12,0,0,1-.06.16l-.53.23ZM73,27.75l-.06,0c-.17-.08-.33-.17-.5-.27a.12.12,0,0,1,.13-.21l.48.26a.13.13,0,0,1,.06.17A.14.14,0,0,1,73,27.75Zm9.54-.24a.15.15,0,0,1-.11-.07.12.12,0,0,1,0-.16L83,27a.14.14,0,0,1,.18,0,.13.13,0,0,1,0,.17,4.94,4.94,0,0,1-.49.3ZM71.72,27l-.08,0-.45-.35a.12.12,0,0,1,0-.17.14.14,0,0,1,.18,0l.44.34a.12.12,0,0,1,0,.17A.16.16,0,0,1,71.72,27Zm12.06-.31a.11.11,0,0,1-.09,0,.12.12,0,0,1,0-.18l.42-.35a.13.13,0,0,1,.18,0,.12.12,0,0,1,0,.17l-.44.37A.11.11,0,0,1,83.78,26.66ZM70.56,26a.09.09,0,0,1-.08,0l-.4-.4a.13.13,0,0,1,0-.18.12.12,0,0,1,.17,0l.39.4a.11.11,0,0,1,0,.17A.1.1,0,0,1,70.56,26Zm14.33-.36a.12.12,0,0,1-.09,0,.11.11,0,0,1,0-.17q.18-.2.36-.42a.13.13,0,0,1,.18,0,.12.12,0,0,1,0,.17c-.12.15-.25.29-.37.43A.18.18,0,0,1,84.89,25.65Zm-15.32-.76a.12.12,0,0,1-.1-.05c-.12-.15-.23-.31-.34-.46a.13.13,0,0,1,0-.17.12.12,0,0,1,.17,0l.32.45a.11.11,0,0,1,0,.17A.11.11,0,0,1,69.57,24.89Zm16.26-.41-.07,0a.14.14,0,0,1,0-.18c.11-.15.21-.3.31-.46a.12.12,0,0,1,.17,0,.14.14,0,0,1,0,.17c-.1.16-.2.32-.31.48A.14.14,0,0,1,85.83,24.48Zm-17.08-.85a.11.11,0,0,1-.11-.06c-.09-.17-.18-.34-.26-.51a.12.12,0,0,1,.05-.16.13.13,0,0,1,.17.05l.25.5a.12.12,0,0,1,0,.17Zm17.83-.45h0a.12.12,0,0,1-.06-.16c.08-.17.16-.34.23-.51a.14.14,0,0,1,.16-.07.14.14,0,0,1,.07.17c-.08.17-.15.34-.24.51A.11.11,0,0,1,86.58,23.18Zm-18.46-.91a.12.12,0,0,1-.11-.08c-.07-.18-.13-.36-.19-.55a.12.12,0,0,1,.09-.15.12.12,0,0,1,.15.08,4.72,4.72,0,0,0,.18.53.14.14,0,0,1-.07.16Zm19-.48h0a.12.12,0,0,1-.08-.15l.15-.54a.13.13,0,0,1,.15-.09.14.14,0,0,1,.09.15c0,.19-.1.37-.16.55A.11.11,0,0,1,87.13,21.79Zm-19.42-1a.12.12,0,0,1-.12-.1c0-.18-.07-.37-.1-.56a.13.13,0,0,1,.25,0,5.07,5.07,0,0,0,.09.54.12.12,0,0,1-.09.15Zm19.76-.49h0a.13.13,0,0,1-.1-.14c0-.19.05-.37.07-.56a.13.13,0,0,1,.13-.11.14.14,0,0,1,.12.14c0,.19,0,.38-.07.56A.14.14,0,0,1,87.47,20.33Zm-20-1a.11.11,0,0,1-.12-.11c0-.18,0-.37,0-.55v0a.12.12,0,0,1,.13-.12.12.12,0,0,1,.12.12v0c0,.18,0,.36,0,.54a.11.11,0,0,1-.11.12Zm20.07-.5a.12.12,0,0,1-.12-.12v0c0-.19,0-.37,0-.56a.13.13,0,0,1,.25,0c0,.19,0,.38,0,.57v0A.12.12,0,0,1,87.59,18.83Zm-20-1h0a.11.11,0,0,1-.11-.13c0-.19,0-.38.07-.57a.12.12,0,0,1,.14-.1.12.12,0,0,1,.1.14c0,.19,0,.37-.07.55A.12.12,0,0,1,67.55,17.84Zm19.93-.54a.13.13,0,0,1-.12-.11c0-.18-.06-.37-.1-.55a.12.12,0,0,1,.24-.05c0,.19.07.38.1.57a.13.13,0,0,1-.1.14ZM67.8,16.36h0a.13.13,0,0,1-.09-.15c0-.18.1-.36.16-.55a.12.12,0,0,1,.15-.08.12.12,0,0,1,.08.16l-.15.53A.12.12,0,0,1,67.8,16.36Zm19.35-.53a.12.12,0,0,1-.12-.08l-.18-.53a.13.13,0,0,1,.07-.16.13.13,0,0,1,.16.07q.11.27.18.54a.12.12,0,0,1-.08.16Zm-18.88-.9h0a.11.11,0,0,1-.07-.16c.07-.17.15-.35.23-.52a.13.13,0,0,1,.17-.05.12.12,0,0,1,.06.16c-.08.17-.16.34-.23.51A.14.14,0,0,1,68.27,14.93Zm18.33-.49a.12.12,0,0,1-.11-.07c-.08-.17-.17-.34-.26-.5a.13.13,0,0,1,.22-.12c.09.17.18.34.26.51a.12.12,0,0,1-.06.16ZM69,13.6l-.06,0a.12.12,0,0,1,0-.17c.1-.16.2-.32.31-.48a.12.12,0,0,1,.17,0,.13.13,0,0,1,0,.17c-.1.15-.21.31-.3.47A.13.13,0,0,1,69,13.6Zm16.9-.46a.11.11,0,0,1-.1-.06l-.33-.45a.12.12,0,0,1,.19-.15c.12.15.23.31.34.46a.14.14,0,0,1,0,.18Zm-16-.76-.08,0a.13.13,0,0,1,0-.18l.37-.42a.13.13,0,0,1,.18,0,.12.12,0,0,1,0,.17l-.37.42A.14.14,0,0,1,69.82,12.38ZM84.91,12a.11.11,0,0,1-.09,0l-.39-.39a.13.13,0,0,1,0-.18.11.11,0,0,1,.17,0c.14.13.27.27.4.41a.12.12,0,0,1,0,.17A.11.11,0,0,1,84.91,12Zm-14-.66a.14.14,0,0,1-.1-.05.12.12,0,0,1,0-.17l.44-.37a.12.12,0,0,1,.17,0,.12.12,0,0,1,0,.18c-.14.11-.29.23-.42.35A.12.12,0,0,1,70.87,11.3Zm12.94-.36-.08,0c-.14-.12-.29-.23-.44-.34a.13.13,0,0,1,0-.17.12.12,0,0,1,.17,0l.46.34a.14.14,0,0,1,0,.18A.13.13,0,0,1,83.81,10.94Zm-11.75-.56a.16.16,0,0,1-.11-.05.13.13,0,0,1,0-.17l.48-.3a.12.12,0,1,1,.13.21l-.48.29A.07.07,0,0,1,72.06,10.38Zm10.51-.28-.06,0c-.16-.09-.32-.18-.49-.26a.13.13,0,0,1,0-.17.12.12,0,0,1,.17-.05l.5.27a.12.12,0,0,1-.07.23Zm-9.2-.44a.12.12,0,0,1-.11-.07.13.13,0,0,1,.06-.17l.52-.22a.12.12,0,1,1,.09.23l-.51.22Zm7.85-.22h0l-.52-.19a.12.12,0,0,1-.08-.16A.12.12,0,0,1,80.73,9l.54.2a.13.13,0,0,1,.07.16A.12.12,0,0,1,81.22,9.44Zm-6.44-.3a.13.13,0,0,1-.12-.09.12.12,0,0,1,.08-.15l.56-.15a.12.12,0,0,1,.14.1.11.11,0,0,1-.09.14l-.54.14Zm5-.14h0l-.54-.11a.12.12,0,0,1,0-.24l.56.11a.12.12,0,0,1,0,.24Zm-3.54-.17a.13.13,0,0,1-.13-.1.13.13,0,0,1,.11-.14l.57-.06a.13.13,0,0,1,.13.12.13.13,0,0,1-.11.13l-.56.05Zm2.06-.05h0l-.56,0a.12.12,0,0,1-.12-.12.12.12,0,0,1,.13-.12h0l.57,0a.13.13,0,0,1,.11.13A.12.12,0,0,1,78.31,8.78Z"/><circle class="cls-10" cx="77.55" cy="18.67" r="8.82"/><path class="cls-11" d="M69.29,19.24a8.83,8.83,0,0,1,14.78-6.52A8.83,8.83,0,1,0,71.6,25.19,8.82,8.82,0,0,1,69.29,19.24Z"/><path class="cls-11" d="M79.81,21.44a2.78,2.78,0,0,1-1.48.74v.49a.64.64,0,0,1-.19.49.68.68,0,0,1-.5.19.66.66,0,0,1-.5-.19.65.65,0,0,1-.2-.49v-.45a4.5,4.5,0,0,1-1.88-.64.74.74,0,0,1-.25-.25.78.78,0,0,1-.08-.37.76.76,0,0,1,.18-.51.49.49,0,0,1,.41-.22.67.67,0,0,1,.24,0l.3.15a3.2,3.2,0,0,0,.82.33,2.92,2.92,0,0,0,.8.1,1.49,1.49,0,0,0,.8-.17.58.58,0,0,0,.27-.52.42.42,0,0,0-.17-.34,1.08,1.08,0,0,0-.4-.21c-.16-.06-.4-.12-.71-.2A12.25,12.25,0,0,1,76.05,19a2,2,0,0,1-.82-.61,1.65,1.65,0,0,1-.35-1.1,1.94,1.94,0,0,1,.56-1.38,2.69,2.69,0,0,1,1.46-.77v-.5a.66.66,0,0,1,.2-.49.75.75,0,0,1,1,0,.64.64,0,0,1,.19.49v.47a4.17,4.17,0,0,1,1.61.62.87.87,0,0,1,.25.26.8.8,0,0,1,.07.36.78.78,0,0,1-.18.51.49.49,0,0,1-.41.22.59.59,0,0,1-.23,0l-.32-.15-.3-.16a2.4,2.4,0,0,0-1.09-.28,1.26,1.26,0,0,0-.73.2.61.61,0,0,0-.27.52.49.49,0,0,0,.31.47A4.35,4.35,0,0,0,78,18a7.8,7.8,0,0,1,1.21.36A2,2,0,0,1,80,19a1.7,1.7,0,0,1,.34,1.12A1.88,1.88,0,0,1,79.81,21.44Z"/></g><g class="cls-12"><path class="cls-13" d="M63.09,95.4A65.46,65.46,0,0,0,76.3,96.73a64,64,0,0,0,22-3.82l.34,6.16c.06,1,.24,2.36,2.2,2.36H109c2,0,2.15-1.4,2.2-2.36L112,85.69c10.94-7.92,17.82-19.43,17.82-32.25C115.65,85.66,76.32,92.6,63.09,95.4Z"/><path class="cls-13" d="M139.68,49a5.69,5.69,0,0,0-3-4.55,17.44,17.44,0,0,1,2.42-2.51c-2.29.39-4.76,2.62-7.39,7.45a4.64,4.64,0,0,0,3,4.33,3.5,3.5,0,0,0,3.13-.72A4.91,4.91,0,0,0,139.68,49Zm-3.55,1.79a.72.72,0,0,1-.58.2,2.15,2.15,0,0,1-1-2.06,5.21,5.21,0,0,1,.58-2.09,2.84,2.84,0,0,1,1.68,2.33A2.05,2.05,0,0,1,136.13,50.78Z"/></g><path class="cls-14" d="M139.42,38.2a20.14,20.14,0,0,0-5.71,5.56,8.82,8.82,0,0,0-4.09,1.33l-.72.46a37.34,37.34,0,0,0-3.59-9.47c2.13,30.6-27.35,51.1-40.76,60.14A62.94,62.94,0,0,0,98.3,92.91l.34,6.16c.06,1,.24,2.36,2.2,2.36H109c2,0,2.15-1.4,2.2-2.36L112,85.69c10.94-7.92,17.82-19.43,17.82-32.25a35.08,35.08,0,0,0-.32-4.72,10.71,10.71,0,0,1,1.6-1.19,8.13,8.13,0,0,1,1-.5,7.36,7.36,0,0,0-.3,1.79c-.07,2,.95,4.3,3,4.89a3.5,3.5,0,0,0,3.13-.72,4.91,4.91,0,0,0,1.77-4,5.69,5.69,0,0,0-3-4.55A17.3,17.3,0,0,1,141,40.59a1.42,1.42,0,1,0-1.53-2.39Zm-2.57,11a2.05,2.05,0,0,1-.72,1.62.72.72,0,0,1-.58.2,2.15,2.15,0,0,1-1-2.06,5.21,5.21,0,0,1,.58-2.09A2.84,2.84,0,0,1,136.85,49.16Z"/><path class="cls-6" d="M16.57,56.53A1.91,1.91,0,0,0,15.41,59l3.41,9.57a80.86,80.86,0,0,1,.6-13Z"/><path class="cls-7" d="M46.1,42.28a3.77,3.77,0,1,1-3.77-3.77A3.77,3.77,0,0,1,46.1,42.28Z"/><path class="cls-15" d="M137.46,101.52l.74-.18L121.5,30.42l-.74.18,1.2,5.11H109.31l-1.25-5.29-.74.18L124,101.52l.74-.18L123,93.72h12.65ZM119.12,77.36h12.65l1.75,7.42H120.86Zm6.69-25.29H113.16l-1.75-7.42h12.66Zm.18.76,1.75,7.41H115.08l-1.74-7.41ZM127.92,61l1.75,7.42H117L115.26,61Zm1.93,8.18,1.74,7.42H118.94l-1.75-7.42Zm-7.71-32.71,1.75,7.42H111.23l-1.75-7.42ZM122.79,93,121,85.54H133.7L135.44,93Z"/><path class="cls-16" d="M49.48,103c0,1.48,5.29,2.68,11.81,2.68s11.82-1.2,11.82-2.68v-2H49.48Z"/><ellipse class="cls-9" cx="61.29" cy="100.99" rx="11.82" ry="2.69"/><path class="cls-10" d="M61.29,103.36H61.1a0,0,0,1,1,0-.08h.4a0,0,0,1,1,0,.08Zm-.59,0h-.4a0,0,0,0,1,0,0,0,0,0,0,1,0,0h.4a0,0,0,1,1,0,.08Zm1.2,0a0,0,0,1,1,0-.08h.4a0,0,0,0,1,0,.08Zm-2,0h-.4a0,0,0,0,1,0-.08h.4a0,0,0,0,1,0,0A0,0,0,0,1,59.9,103.34Zm2.8,0a0,0,0,0,1,0,0,0,0,0,0,1,0,0h.4a0,0,0,0,1,0,0,0,0,0,0,1,0,0Zm-3.6,0h-.41s0,0,0,0a0,0,0,0,1,0,0h0l.4,0s0,0,0,0S59.12,103.31,59.1,103.31Zm4.4,0s0,0,0,0,0,0,0,0l.4,0s0,0,0,0,0,0,0,0l-.41,0Zm-5.2,0h0l-.4,0s0,0,0,0,0,0,0,0l.4,0a0,0,0,0,1,0,0S58.32,103.27,58.3,103.27Zm6,0s0,0,0,0a0,0,0,0,1,0,0l.4,0a0,0,0,0,1,0,0s0,0,0,0l-.4,0Zm-6.8-.06h0l-.4,0s0,0,0,0,0,0,0,0l.4,0a.07.07,0,0,1,0,.05S57.52,103.21,57.5,103.21Zm7.6,0s0,0,0,0a.07.07,0,0,1,0-.05l.4,0s0,0,0,0,0,0,0,0l-.4,0Zm-8.4-.07h0l-.4,0s0,0,0,0,0,0,0,0l.4,0a0,0,0,0,1,0,0S56.72,103.14,56.7,103.14Zm9.2,0a0,0,0,0,1,0,0,0,0,0,0,1,0,0l.4,0s0,0,0,0,0,0,0,0l-.39,0Zm-10-.09h0l-.4,0a0,0,0,0,1,0,0,.05.05,0,0,1,0,0l.4,0s0,0,0,0S55.92,103.05,55.9,103.05Zm10.8,0s0,0,0,0,0,0,0,0l.4,0a.05.05,0,0,1,0,0,.07.07,0,0,1,0,0l-.4,0Zm-11.59-.11h0l-.4-.06s0,0,0,0,0,0,0,0l.39.06a.07.07,0,0,1,0,0S55.13,102.94,55.11,102.94Zm12.38,0s0,0,0,0,0,0,0,0l.39-.06s0,0,.05,0a.05.05,0,0,1,0,0l-.4.06Zm-13.17-.13h0l-.4-.08s0,0,0,0,0,0,0,0l.39.07a.07.07,0,0,1,0,0A.05.05,0,0,1,54.32,102.81Zm14,0s0,0,0,0,0,0,0,0l.39-.08a.05.05,0,0,1,0,0,0,0,0,0,1,0,0l-.39.08Zm-14.75-.16h0l-.39-.09a0,0,0,0,1,0-.08l.39.09a.05.05,0,0,1,0,.05S53.55,102.65,53.53,102.65Zm15.54,0s0,0,0,0,0,0,0-.05l.39-.09s0,0,0,0a.05.05,0,0,1,0,0l-.39.09Zm-16.32-.19h0l-.38-.12a0,0,0,0,1,0,0,0,0,0,0,1,.05,0l.38.11s0,0,0,.05S52.77,102.46,52.75,102.46Zm17.1,0a0,0,0,0,1,0,0,0,0,0,0,1,0-.05l.38-.12a.05.05,0,0,1,0,0s0,0,0,0l-.38.11ZM52,102.22h0l-.37-.15s0,0,0,0a0,0,0,0,1,.05,0l.37.15a.05.05,0,0,1,0,0A.05.05,0,0,1,52,102.22Zm18.62,0,0,0a.07.07,0,0,1,0-.06L71,102a0,0,0,0,1,0,.07l-.38.15Zm-19.35-.32h0a2.33,2.33,0,0,1-.35-.22,0,0,0,0,1,0,0,0,0,0,0,1,.06,0l.33.21a0,0,0,0,1,0,.05S51.27,101.89,51.26,101.89Zm20.08,0,0,0s0-.05,0-.06a3.37,3.37,0,0,0,.34-.21,0,0,0,0,1,0,0s0,0,0,.06a2.53,2.53,0,0,1-.34.21S71.35,101.89,71.34,101.89Zm-20.71-.48,0,0a.64.64,0,0,1-.15-.39,0,0,0,0,1,0,0h0a0,0,0,0,1,0,0,.6.6,0,0,0,.13.34,0,0,0,0,1,0,.06Zm21.34,0h0s0,0,0-.06a.54.54,0,0,0,.13-.34v0a0,0,0,0,1,0,0h0a0,0,0,0,1,0,0v0a.69.69,0,0,1-.14.39Zm-21.35-.73h0a0,0,0,0,1,0,0,1.19,1.19,0,0,1,.3-.29,0,0,0,0,1,0,0s0,0,0,0a1.42,1.42,0,0,0-.27.28Zm21.33,0,0,0a1.18,1.18,0,0,0-.28-.26,0,0,0,0,1,0-.07,2.06,2.06,0,0,1,.3.28s0,0,0,.06Zm-20.71-.47a.05.05,0,0,1,0,0,0,0,0,0,1,0-.06l.36-.18s.05,0,.05,0a0,0,0,0,1,0,.06,2.28,2.28,0,0,0-.35.17Zm20.09,0h0A3,3,0,0,0,71,100a0,0,0,0,1,0-.06,0,0,0,0,1,0,0l.36.18a0,0,0,0,1,0,0S71.34,100.16,71.33,100.16ZM52,99.85l0,0a0,0,0,0,1,0-.06l.38-.13a0,0,0,1,1,0,.08l-.38.13Zm18.62,0h0l-.38-.13s0,0,0,0a0,0,0,0,1,0,0l.39.12a0,0,0,0,1,0,.06A.05.05,0,0,1,70.59,99.84Zm-17.86-.23a.05.05,0,0,1,0,0,.05.05,0,0,1,0,0l.39-.1s0,0,0,0,0,0,0,0l-.39.11Zm17.1,0h0l-.39-.1a.05.05,0,0,1,0,0s0,0,0,0l.39.1a.05.05,0,0,1,0,0S69.85,99.6,69.83,99.6Zm-16.32-.19s0,0,0,0a.05.05,0,0,1,0,0l.39-.08s0,0,0,0,0,0,0,0l-.39.08Zm15.54,0h0l-.39-.09s0,0,0,0,0,0,0,0l.39.09s0,0,0,0S69.07,99.41,69.05,99.41ZM54.3,99.25s0,0,0,0,0,0,0,0l.39-.06a0,0,0,0,1,0,0s0,0,0,0l-.4.07Zm14,0h0l-.4-.07s0,0,0-.05,0,0,0,0l.39.07a0,0,0,0,1,0,0S68.28,99.25,68.26,99.25Zm-13.17-.13s0,0,0,0,0,0,0,0l.4-.06a0,0,0,0,1,0,0s0,0,0,0l-.4.06Zm12.38,0h0l-.4-.06a0,0,0,0,1,0,0s0,0,0,0l.4.06s0,0,0,0A0,0,0,0,1,67.47,99.12ZM55.88,99s0,0,0,0,0,0,0,0l.4-.05a0,0,0,0,1,0,0,0,0,0,0,1,0,0l-.39.05Zm10.8,0h0L66.28,99a0,0,0,0,1,0,0s0,0,.05,0l.39.05a0,0,0,0,1,0,0A0,0,0,0,1,66.68,99Zm-10-.09s0,0,0,0,0,0,0,0l.4,0s0,0,0,0a0,0,0,0,1,0,0l-.4,0Zm9.2,0h0l-.4,0a0,0,0,0,1,0,0,.05.05,0,0,1,0,0l.4,0s0,0,0,0A0,0,0,0,1,65.88,98.92Zm-8.4-.07a0,0,0,0,1,0,0s0,0,0,0l.4,0s0,0,.05,0a0,0,0,0,1,0,0l-.4,0Zm7.6,0h0l-.4,0a.07.07,0,0,1,0,0s0,0,0,0l.4,0s0,0,0,0A0,0,0,0,1,65.08,98.85Zm-6.8-.06a0,0,0,0,1,0,0s0,0,0,0l.4,0s0,0,0,0a0,0,0,0,1,0,0l-.4,0Zm6,0h0l-.4,0s0,0,0,0,0,0,0,0h0l.4,0s0,0,0,0A0,0,0,0,1,64.28,98.79Zm-5.2,0a0,0,0,0,1,0,0s0,0,0,0l.41,0s0,0,0,0a0,0,0,0,1,0,0l-.4,0Zm4.4,0h0l-.4,0a0,0,0,1,1,0-.08h0l.41,0s0,0,0,0A0,0,0,0,1,63.48,98.75Zm-3.6,0a0,0,0,0,1,0,0,0,0,0,0,1,0,0h.4a0,0,0,0,1,0,.08Zm2.8,0h-.4a0,0,0,0,1,0-.08h.4a0,0,0,0,1,0,0A0,0,0,0,1,62.68,98.72Zm-2,0a0,0,0,1,1,0-.08h.4a0,0,0,1,1,0,.08Zm1.2,0h-.4a0,0,0,1,1,0-.08h.4a0,0,0,1,1,0,.08Z"/><ellipse class="cls-10" cx="61.29" cy="100.99" rx="9.93" ry="1.93"/><path class="cls-11" d="M51.56,101.38c.93-.88,4.93-1.54,9.73-1.54s8.81.66,9.74,1.54a.57.57,0,0,0,.2-.39c0-1.07-4.45-1.93-9.94-1.93s-9.93.86-9.93,1.93A.57.57,0,0,0,51.56,101.38Z"/><path class="cls-11" d="M58.1,102a1.57,1.57,0,0,1-.86-.38h-.56a2.79,2.79,0,0,1-.57,0c-.15,0-.22-.08-.22-.14s.07-.09.22-.13a2.79,2.79,0,0,1,.57,0h.52a1.25,1.25,0,0,1,.74-.49,1.12,1.12,0,0,1,.29-.07l.42,0a3.25,3.25,0,0,1,.59,0c.17,0,.26.06.26.11s0,0,0,.06l-.17.08a1.66,1.66,0,0,0-.39.21.29.29,0,0,0-.12.21q0,.13.21.21a1.81,1.81,0,0,0,.6.07,1.41,1.41,0,0,0,.39,0,.72.72,0,0,0,.25-.11l.23-.18a2,2,0,0,1,1.13-.54,7.27,7.27,0,0,1,1.28-.09,7.4,7.4,0,0,1,1.59.15,1.65,1.65,0,0,1,.89.38h.58a2.9,2.9,0,0,1,.56,0c.15,0,.23.08.23.13s-.08.1-.22.13a2.26,2.26,0,0,1-.57.06h-.54a1.59,1.59,0,0,1-.72.42,1.42,1.42,0,0,1-.31.06,2.36,2.36,0,0,1-.4,0,3.54,3.54,0,0,1-.6,0c-.17,0-.25-.07-.25-.11s0,0,0-.06l.17-.09.19-.08a1,1,0,0,0,.23-.13.22.22,0,0,0,.08-.15c0-.08-.07-.14-.22-.19a1.93,1.93,0,0,0-.6-.08,1.27,1.27,0,0,0-.55.09,1.2,1.2,0,0,0-.37.26,2.4,2.4,0,0,1-.41.32,2.45,2.45,0,0,1-.7.21,7.31,7.31,0,0,1-1.29.09A7.12,7.12,0,0,1,58.1,102Z"/><path class="cls-16" d="M51.8,100.79c0,1.48,5.29,2.69,11.81,2.69s11.82-1.21,11.82-2.69v-2H51.8Z"/><path class="cls-9" d="M75.43,98.81c0,1.49-5.29,2.69-11.82,2.69S51.8,100.3,51.8,98.81s5.29-2.68,11.81-2.68S75.43,97.33,75.43,98.81Z"/><path class="cls-10" d="M63.61,101.19h-.19s0,0,0,0a0,0,0,0,1,0,0h.4a0,0,0,0,1,0,0,0,0,0,0,1,0,0Zm-.59,0h-.41s0,0,0-.05a0,0,0,0,1,0,0H63a0,0,0,0,1,0,.08Zm1.2,0a0,0,0,0,1,0-.08h.4a0,0,0,0,1,0,0,0,0,0,0,1,0,0Zm-2,0h0l-.4,0a0,0,0,0,1,0,0s0,0,0,0l.4,0a0,0,0,0,1,0,0S62.24,101.17,62.21,101.17Zm2.81,0a0,0,0,0,1,0,0s0,0,0,0h.4a0,0,0,1,1,0,.08l-.4,0Zm-3.61,0h0l-.4,0a0,0,0,0,1,0-.05s0,0,.05,0l.4,0s0,0,0,0A0,0,0,0,1,61.41,101.14Zm4.41,0a0,0,0,0,1,0-.08l.4,0s0,0,0,0,0,.05,0,.05l-.4,0Zm-5.21,0h0l-.4,0a0,0,0,0,1,0,0,0,0,0,0,1,0,0l.4,0a0,0,0,0,1,0,0S60.63,101.09,60.61,101.09Zm6,0s0,0,0,0a0,0,0,0,1,0,0l.4,0s0,0,0,0,0,0,0,0l-.4,0Zm-6.81,0h0l-.4,0a0,0,0,0,1,0,0s0,0,.05,0l.4,0s0,0,0,0A0,0,0,0,1,59.81,101Zm7.61,0a0,0,0,0,1,0-.08l.4,0h0a0,0,0,0,1,0,0,0,0,0,0,1,0,0l-.4,0ZM59,101h0l-.4,0s0,0,0,0a0,0,0,0,1,0,0l.4,0a.07.07,0,0,1,0,.05S59,101,59,101Zm9.2,0s0,0,0,0,0,0,0-.05l.39,0s0,0,0,0a0,0,0,0,1,0,0l-.4,0Zm-10-.09h0l-.39-.05a0,0,0,0,1,0,0s0,0,0,0l.39.05a.05.05,0,0,1,0,0S58.24,100.87,58.22,100.87Zm10.8,0s0,0,0,0,0,0,0,0l.4-.05s0,0,0,0a0,0,0,0,1,0,0l-.4.05Zm-11.6-.1h0l-.4-.06s0,0,0,0,0,0,0,0l.39.06s0,0,0,0A0,0,0,0,1,57.42,100.77Zm12.39,0s0,0,0,0a.05.05,0,0,1,0,0l.4-.06a.05.05,0,0,1,0,0,0,0,0,0,1,0,0l-.39.06Zm-13.18-.13h0l-.4-.07a.05.05,0,0,1,0,0s0,0,0,0l.39.07s0,0,0,0S56.65,100.63,56.63,100.63Zm14,0s0,0,0,0a.05.05,0,0,1,0,0l.4-.07s0,0,0,0,0,0,0,0l-.39.07Zm-14.75-.16h0l-.39-.09a0,0,0,0,1,0,0s0,0,0,0l.39.1s0,0,0,0S55.87,100.47,55.85,100.47Zm15.54,0s0,0,0,0,0,0,0,0l.39-.09a0,0,0,0,1,0,.08l-.39.09Zm-16.32-.19h0l-.39-.12s0,0,0,0,0,0,.05,0l.38.11a.05.05,0,0,1,0,0S55.09,100.28,55.07,100.28Zm17.09,0a0,0,0,0,1,0,0s0,0,0,0l.39-.11a0,0,0,0,1,0,0s0,0,0,0l-.38.12ZM54.31,100h0l-.37-.15a0,0,0,0,1,0-.06,0,0,0,0,1,.05,0l.37.15a0,0,0,0,1,0,.05A0,0,0,0,1,54.31,100Zm18.62,0a.05.05,0,0,1,0,0s0-.05,0-.05l.37-.15a0,0,0,0,1,.06,0,0,0,0,0,1,0,0l-.38.15Zm-19.36-.31h0a3.37,3.37,0,0,1-.34-.21,0,0,0,0,1,0-.06s0,0,.06,0a3.16,3.16,0,0,0,.33.21s0,0,0,0S53.59,99.72,53.57,99.72Zm20.09,0s0,0,0,0,0,0,0,0a1.72,1.72,0,0,0,.33-.22s0,0,.06,0,0,0,0,.06a2.51,2.51,0,0,1-.34.22ZM53,99.23s0,0,0,0a.64.64,0,0,1-.15-.39,0,0,0,0,1,0,0h0a0,0,0,0,1,0,0,.52.52,0,0,0,.13.34s0,0,0,.06Zm21.33,0h0s0,0,0-.06a.58.58,0,0,0,.13-.34h0s0,0,0,0h0s0,0,0,0v0a.67.67,0,0,1-.14.39Zm-21.34-.73h0a0,0,0,0,1,0-.06,1.59,1.59,0,0,1,.29-.29s.05,0,.06,0a0,0,0,0,1,0,.06,1.37,1.37,0,0,0-.27.27Zm21.33,0h0a1.45,1.45,0,0,0-.28-.27s0,0,0-.06a.06.06,0,0,1,.06,0,1.59,1.59,0,0,1,.29.29s0,0,0,0ZM53.56,98a.05.05,0,0,1,0,0,0,0,0,0,1,0-.06,3,3,0,0,1,.36-.17,0,0,0,0,1,0,.07l-.35.17Zm20.08,0h0a2.28,2.28,0,0,0-.35-.17,0,0,0,0,1,0,0s0,0,0,0l.36.18a0,0,0,0,1,0,0S73.66,98,73.64,98Zm-19.35-.32,0,0s0-.05,0-.05l.38-.13a0,0,0,0,1,.06,0s0,.05,0,.05l-.38.13Zm18.62,0h0l-.38-.13s0,0,0,0a0,0,0,0,1,.05,0,2.8,2.8,0,0,1,.38.13,0,0,0,0,1,0,0A.05.05,0,0,1,72.91,97.66Zm-17.86-.23s0,0,0,0a.05.05,0,0,1,0-.05l.39-.1s0,0,0,0a.05.05,0,0,1,0,0l-.39.1Zm17.1,0h0l-.38-.1s0,0,0,0,0,0,0,0l.39.1a0,0,0,0,1,0,0A0,0,0,0,1,72.15,97.42Zm-16.32-.18a0,0,0,0,1,0,0s0,0,0,0l.39-.09s0,0,0,0,0,.05,0,.05l-.39.08Zm15.54,0h0L71,97.15s0,0,0-.05,0,0,0,0l.4.08s0,0,0,0S71.39,97.23,71.37,97.23Zm-14.76-.15a0,0,0,0,1,0,0s0,0,0,0l.39-.07a0,0,0,0,1,0,0A.05.05,0,0,1,57,97l-.4.07Zm14,0h0L70.18,97s0,0,0,0a0,0,0,0,1,0,0l.4.07s0,0,0,.05S70.6,97.07,70.58,97.07Zm-13.17-.13s0,0,0,0,0,0,0,0l.4,0s0,0,0,0a.05.05,0,0,1,0,0l-.4,0Zm12.38,0h0l-.39-.06a0,0,0,0,1,0,0,.07.07,0,0,1,.05,0l.4.06s0,0,0,0S69.81,96.94,69.79,96.94ZM58.2,96.83s0,0,0,0a.05.05,0,0,1,0,0l.4,0s0,0,0,0a.07.07,0,0,1,0,.05l-.4,0Zm10.8,0h0l-.4,0s0,0,0,0a0,0,0,0,1,0,0l.4,0a0,0,0,0,1,0,0S69,96.83,69,96.83Zm-10-.09s0,0,0,0,0,0,0,0l.4,0s0,0,0,0,0,0,0,0l-.4,0Zm9.2,0h0l-.4,0a0,0,0,1,1,0-.08l.4,0a0,0,0,0,1,0,.08Zm-8.41-.07s0,0,0,0a0,0,0,0,1,0,0l.4,0a0,0,0,0,1,0,0s0,0,0,0l-.4,0Zm7.61,0h0l-.4,0a0,0,0,0,1,0,0s0,0,0,0l.4,0a0,0,0,0,1,0,0A0,0,0,0,1,67.4,96.67Zm-6.81-.06s0,0,0,0a0,0,0,0,1,0,0l.4,0a0,0,0,0,1,0,0s0,0,0,0l-.4,0Zm6,0h0l-.4,0a0,0,0,0,1,0,0,0,0,0,0,1,0,0h0l.4,0a0,0,0,0,1,0,0A0,0,0,0,1,66.6,96.61Zm-5.21,0s0,0,0,0a0,0,0,0,1,0,0l.4,0h0s0,0,0,0a0,0,0,0,1,0,0l-.4,0Zm4.41,0h0l-.4,0a0,0,0,0,1,0-.08h0l.4,0a0,0,0,0,1,0,0A0,0,0,0,1,65.8,96.57Zm-3.6,0a0,0,0,0,1,0,0s0,0,0,0h.41a0,0,0,1,1,0,.08Zm2.8,0h-.4a0,0,0,1,1,0-.08H65a0,0,0,0,1,0,.08Zm-2,0s0,0,0,0a0,0,0,0,1,0,0h.4a0,0,0,0,1,0,.08Zm1.2,0h-.4a0,0,0,0,1,0-.08h.4a0,0,0,0,1,0,0A0,0,0,0,1,64.2,96.52Z"/><path class="cls-10" d="M73.55,98.81c0,1.07-4.45,1.94-9.94,1.94s-9.93-.87-9.93-1.94,4.45-1.93,9.93-1.93S73.55,97.75,73.55,98.81Z"/><path class="cls-11" d="M53.88,99.2c.93-.88,4.93-1.54,9.73-1.54s8.81.66,9.73,1.54a.51.51,0,0,0,.21-.39c0-1.06-4.45-1.93-9.94-1.93s-9.93.87-9.93,1.93A.53.53,0,0,0,53.88,99.2Z"/><path class="cls-11" d="M60.42,99.84a1.64,1.64,0,0,1-.86-.39H59a2.79,2.79,0,0,1-.57,0c-.15,0-.22-.08-.22-.13s.07-.1.22-.14a2.79,2.79,0,0,1,.57,0h.51a1.37,1.37,0,0,1,.75-.49l.28-.07.43,0a3.33,3.33,0,0,1,.59,0c.17,0,.25.07.25.11a.07.07,0,0,1,0,.06l-.17.08a1.61,1.61,0,0,0-.39.21.29.29,0,0,0-.12.21c0,.1.07.17.2.21a1.84,1.84,0,0,0,.6.08,1.45,1.45,0,0,0,.4-.05.91.91,0,0,0,.24-.1l.23-.19a2.85,2.85,0,0,1,.44-.32,2.63,2.63,0,0,1,.7-.22,7.19,7.19,0,0,1,1.28-.09,7.4,7.4,0,0,1,1.59.15,1.73,1.73,0,0,1,.89.38h.57a2.26,2.26,0,0,1,.57.06c.15,0,.22.07.22.13s-.07.09-.21.13a3,3,0,0,1-.58,0H67.7a1.58,1.58,0,0,1-.73.42l-.3.07h-.4a3.54,3.54,0,0,1-.6,0c-.17,0-.25-.07-.25-.11a.07.07,0,0,1,0-.06l.18-.08.18-.09a.7.7,0,0,0,.23-.13.2.2,0,0,0,.09-.15c0-.08-.08-.14-.22-.19a2,2,0,0,0-.6-.07,1.3,1.3,0,0,0-.55.08,1.09,1.09,0,0,0-.37.26,2,2,0,0,1-.41.32,2.56,2.56,0,0,1-.7.21A7.31,7.31,0,0,1,62,100,7.84,7.84,0,0,1,60.42,99.84Z"/><path class="cls-16" d="M49.48,98.61c0,1.49,5.29,2.69,11.81,2.69s11.82-1.2,11.82-2.69v-2H49.48Z"/><path class="cls-9" d="M73.11,96.64c0,1.48-5.29,2.68-11.82,2.68s-11.81-1.2-11.81-2.68S54.77,94,61.29,94,73.11,95.15,73.11,96.64Z"/><path class="cls-10" d="M61.29,99H61.1a0,0,0,0,1,0,0,0,0,0,0,1,0,0h.4a0,0,0,0,1,0,0,0,0,0,0,1,0,0Zm-.59,0h-.4a0,0,0,1,1,0-.08h.4a0,0,0,0,1,0,0A0,0,0,0,1,60.7,99Zm1.2,0a0,0,0,0,1,0,0,0,0,0,0,1,0,0h.4a0,0,0,0,1,0,0,0,0,0,0,1,0,0Zm-2,0h-.4s0,0,0,0,0,0,0,0l.4,0a0,0,0,0,1,0,.08Zm2.8,0a0,0,0,0,1,0-.08l.4,0h0a0,0,0,0,1,0,0s0,0,0,0l-.4,0Zm-3.6,0h0l-.4,0s0,0,0,0a0,0,0,0,1,0,0h0l.4,0a0,0,0,0,1,0,.08Zm4.4,0a0,0,0,0,1,0-.08l.4,0s0,0,0,0,0,0,0,0l-.41,0Zm-5.2,0h0l-.4,0s0,0,0,0a0,0,0,0,1,0,0l.4,0a0,0,0,0,1,0,0S58.32,98.92,58.3,98.92Zm6,0s0,0,0,0a0,0,0,0,1,0,0l.4,0s0,0,0,0,0,0,0,0l-.4,0Zm-6.8-.06h0l-.4,0s0,0,0,0a0,0,0,0,1,0,0l.4,0a0,0,0,0,1,0,0S57.52,98.86,57.5,98.86Zm7.6,0s0,0,0,0a0,0,0,0,1,0,0l.4,0a0,0,0,0,1,0,0s0,0,0,0l-.4,0Zm-8.4-.07h0l-.4-.05s0,0,0,0a0,0,0,0,1,0,0l.4,0a0,0,0,0,1,0,.08Zm9.2,0a0,0,0,0,1,0-.08l.4,0a0,0,0,0,1,0,0,0,0,0,0,1,0,0l-.39.05Zm-10-.09h0l-.4-.06a0,0,0,0,1,0,0,.07.07,0,0,1,0,0l.4.06s0,0,0,0A0,0,0,0,1,55.9,98.7Zm10.8,0a0,0,0,0,1,0,0,.05.05,0,0,1,0,0l.4,0a.07.07,0,0,1,0,0,0,0,0,0,1,0,0l-.4,0Zm-11.59-.11h0l-.4-.07s0,0,0,0a0,0,0,0,1,0,0l.39.07a0,0,0,0,1,0,0S55.13,98.59,55.11,98.59Zm12.38,0s0,0,0,0a0,0,0,0,1,0,0l.39-.07s0,0,.05,0,0,0,0,0l-.4.07Zm-13.17-.13h0l-.4-.07a0,0,0,0,1,0-.08l.39.08a0,0,0,0,1,0,0S54.33,98.46,54.32,98.46Zm14,0s0,0,0,0a.05.05,0,0,1,0,0l.39-.07s0,0,0,0a.05.05,0,0,1,0,0l-.39.07ZM53.53,98.3h0l-.39-.1s0,0,0,0,0,0,0,0l.39.09s0,0,0,0A0,0,0,0,1,53.53,98.3Zm15.54,0s0,0,0,0,0,0,0,0l.39-.1a.05.05,0,0,1,0,0s0,0,0,0l-.39.09ZM52.75,98.1h0L52.36,98s0,0,0,0,0,0,.05,0l.38.11s0,0,0,0S52.77,98.1,52.75,98.1Zm17.1,0s0,0,0,0,0,0,0,0l.38-.11a0,0,0,0,1,0,0,0,0,0,0,1,0,0l-.38.12ZM52,97.86h0l-.37-.15a0,0,0,1,1,0-.07l.37.14a.05.05,0,0,1,0,0A.05.05,0,0,1,52,97.86Zm18.62,0s0,0,0,0a.05.05,0,0,1,0,0l.37-.15a0,0,0,0,1,0,0,0,0,0,0,1,0,.06,3.35,3.35,0,0,1-.38.14Zm-19.35-.32s0,0,0,0a3.59,3.59,0,0,1-.35-.21,0,0,0,1,1,0-.07l.33.21a0,0,0,0,1,0,.06Zm20.08,0s0,0,0,0,0,0,0-.05a3.37,3.37,0,0,0,.34-.21s0,0,0,0a0,0,0,0,1,0,.06,2.51,2.51,0,0,1-.34.22Zm-20.71-.48,0,0a.59.59,0,0,1-.15-.38,0,0,0,0,1,0-.05h0a0,0,0,0,1,0,0,.63.63,0,0,0,.13.35,0,0,0,0,1,0,.05ZM72,97h0s0,0,0,0a.56.56,0,0,0,.13-.34v0a0,0,0,0,1,0,0h0a0,0,0,0,1,0,0v0A.64.64,0,0,1,72,97S72,97,72,97Zm-21.35-.72h0a.06.06,0,0,1,0-.06,1.67,1.67,0,0,1,.3-.29,0,0,0,0,1,0,0,0,0,0,0,1,0,.06,1.72,1.72,0,0,0-.27.27Zm21.33,0h0a1.45,1.45,0,0,0-.28-.27,0,0,0,0,1,0-.05s0,0,.06,0a1.63,1.63,0,0,1,.3.28,0,0,0,0,1,0,.06Zm-20.71-.47a.05.05,0,0,1,0,0,0,0,0,0,1,0,0l.36-.18s.05,0,.05,0a0,0,0,0,1,0,0l-.35.18Zm20.09,0s0,0,0,0L71,95.63a0,0,0,1,1,0-.07,3,3,0,0,1,.36.17,0,0,0,0,1,0,.06ZM52,95.5s0,0,0,0,0,0,0,0l.38-.13a0,0,0,0,1,0,0,.06.06,0,0,1,0,.06l-.38.12Zm18.62,0h0l-.38-.12a.05.05,0,0,1,0,0s0,0,0,0l.39.13a0,0,0,0,1,0,0S70.61,95.49,70.59,95.49Zm-17.86-.24a.05.05,0,0,1,0,0,.05.05,0,0,1,0,0l.39-.1a.05.05,0,0,1,0,0s0,0,0,.05l-.39.1Zm17.1,0h0l-.39-.1s0,0,0,0a.05.05,0,0,1,0,0l.39.11s0,0,0,0S69.85,95.25,69.83,95.25Zm-16.32-.19s0,0,0,0,0,0,0,0l.39-.09s0,0,0,0,0,0,0,0l-.39.09Zm15.54,0h0L68.65,95s0,0,0,0a0,0,0,0,1,0,0l.39.08a.05.05,0,0,1,0,0S69.07,95.05,69.05,95.05ZM54.3,94.9a0,0,0,0,1,0,0,0,0,0,0,1,0-.05l.39-.07s0,0,0,0,0,0,0,0l-.4.07Zm14,0h0l-.4-.07s0,0,0,0a0,0,0,0,1,0,0l.39.07s0,0,0,0S68.28,94.89,68.26,94.89Zm-13.17-.12a0,0,0,0,1,0,0s0,0,0,0l.4-.06s0,0,0,0a0,0,0,0,1,0,0l-.4.06Zm12.38,0h0l-.4-.06s0,0,0,0a0,0,0,0,1,0,0l.4.06s0,0,0,0S67.49,94.76,67.47,94.76Zm-11.59-.1a0,0,0,0,1,0,0,0,0,0,0,1,0,0l.4,0s0,0,0,0,0,0,0,0l-.39,0Zm10.8,0h0l-.39,0a.05.05,0,0,1,0,0,0,0,0,0,1,.05,0l.39,0a.05.05,0,0,1,0,.05S66.7,94.65,66.68,94.65Zm-10-.08a0,0,0,0,1,0,0s0,0,0,0l.4,0s0,0,0,0a0,0,0,0,1,0,0l-.4,0Zm9.2,0h0l-.4,0a0,0,0,0,1,0,0,.07.07,0,0,1,0,0l.4,0a.05.05,0,0,1,0,0S65.9,94.56,65.88,94.56Zm-8.4-.07s0,0,0,0a0,0,0,0,1,0,0l.4,0a.07.07,0,0,1,.05,0,0,0,0,0,1,0,0l-.4,0Zm7.6,0h0l-.4,0a0,0,0,0,1,0,0,.07.07,0,0,1,0,0l.4,0s0,0,0,0A0,0,0,0,1,65.08,94.49Zm-6.8,0a0,0,0,0,1,0,0s0,0,0,0l.4,0s0,0,0,0a0,0,0,0,1,0,0l-.4,0Zm6,0h0l-.4,0a0,0,0,0,1,0-.08h0l.4,0a0,0,0,0,1,0,.05S64.31,94.43,64.28,94.43Zm-5.2,0s0,0,0,0,0,0,0,0h.41s0,0,0,0a0,0,0,0,1,0,0Zm4.4,0h0l-.4,0a0,0,0,0,1,0,0s0,0,0,0l.41,0s0,0,0,0A0,0,0,0,1,63.48,94.39Zm-3.6,0a0,0,0,1,1,0-.08h.4a0,0,0,0,1,0,.08Zm2.8,0h-.4a0,0,0,0,1,0-.08h.4a0,0,0,0,1,0,0A0,0,0,0,1,62.68,94.36Zm-2,0a0,0,0,0,1,0,0,0,0,0,0,1,0,0h.4a0,0,0,0,1,0,0,0,0,0,0,1,0,0Zm1.2,0h-.4a0,0,0,0,1,0,0,0,0,0,0,1,0,0h.4a0,0,0,0,1,0,0A0,0,0,0,1,61.88,94.35Z"/><path class="cls-10" d="M71.23,96.64c0,1.06-4.45,1.93-9.94,1.93s-9.93-.87-9.93-1.93,4.45-1.94,9.93-1.94S71.23,95.57,71.23,96.64Z"/><path class="cls-11" d="M51.56,97c.93-.88,4.93-1.54,9.73-1.54S70.1,96.14,71,97a.53.53,0,0,0,.2-.39c0-1.06-4.45-1.93-9.94-1.93s-9.93.87-9.93,1.93A.53.53,0,0,0,51.56,97Z"/><path class="cls-11" d="M58.1,97.66a1.64,1.64,0,0,1-.86-.39h-.56a2.79,2.79,0,0,1-.57,0c-.15,0-.22-.08-.22-.13s.07-.1.22-.13a2.22,2.22,0,0,1,.57,0h.52a1.26,1.26,0,0,1,.74-.5,1.14,1.14,0,0,1,.29-.06,2.43,2.43,0,0,1,.42,0,3.34,3.34,0,0,1,.59,0c.17,0,.26.07.26.11s0,0,0,.06l-.17.08a1.62,1.62,0,0,0-.39.22.26.26,0,0,0-.12.21q0,.14.21.21a2.12,2.12,0,0,0,.6.07,1.37,1.37,0,0,0,.39,0,.72.72,0,0,0,.25-.1l.23-.19a2.59,2.59,0,0,1,.44-.32,2.47,2.47,0,0,1,.69-.21,7.12,7.12,0,0,1,1.28-.1,7.4,7.4,0,0,1,1.59.15,1.72,1.72,0,0,1,.89.39h.58a2.28,2.28,0,0,1,.56,0c.15,0,.23.08.23.13s-.08.1-.22.13a2.94,2.94,0,0,1-.57.05h-.54a1.59,1.59,0,0,1-.72.42l-.31.07-.4,0a3.45,3.45,0,0,1-.6,0c-.17,0-.25-.07-.25-.11s0,0,0-.06a.68.68,0,0,1,.17-.08l.19-.08a1,1,0,0,0,.23-.14.21.21,0,0,0,.08-.15c0-.08-.07-.14-.22-.19a2,2,0,0,0-.6-.07,1.48,1.48,0,0,0-.55.08,1.39,1.39,0,0,0-.37.26,2,2,0,0,1-.41.32,2.45,2.45,0,0,1-.7.21,7.31,7.31,0,0,1-1.29.09A7.18,7.18,0,0,1,58.1,97.66Z"/><path class="cls-16" d="M46.94,96.43c0,1.49,5.29,2.69,11.82,2.69s11.81-1.2,11.81-2.69v-2H46.94Z"/><ellipse class="cls-9" cx="58.76" cy="94.46" rx="11.82" ry="2.69"/><path class="cls-10" d="M58.76,96.83h-.2a0,0,0,0,1,0-.08H59a0,0,0,0,1,0,.08Zm-.6,0h-.4a0,0,0,0,1,0-.08h.4a0,0,0,0,1,0,0A0,0,0,0,1,58.16,96.83Zm1.2,0a0,0,0,0,1,0,0,0,0,0,0,1,0,0h.4a0,0,0,0,1,0,0s0,0,0,0Zm-2,0H57a0,0,0,0,1,0,0,0,0,0,0,1,0,0h.4a0,0,0,1,1,0,.08Zm2.8,0s0,0,0,0a0,0,0,0,1,0,0h.41a0,0,0,0,1,0,0,0,0,0,0,1,0,0h-.41Zm-3.6,0h0l-.4,0a0,0,0,0,1,0,0,0,0,0,0,1,0,0h0l.4,0a0,0,0,1,1,0,.08Zm4.41,0a0,0,0,0,1,0,0s0,0,0,0l.4,0h0a0,0,0,1,1,0,.08l-.4,0Zm-5.21,0h0l-.4,0a0,0,0,0,1,0,0,0,0,0,0,1,0,0l.4,0a0,0,0,0,1,0,.08Zm6,0a0,0,0,0,1,0,0s0,0,0,0l.4,0a0,0,0,0,1,.05,0,0,0,0,0,1,0,0l-.4,0ZM55,96.68h0l-.4,0s0,0,0-.05,0,0,0,0l.4,0a0,0,0,0,1,0,0A0,0,0,0,1,55,96.68Zm7.61,0a0,0,0,0,1,0,0s0,0,0,0l.4,0s0,0,0,0a.07.07,0,0,1,0,.05l-.4,0Zm-8.41-.07h0l-.4,0a.07.07,0,0,1,0,0s0,0,.05,0l.39,0a0,0,0,0,1,0,0A0,0,0,0,1,54.16,96.61Zm9.2,0s0,0,0,0a0,0,0,0,1,0,0l.4,0a0,0,0,0,1,0,0s0,0,0,0l-.4,0Zm-10-.09h0l-.4,0s0,0,0,0,0,0,0,0l.4,0s0,0,0,0A0,0,0,0,1,53.36,96.52Zm10.8,0a0,0,0,0,1,0,0,0,0,0,0,1,0,0l.39-.06s0,0,0,0a0,0,0,0,1,0,0l-.39.06Zm-11.59-.11h0l-.39-.06a.07.07,0,0,1,0,0s0,0,0,0l.4.06s0,0,0,0S52.59,96.41,52.57,96.41Zm12.39,0a0,0,0,0,1,0,0s0,0,0,0l.39-.07a0,0,0,0,1,0,0s0,0,0,0l-.4.07Zm-13.18-.13h0l-.39-.08a0,0,0,0,1,0,0s0,0,0,0l.4.08s0,0,0,0S51.8,96.28,51.78,96.28Zm14,0a0,0,0,0,1,0,0s0,0,0,0l.39-.08a0,0,0,1,1,0,.08l-.4.08ZM51,96.12h0L50.59,96a.05.05,0,0,1,0,0s0,0,0,0L51,96a0,0,0,0,1,0,0S51,96.12,51,96.12Zm15.54,0s0,0,0,0,0,0,0,0l.39-.09s0,0,0,0a0,0,0,0,1,0,0l-.39.1Zm-16.31-.19h0l-.38-.11a0,0,0,0,1,0-.08l.39.12s0,0,0,.05Zm17.09,0s0,0,0,0a.05.05,0,0,1,0,0l.38-.11a0,0,0,0,1,0,0,0,0,0,0,1,0,0l-.39.11Zm-17.86-.24h0l-.38-.15a0,0,0,1,1,0-.07l.37.14a0,0,0,0,1,0,.06A.05.05,0,0,1,49.45,95.68Zm18.62,0a0,0,0,0,1,0,0,0,0,0,0,1,0-.05l.37-.15a0,0,0,0,1,0,0,0,0,0,0,1,0,.06l-.37.15Zm-19.35-.32h0a2.51,2.51,0,0,1-.34-.22,0,0,0,0,1,0-.06s0,0,0,0a3.37,3.37,0,0,0,.34.21s0,0,0,0Zm20.09,0s0,0,0,0,0,0,0,0a3.16,3.16,0,0,0,.33-.21,0,0,0,0,1,.06,0,0,0,0,0,1,0,0,2.33,2.33,0,0,1-.35.22Zm-20.72-.49h0a.79.79,0,0,1-.15-.39,0,0,0,0,1,0,0h0s0,0,0,0a.72.72,0,0,0,.13.34,0,0,0,0,1,0,0Zm21.34,0h0s0,0,0-.06a.59.59,0,0,0,.12-.34v0a0,0,0,0,1,0,0h0a0,0,0,0,1,0,0v0a.69.69,0,0,1-.14.39Zm-21.35-.72s0,0,0,0,0,0,0,0a1.33,1.33,0,0,1,.29-.29s0,0,.06,0,0,0,0,.06a1.45,1.45,0,0,0-.28.27Zm21.34,0a.05.05,0,0,1,0,0,1.21,1.21,0,0,0-.28-.27,0,0,0,0,1,0,0s0,0,.05,0a1.37,1.37,0,0,1,.3.28,0,0,0,0,1,0,.06ZM48.7,93.64s0,0,0,0,0,0,0-.05l.36-.18a0,0,0,0,1,.06,0s0,0,0,0l-.36.18Zm20.09,0h0l-.36-.17a0,0,0,1,1,0-.07l.37.17s0,0,0,.06S68.8,93.63,68.79,93.63Zm-19.36-.31a.05.05,0,0,1,0,0,.05.05,0,0,1,0-.05l.38-.13s0,0,.05,0,0,0,0,0a3.19,3.19,0,0,0-.37.13Zm18.62,0h0l-.38-.13a0,0,0,0,1,0-.05,0,0,0,0,1,0,0l.38.13a0,0,0,0,1,0,0S68.07,93.31,68.05,93.31ZM50.2,93.07s0,0,0,0,0,0,0,0l.38-.11s0,0,0,0a0,0,0,0,1,0,0l-.38.1Zm17.09,0h0L66.89,93s0,0,0,0,0,0,0,0l.39.1a0,0,0,0,1,0,.05S67.31,93.07,67.29,93.07ZM51,92.88a.05.05,0,0,1,0,0,.05.05,0,0,1,0,0l.4-.08s0,0,0,0a.05.05,0,0,1,0,0l-.39.08Zm15.54,0h0l-.39-.08s0,0,0-.05a.05.05,0,0,1,0,0l.39.08s0,0,0,0S66.53,92.87,66.51,92.87Zm-14.75-.15s0,0,0,0a.05.05,0,0,1,0,0l.4-.07s0,0,0,0a0,0,0,0,1,0,.05l-.39.07Zm14,0h0l-.39-.06a.05.05,0,0,1,0-.05s0,0,0,0l.39.07a0,0,0,0,1,0,0S65.75,92.72,65.73,92.72Zm-13.18-.13a0,0,0,0,1,0,0s0,0,0,0l.4-.06a.05.05,0,0,1,.05,0,0,0,0,0,1,0,0l-.39.06Zm12.39,0h0l-.4,0a.05.05,0,0,1,0,0s0,0,0,0l.4,0a.07.07,0,0,1,0,0S65,92.58,64.94,92.58Zm-11.6-.1s0,0,0,0a0,0,0,0,1,0,0l.4-.05a0,0,0,0,1,0,0s0,0,0,0l-.4,0Zm10.8,0h0l-.4,0a0,0,0,1,1,0-.08l.4.05s0,0,0,0A0,0,0,0,1,64.14,92.48Zm-10-.09a0,0,0,0,1,0,0,0,0,0,0,1,0,0l.4,0a0,0,0,0,1,0,.08l-.4,0Zm9.2,0h0l-.4,0s0,0,0,0,0,0,0,0l.4,0a0,0,0,0,1,0,0S63.37,92.39,63.34,92.39Zm-8.4-.08s0,0,0,0a.05.05,0,0,1,0,0l.4,0a0,0,0,1,1,0,.08l-.4,0Zm7.61,0h0l-.4,0s0,0,0,0a0,0,0,0,1,0,0l.4,0a0,0,0,0,1,0,0S62.57,92.31,62.55,92.31Zm-6.81,0a0,0,0,0,1,0,0,0,0,0,0,1,0,0l.4,0a0,0,0,1,1,0,.08l-.4,0Zm6,0h0l-.4,0s0,0,0,0a0,0,0,0,1,0,0l.4,0a0,0,0,1,1,0,.08Zm-5.21-.05s0,0,0,0,0,0,0-.05h.4a0,0,0,0,1,0,0,0,0,0,0,1,0,0Zm4.41,0h-.41s0,0,0,0a0,0,0,0,1,0,0H61a0,0,0,0,1,0,0A0,0,0,0,1,61,92.21Zm-3.61,0a0,0,0,0,1,0,0s0,0,0-.05h.4s0,0,0,0a0,0,0,0,1,0,.05Zm2.81,0h-.41a0,0,0,0,1,0,0,0,0,0,0,1,0,0h.41a0,0,0,0,1,0,.05S60.17,92.18,60.15,92.18Zm-2,0a0,0,0,1,1,0-.08h.4a0,0,0,0,1,0,0,0,0,0,0,1,0,0Zm1.2,0h-.4a0,0,0,0,1,0,0,0,0,0,0,1,0,0h.4a0,0,0,1,1,0,.08Z"/><ellipse class="cls-10" cx="58.76" cy="94.46" rx="9.93" ry="1.93"/><path class="cls-11" d="M49,94.85C50,94,54,93.3,58.76,93.3s8.8.67,9.73,1.55a.57.57,0,0,0,.2-.39c0-1.07-4.45-1.94-9.93-1.94s-9.94.87-9.94,1.94A.55.55,0,0,0,49,94.85Z"/><path class="cls-11" d="M55.56,95.48a1.6,1.6,0,0,1-.86-.39h-.56a2.32,2.32,0,0,1-.57,0c-.14,0-.22-.08-.22-.13s.08-.1.22-.13a2.94,2.94,0,0,1,.57,0h.52a1.34,1.34,0,0,1,.74-.5,1.24,1.24,0,0,1,.29-.06,2.56,2.56,0,0,1,.42,0,3.54,3.54,0,0,1,.6,0c.16,0,.25.07.25.11s0,0-.05.06a.68.68,0,0,1-.17.08,1.62,1.62,0,0,0-.39.22.28.28,0,0,0-.11.21c0,.09.06.16.2.21a1.81,1.81,0,0,0,.6.07,1.41,1.41,0,0,0,.39,0,.84.84,0,0,0,.25-.11,1.5,1.5,0,0,0,.23-.19,1.9,1.9,0,0,1,1.14-.53,7.07,7.07,0,0,1,1.27-.09,8.17,8.17,0,0,1,1.59.14,1.81,1.81,0,0,1,.9.39h.57a2.75,2.75,0,0,1,.56,0c.15,0,.23.08.23.13S64.1,95,64,95a2.27,2.27,0,0,1-.57,0h-.54a1.43,1.43,0,0,1-.72.42,1.32,1.32,0,0,1-.3.07l-.41,0a3.25,3.25,0,0,1-.59,0c-.17,0-.26-.07-.26-.11s0,0,0-.06l.17-.08.19-.08a1.57,1.57,0,0,0,.23-.13.19.19,0,0,0,.08-.16c0-.07-.07-.14-.22-.19a2,2,0,0,0-.6-.07,1.52,1.52,0,0,0-.55.08,1.64,1.64,0,0,0-.37.27,1.77,1.77,0,0,1-.41.31,2.3,2.3,0,0,1-.7.22,7.31,7.31,0,0,1-1.29.09A7.18,7.18,0,0,1,55.56,95.48Z"/><path class="cls-16" d="M49.48,94.26c0,1.48,5.29,2.68,11.81,2.68s11.82-1.2,11.82-2.68v-2H49.48Z"/><path class="cls-9" d="M73.11,92.28c0,1.48-5.29,2.69-11.82,2.69s-11.81-1.21-11.81-2.69,5.29-2.69,11.81-2.69S73.11,90.8,73.11,92.28Z"/><path class="cls-10" d="M61.29,94.65H61.1a0,0,0,1,1,0-.08h.4a0,0,0,0,1,0,.08Zm-.59,0h-.4a0,0,0,0,1,0,0,0,0,0,0,1,0,0h.4a0,0,0,0,1,0,.08Zm1.2,0a0,0,0,1,1,0-.08h.4a0,0,0,1,1,0,.08Zm-2,0h-.4a0,0,0,1,1,0-.08h.4a0,0,0,0,1,0,0A0,0,0,0,1,59.9,94.63Zm2.8,0a0,0,0,1,1,0-.08h.4a0,0,0,0,1,0,0,0,0,0,0,1,0,0Zm-3.6,0h0l-.4,0s0,0,0,0a0,0,0,0,1,0,0h0l.4,0a0,0,0,0,1,0,0S59.12,94.6,59.1,94.6Zm4.4,0a0,0,0,0,1,0,0,0,0,0,0,1,0,0l.4,0a0,0,0,0,1,0,0s0,0,0,0l-.41,0Zm-5.2,0h0l-.4,0s0,0,0,0a0,0,0,0,1,0,0l.4,0a0,0,0,0,1,0,0S58.32,94.56,58.3,94.56Zm6,0s0,0,0,0a0,0,0,0,1,0,0l.4,0a0,0,0,0,1,0,0s0,0,0,0l-.4,0Zm-6.8-.06h0l-.4,0s0,0,0,0,0,0,0,0l.4,0s0,0,0,0S57.52,94.5,57.5,94.5Zm7.6,0s0,0,0,0a0,0,0,0,1,0,0l.4,0s0,0,0,0,0,0,0,0l-.4,0Zm-8.4-.07h0l-.4,0s0,0,0,0,0,0,0,0l.4,0a0,0,0,0,1,0,0A0,0,0,0,1,56.7,94.43Zm9.2,0a0,0,0,1,1,0-.08l.4,0s0,0,0,0a.05.05,0,0,1,0,0l-.39,0Zm-10-.09h0l-.4,0a0,0,0,0,1,0-.05.05.05,0,0,1,0,0l.4.05s0,0,0,0S55.92,94.34,55.9,94.34Zm10.8,0a0,0,0,0,1,0,0s0,0,0,0l.4-.05s0,0,0,0a.07.07,0,0,1,0,.05l-.4,0Zm-11.59-.11h0l-.4-.06a.05.05,0,0,1,0,0s0,0,0,0l.39.06s0,0,0,0S55.13,94.23,55.11,94.23Zm12.38,0s0,0,0,0,0,0,0,0l.39-.06s0,0,.05,0a.05.05,0,0,1,0,0l-.4.06ZM54.32,94.1h0l-.4-.08s0,0,0,0a.05.05,0,0,1,0,0l.39.08s0,0,0,0A.05.05,0,0,1,54.32,94.1Zm14,0s0,0,0,0,0,0,0,0l.39-.08a.05.05,0,0,1,0,0s0,0,0,0l-.39.08Zm-14.75-.16h0l-.39-.09a0,0,0,0,1,0-.08l.39.09a.05.05,0,0,1,0,0S53.55,93.94,53.53,93.94Zm15.54,0s0,0,0,0a0,0,0,0,1,0,0l.39-.09s0,0,0,0a.05.05,0,0,1,0,0l-.39.09Zm-16.32-.19h0l-.38-.12s0,0,0,0a0,0,0,0,1,.05,0l.38.11a0,0,0,0,1,0,0S52.77,93.75,52.75,93.75Zm17.1,0s0,0,0,0,0,0,0,0l.38-.12s0,0,0,0,0,0,0,0l-.38.11ZM52,93.5h0l-.37-.15a0,0,0,1,1,0-.07l.37.15s0,0,0,0Zm18.62,0,0,0a.06.06,0,0,1,0-.06l.37-.14a0,0,0,1,1,0,.07l-.38.15Zm-19.35-.32h0a3.56,3.56,0,0,1-.35-.22,0,0,0,0,1,0,0s0,0,.06,0l.33.21a0,0,0,0,1,0,0S51.27,93.18,51.26,93.18Zm20.08,0s0,0,0,0,0,0,0-.06a3.37,3.37,0,0,0,.34-.21,0,0,0,0,1,0,0s0,0,0,.06a2.53,2.53,0,0,1-.34.21S71.35,93.18,71.34,93.18Zm-20.71-.49h0a.64.64,0,0,1-.15-.39,0,0,0,0,1,0,0h0a0,0,0,0,1,0,0,.6.6,0,0,0,.13.34,0,0,0,0,1,0,.06Zm21.34,0h0a0,0,0,0,1,0-.06.54.54,0,0,0,.13-.34v0a0,0,0,0,1,0,0h0a0,0,0,0,1,0,0v0a.69.69,0,0,1-.14.39ZM50.62,92h0a0,0,0,0,1,0,0,1.19,1.19,0,0,1,.3-.29,0,0,0,0,1,0,0s0,0,0,0a1.72,1.72,0,0,0-.27.27S50.63,92,50.62,92Zm21.33,0,0,0a1.18,1.18,0,0,0-.28-.26,0,0,0,0,1,0-.07,2.06,2.06,0,0,1,.3.28s0,0,0,.06Zm-20.71-.47s0,0,0,0,0,0,0,0l.36-.18s.05,0,.05,0a0,0,0,0,1,0,.06,2.28,2.28,0,0,0-.35.17Zm20.09,0h0a3,3,0,0,0-.36-.17,0,0,0,0,1,0-.06,0,0,0,0,1,0,0l.36.18a0,0,0,0,1,0,.05ZM52,91.14l0,0a0,0,0,0,1,0-.06l.38-.13a0,0,0,0,1,0,.08l-.38.13Zm18.62,0h0L70.2,91a0,0,0,0,1,0-.08l.39.13a0,0,0,0,1,0,0S70.61,91.13,70.59,91.13ZM52.73,90.9a.05.05,0,0,1,0,0s0-.05,0-.05l.39-.1a0,0,0,0,1,0,0,0,0,0,0,1,0,.05l-.39.11Zm17.1,0h0l-.39-.1a.05.05,0,0,1,0-.05s0,0,0,0l.39.1a.05.05,0,0,1,0,0S69.85,90.89,69.83,90.89ZM53.51,90.7s0,0,0,0a.05.05,0,0,1,0,0l.39-.08a0,0,0,0,1,0,0s0,0,0,.05l-.39.08Zm15.54,0h0l-.39-.09s0,0,0,0,0,0,0,0l.39.09s0,0,0,0S69.07,90.7,69.05,90.7ZM54.3,90.54s0,0,0,0,0,0,0-.05l.39-.07a0,0,0,0,1,0,0s0,0,0,0l-.4.07Zm14,0h0l-.4-.07a.05.05,0,0,1,0,0s0,0,0,0l.39.07s0,0,0,0A0,0,0,0,1,68.26,90.54Zm-13.17-.13s0,0,0,0a0,0,0,0,1,0,0l.4-.06a0,0,0,0,1,0,0s0,0,0,0l-.4.06Zm12.38,0h0l-.4-.06a0,0,0,0,1,0,0s0,0,0,0l.4.06s0,0,0,0A0,0,0,0,1,67.47,90.41ZM55.88,90.3s0,0,0,0,0,0,0,0l.4,0a0,0,0,0,1,0,0,0,0,0,0,1,0,0l-.39,0Zm10.8,0h0l-.39,0a0,0,0,0,1,0,0s0,0,.05,0l.39,0a0,0,0,0,1,0,0A0,0,0,0,1,66.68,90.3Zm-10-.09a0,0,0,0,1,0,0s0,0,0,0l.4,0s0,0,0,0a0,0,0,0,1,0,0l-.4,0Zm9.2,0h0l-.4,0a0,0,0,0,1,0,0s0,0,0,0l.4,0s0,0,0,0A0,0,0,0,1,65.88,90.21Zm-8.4-.07a0,0,0,0,1,0,0s0,0,0,0l.4,0s0,0,.05,0,0,0,0,0l-.4,0Zm7.6,0h0l-.4,0a0,0,0,0,1,0,0,.07.07,0,0,1,0,0l.4,0s0,0,0,0S65.1,90.13,65.08,90.13Zm-6.8,0a0,0,0,0,1,0,0s0,0,0,0l.4,0a0,0,0,1,1,0,.08l-.4,0Zm6,0h0l-.4,0a0,0,0,0,1,0-.08h0l.4,0s0,0,0,0A0,0,0,0,1,64.28,90.08Zm-5.2,0a0,0,0,0,1,0,0s0,0,0,0l.41,0s0,0,0,0a0,0,0,0,1,0,0l-.4,0Zm4.4,0h0l-.4,0a0,0,0,0,1,0,0s0,0,0,0h.41a0,0,0,0,1,0,0A0,0,0,0,1,63.48,90Zm-3.6,0a0,0,0,0,1,0,0,0,0,0,0,1,0,0h.4a0,0,0,0,1,0,0,0,0,0,0,1,0,0Zm2.8,0h-.4a0,0,0,0,1,0,0,0,0,0,0,1,0,0h.4a0,0,0,0,1,0,0A0,0,0,0,1,62.68,90Zm-2,0a0,0,0,0,1,0-.08h.4a0,0,0,0,1,0,.08Zm1.2,0h-.4a0,0,0,0,1,0-.08h.4a0,0,0,0,1,0,.08Z"/><path class="cls-10" d="M71.23,92.28c0,1.07-4.45,1.93-9.94,1.93s-9.93-.86-9.93-1.93,4.45-1.93,9.93-1.93S71.23,91.21,71.23,92.28Z"/><path class="cls-11" d="M51.56,92.67c.93-.88,4.93-1.54,9.73-1.54s8.81.66,9.74,1.54a.57.57,0,0,0,.2-.39c0-1.07-4.45-1.93-9.94-1.93s-9.93.86-9.93,1.93A.57.57,0,0,0,51.56,92.67Z"/><path class="cls-11" d="M58.1,93.3a1.5,1.5,0,0,1-.86-.39h-.56a2.22,2.22,0,0,1-.57,0c-.15,0-.22-.07-.22-.13s.07-.1.22-.13a2.79,2.79,0,0,1,.57,0h.52a1.25,1.25,0,0,1,.74-.49.82.82,0,0,1,.29-.07l.42,0a3.25,3.25,0,0,1,.59,0c.17,0,.26.06.26.1a.1.1,0,0,1,0,.07l-.17.08a1.36,1.36,0,0,0-.39.21.29.29,0,0,0-.12.21q0,.14.21.21a1.81,1.81,0,0,0,.6.07,1.41,1.41,0,0,0,.39,0,1,1,0,0,0,.25-.11l.23-.18a2,2,0,0,1,1.13-.54A7.27,7.27,0,0,1,62.86,92a7.4,7.4,0,0,1,1.59.15,1.65,1.65,0,0,1,.89.38h.58a2.9,2.9,0,0,1,.56,0c.15,0,.23.08.23.13s-.08.1-.22.13a2.32,2.32,0,0,1-.57.05h-.54a1.5,1.5,0,0,1-.72.43,1.42,1.42,0,0,1-.31.06l-.4,0a2.69,2.69,0,0,1-.6,0c-.17,0-.25-.06-.25-.1a.06.06,0,0,1,0-.06l.17-.09.19-.08a1,1,0,0,0,.23-.13.22.22,0,0,0,.08-.15c0-.08-.07-.15-.22-.19a1.93,1.93,0,0,0-.6-.08,1.27,1.27,0,0,0-.55.09,1.2,1.2,0,0,0-.37.26,1.92,1.92,0,0,1-.41.31,2.13,2.13,0,0,1-.7.22,7.31,7.31,0,0,1-1.29.09A7.12,7.12,0,0,1,58.1,93.3Z"/><path class="cls-16" d="M52.34,92.08c0,1.48,5.29,2.69,11.82,2.69S76,93.56,76,92.08v-2H52.34Z"/><path class="cls-9" d="M76,90.1c0,1.49-5.29,2.69-11.82,2.69s-11.82-1.2-11.82-2.69,5.29-2.69,11.82-2.69S76,88.62,76,90.1Z"/><path class="cls-10" d="M64.16,92.47H64s0,0,0,0a0,0,0,0,1,0,0h.4a0,0,0,0,1,0,0,0,0,0,0,1,0,0Zm.61,0a0,0,0,0,1,0-.08h.4a0,0,0,0,1,0,0,0,0,0,0,1,0,0Zm-1.21,0h-.4a0,0,0,0,1,0,0s0,0,0,0h.4s0,0,0,0A0,0,0,0,1,63.56,92.47Zm-.8,0h-.4a0,0,0,0,1,0-.08h.4s0,0,0,0S62.78,92.45,62.76,92.45Zm2.81,0s0,0,0,0a0,0,0,0,1,0,0H66a0,0,0,1,1,0,.08Zm-3.61,0h0l-.4,0s0,0,0,0,0,0,0,0h0l.4,0a0,0,0,0,1,0,0A0,0,0,0,1,62,92.43Zm4.41,0a0,0,0,0,1,0,0s0,0,0,0h.4s0,0,0,0,0,0,0,0l-.4,0Zm-5.21-.05h0l-.4,0s0,0,0,0,0,0,0,0l.4,0s0,0,0,0S61.18,92.38,61.16,92.38Zm6,0a0,0,0,0,1,0,0,0,0,0,0,1,0,0l.4,0s0,0,0,0a.07.07,0,0,1,0,0l-.4,0Zm-6.81,0h0l-.4,0a0,0,0,0,1,0,0,0,0,0,0,1,0,0l.4,0s0,0,0,0A0,0,0,0,1,60.36,92.33Zm7.61,0s0,0,0,0a.05.05,0,0,1,0-.05l.4,0h0a0,0,0,0,1,0,.08l-.4,0Zm-8.41-.07h0l-.4,0a0,0,0,0,1,0,0,.05.05,0,0,1,.05,0l.4,0s0,0,0,0S59.58,92.25,59.56,92.25Zm9.21,0s0,0,0,0,0,0,0,0l.4,0a0,0,0,1,1,0,.08l-.4,0Zm-10-.09h0l-.4,0s0,0,0,0,0,0,.05,0l.39,0a.07.07,0,0,1,0,0S58.79,92.16,58.77,92.16Zm10.79,0s0,0,0,0a0,0,0,0,1,0,0l.4,0s0,0,0,0,0,0,0,0l-.4,0ZM58,92.05h0l-.4-.06a0,0,0,0,1,0,0s0,0,0,0L58,92s0,0,0,0S58,92.05,58,92.05Zm12.39,0s0,0,0,0a.05.05,0,0,1,0,0l.4-.06s0,0,0,0a0,0,0,0,1,0,0l-.4.06Zm-13.18-.13h0l-.39-.07s0,0,0,0a0,0,0,0,1,0,0l.39.07s0,0,0,0S57.2,91.92,57.18,91.92Zm14,0s0,0,0,0,0,0,0,0l.4-.08a0,0,0,0,1,0,0s0,0,0,0l-.39.08ZM56.4,91.76h0L56,91.67a0,0,0,0,1,0,0s0,0,.05,0l.38.09a.05.05,0,0,1,0,0A.05.05,0,0,1,56.4,91.76Zm15.53,0a0,0,0,0,1,0,0s0,0,0,0l.39-.09s0,0,0,0,0,0,0,0l-.39.09Zm-16.31-.19h0l-.39-.12s0,0,0,0,0,0,0,0l.38.11a.05.05,0,0,1,0,.05S55.64,91.57,55.62,91.57Zm17.09,0a.05.05,0,0,1,0,0s0-.05,0-.05l.38-.12a.06.06,0,0,1,.06,0,.05.05,0,0,1,0,0l-.39.12Zm-17.86-.24h0l-.37-.14a0,0,0,0,1,0-.06s0,0,0,0l.37.15a0,0,0,0,1,0,0S54.87,91.33,54.85,91.33Zm18.63,0s0,0,0,0,0,0,0,0l.37-.15a0,0,0,0,1,.06,0s0,0,0,0l-.37.15ZM54.12,91h0a2.22,2.22,0,0,1-.34-.22s0,0,0,0,0,0,.06,0a2.37,2.37,0,0,0,.33.21,0,0,0,0,1,0,0S54.14,91,54.12,91Zm20.09,0,0,0a0,0,0,0,1,0-.06,1.71,1.71,0,0,0,.33-.21s0,0,.06,0a0,0,0,0,1,0,.06,3.37,3.37,0,0,1-.34.21ZM53.5,90.52a.05.05,0,0,1,0,0,.69.69,0,0,1-.14-.39,0,0,0,0,1,0,0h0a0,0,0,0,1,0,0,.54.54,0,0,0,.13.34,0,0,0,0,1,0,.06Zm21.33,0h0s0,0,0-.06a.56.56,0,0,0,.12-.34v0a0,0,0,0,1,0,0h0a0,0,0,0,1,0,0v0a.62.62,0,0,1-.14.39S74.84,90.51,74.83,90.51Zm-21.35-.73h0a0,0,0,0,1,0-.06,1.59,1.59,0,0,1,.29-.29s0,0,.06,0a0,0,0,0,1,0,.06,1,1,0,0,0-.27.27Zm21.34,0,0,0a1.81,1.81,0,0,0-.28-.26s0,0,0-.06a0,0,0,0,1,0,0,1.39,1.39,0,0,1,.3.29s0,0,0,0S74.83,89.76,74.82,89.76ZM54.1,89.29l0,0s0,0,0-.06l.37-.17a0,0,0,0,1,0,.07l-.36.17S54.11,89.29,54.1,89.29Zm20.09,0h0a3,3,0,0,0-.36-.17,0,0,0,0,1,0-.06s0,0,.06,0l.36.18a0,0,0,0,1,0,0S74.21,89.27,74.19,89.27ZM54.84,89s0,0,0,0,0,0,0,0l.38-.13s0,0,0,0,0,0,0,0l-.38.13Zm18.62,0h0l-.37-.13a0,0,0,0,1,0,0,0,0,0,0,1,0,0l.38.13s0,0,0,.05ZM55.6,88.72s0,0,0,0,0,0,0,0l.39-.1s0,0,.05,0a.05.05,0,0,1,0,.05l-.39.1Zm17.09,0h0l-.38-.1s0,0,0,0,0,0,0,0l.38.1s0,0,0,.05S72.71,88.71,72.69,88.71Zm-16.31-.19s0,0,0,0,0,0,0,0l.39-.09a.05.05,0,0,1,.05,0s0,0,0,0l-.39.08Zm15.54,0h0l-.39-.09a0,0,0,0,1,0,0s0,0,0,0l.39.08a0,0,0,0,1,0,0A0,0,0,0,1,71.92,88.52Zm-14.76-.16s0,0,0,0a0,0,0,0,1,0,0l.39-.07s0,0,.05,0a.05.05,0,0,1,0,0l-.39.06Zm14,0h0l-.39-.07a0,0,0,0,1,0-.05s0,0,0,0l.4.07s0,0,0,0S71.15,88.36,71.13,88.36ZM58,88.23s0,0,0,0a.05.05,0,0,1,0,0l.39-.05a0,0,0,0,1,0,0s0,0,0,0l-.4.06Zm12.39,0h0l-.39-.06a0,0,0,0,1,0,0s0,0,0,0l.39.06a0,0,0,0,1,0,0A0,0,0,0,1,70.34,88.23Zm-11.59-.11s0,0,0,0,0,0,0,0l.4,0a0,0,0,0,1,0,0,.07.07,0,0,1,0,0l-.4,0Zm10.79,0h0l-.4-.05s0,0,0,0a0,0,0,0,1,0,0l.4.05s0,0,0,0A0,0,0,0,1,69.54,88.12Zm-10-.09s0,0,0,0a0,0,0,0,1,0,0l.4,0a0,0,0,0,1,0,0s0,0,0,0l-.4,0Zm9.21,0h0l-.39,0a0,0,0,0,1,0,0,0,0,0,0,1,0,0l.4,0a0,0,0,1,1,0,.08ZM60.34,88a0,0,0,0,1,0-.08l.4,0s0,0,0,0a0,0,0,0,1,0,0l-.39,0ZM68,88h0l-.4,0s0,0,0-.05,0,0,0,0l.4,0A0,0,0,0,1,68,88Zm-6.81-.06a0,0,0,0,1,0,0,0,0,0,0,1,0,0l.4,0a0,0,0,0,1,0,.08l-.4,0Zm6,0h0l-.4,0a0,0,0,0,1,0,0s0,0,0,0l.4,0a0,0,0,1,1,0,.08Zm-5.21,0a0,0,0,1,1,0-.08l.4,0a0,0,0,0,1,0,0,0,0,0,0,1,0,0l-.4,0Zm4.41,0h0l-.4,0a0,0,0,0,1,0-.08h0l.4,0a0,0,0,0,1,0,.08Zm-3.61,0a0,0,0,0,1,0-.08h.4a0,0,0,0,1,0,.08Zm2.81,0h-.4a0,0,0,0,1,0,0,0,0,0,0,1,0,0h.4a0,0,0,0,1,0,.08Zm-2,0a0,0,0,0,1,0,0,0,0,0,0,1,0,0H64a0,0,0,1,1,0,.08Zm1.21,0h-.4a0,0,0,1,1,0-.08h.4a0,0,0,0,1,0,0A0,0,0,0,1,64.75,87.81Z"/><path class="cls-10" d="M74.09,90.1c0,1.07-4.44,1.93-9.93,1.93s-9.93-.86-9.93-1.93,4.44-1.93,9.93-1.93S74.09,89,74.09,90.1Z"/><path class="cls-11" d="M54.43,90.49c.93-.88,4.93-1.54,9.73-1.54s8.81.66,9.73,1.54a.53.53,0,0,0,.2-.39c0-1.07-4.44-1.93-9.93-1.93s-9.93.86-9.93,1.93A.53.53,0,0,0,54.43,90.49Z"/><path class="cls-11" d="M61,91.13a1.6,1.6,0,0,1-.86-.39h-.56a3,3,0,0,1-.58,0c-.14,0-.21-.08-.21-.14s.07-.09.21-.13a3,3,0,0,1,.58,0h.51a1.37,1.37,0,0,1,.75-.49,1.63,1.63,0,0,1,.28-.07l.43,0a3.42,3.42,0,0,1,.59,0c.17,0,.25.06.25.11a.07.07,0,0,1,0,.06l-.18.08a1.71,1.71,0,0,0-.38.21.29.29,0,0,0-.12.21c0,.09.07.16.2.21a1.81,1.81,0,0,0,.6.07,1.54,1.54,0,0,0,.4,0,.67.67,0,0,0,.24-.11l.23-.18a2.44,2.44,0,0,1,.44-.32,2.51,2.51,0,0,1,.7-.22,7.19,7.19,0,0,1,1.28-.09,7.4,7.4,0,0,1,1.59.15,1.69,1.69,0,0,1,.89.38h.57a2.94,2.94,0,0,1,.57,0c.15,0,.22.08.22.13s-.07.1-.22.14a2.79,2.79,0,0,1-.57,0h-.54a1.59,1.59,0,0,1-.72.42,1.33,1.33,0,0,1-.3.06,2.49,2.49,0,0,1-.41,0,3.42,3.42,0,0,1-.59,0c-.17,0-.25-.07-.25-.11A.07.07,0,0,1,66,91l.17-.09a1,1,0,0,0,.19-.08.82.82,0,0,0,.23-.13.2.2,0,0,0,.09-.15c0-.08-.08-.14-.23-.19a1.84,1.84,0,0,0-.6-.08,1.34,1.34,0,0,0-.55.09,1.16,1.16,0,0,0-.36.26,2.4,2.4,0,0,1-.41.32,2.56,2.56,0,0,1-.7.21,7.31,7.31,0,0,1-1.29.09A7.84,7.84,0,0,1,61,91.13Z"/><path class="cls-16" d="M49.48,89.93c0,1.48,5.29,2.68,11.81,2.68s11.82-1.2,11.82-2.68V88H49.48Z"/><path class="cls-9" d="M73.11,88c0,1.48-5.29,2.69-11.82,2.69S49.48,89.43,49.48,88s5.29-2.69,11.81-2.69S73.11,86.46,73.11,88Z"/><path class="cls-10" d="M61.29,90.32H61.1a0,0,0,0,1,0-.08h.4a0,0,0,0,1,0,.08Zm-.59,0h-.4a0,0,0,0,1,0,0,0,0,0,0,1,0,0h.4a0,0,0,0,1,0,.08Zm1.2,0a0,0,0,0,1,0-.08h.4a0,0,0,0,1,0,.08Zm-2,0h-.4a0,0,0,0,1,0,0s0,0,0,0h.4a0,0,0,0,1,0,.08Zm2.8,0a0,0,0,0,1,0-.08h.4a0,0,0,0,1,0,.08Zm-3.6,0h0l-.4,0s0,0,0,0a0,0,0,0,1,0,0h0l.4,0a0,0,0,0,1,0,0A0,0,0,0,1,59.1,90.27Zm4.4,0a0,0,0,0,1,0,0,0,0,0,0,1,0,0l.4,0a0,0,0,0,1,0,0s0,0,0,0l-.41,0Zm-5.2,0h0l-.4,0s0,0,0,0a0,0,0,0,1,0,0l.4,0a0,0,0,0,1,0,0S58.32,90.23,58.3,90.23Zm6,0s0,0,0,0a0,0,0,0,1,0,0l.4,0a0,0,0,0,1,0,0s0,0,0,0l-.4,0Zm-6.8-.06h0l-.4,0a0,0,0,0,1,0,0s0,0,0,0l.4,0a0,0,0,0,1,0,0S57.52,90.17,57.5,90.17Zm7.6,0s0,0,0,0a0,0,0,0,1,0,0l.4,0s0,0,0,0,0,0,0,0l-.4,0Zm-8.4-.07h0l-.4,0a.05.05,0,0,1,0,0s0,0,0,0l.4,0a0,0,0,0,1,0,.08Zm9.2,0a0,0,0,0,1,0-.08l.4,0s0,0,0,0a.05.05,0,0,1,0,0l-.39,0ZM55.9,90h0L55.5,90a.07.07,0,0,1,0,0s0,0,0,0l.4.05s0,0,0,0A0,0,0,0,1,55.9,90Zm10.8,0a0,0,0,0,1,0,0s0,0,0,0l.4-.05s0,0,0,0a.07.07,0,0,1,0,0l-.4.05ZM55.11,89.9h0l-.4-.06a.05.05,0,0,1,0,0,0,0,0,0,1,0,0l.39.06a0,0,0,0,1,0,.05S55.13,89.9,55.11,89.9Zm12.38,0s0,0,0,0a0,0,0,0,1,0,0l.39-.06s0,0,.05,0a.05.05,0,0,1,0,0l-.4.06Zm-13.17-.13h0l-.4-.08s0,0,0,0a.05.05,0,0,1,0,0l.39.08a0,0,0,0,1,0,0A.05.05,0,0,1,54.32,89.77Zm14,0s0,0,0,0a0,0,0,0,1,0,0l.39-.08a.05.05,0,0,1,0,0s0,0,0,0l-.39.08Zm-14.75-.16h0l-.39-.09a.05.05,0,0,1,0,0s0,0,0,0l.39.09a.05.05,0,0,1,0,0S53.55,89.61,53.53,89.61Zm15.54,0s0,0,0,0a0,0,0,0,1,0,0l.39-.09s0,0,0,0,0,0,0,0l-.39.1Zm-16.32-.19h0l-.38-.12s0,0,0,0a.05.05,0,0,1,.05,0l.38.12a0,0,0,0,1,0,0S52.77,89.42,52.75,89.42Zm17.1,0s0,0,0,0,0,0,0,0l.38-.11s0,0,0,0,0,0,0,0l-.38.11ZM52,89.17h0L51.6,89a0,0,0,1,1,0-.07l.37.15s0,0,0,.05Zm18.62,0s0,0,0,0a.05.05,0,0,1,0,0l.37-.15a.05.05,0,0,1,0,0,0,0,0,0,1,0,0l-.38.15Zm-19.35-.32h0a3.56,3.56,0,0,1-.35-.22s0,0,0-.06,0,0,.06,0l.33.21a0,0,0,0,1,0,0Zm20.08,0s0,0,0,0,0,0,0-.06a3.37,3.37,0,0,0,.34-.21,0,0,0,0,1,0,0s0,0,0,.05a1.82,1.82,0,0,1-.34.22Zm-20.71-.49h0a.64.64,0,0,1-.15-.39,0,0,0,0,1,0,0h0a0,0,0,0,1,0,0,.6.6,0,0,0,.13.34,0,0,0,0,1,0,.06Zm21.34,0h0a0,0,0,0,1,0-.06.54.54,0,0,0,.13-.34v0a0,0,0,0,1,0,0h0a0,0,0,0,1,0,0v0a.69.69,0,0,1-.14.39Zm-21.35-.72h0s0,0,0-.05a1.19,1.19,0,0,1,.3-.29s0,0,0,0,0,0,0,0a1.72,1.72,0,0,0-.27.27Zm21.33,0,0,0a1.18,1.18,0,0,0-.28-.26,0,0,0,0,1,0-.07,2.06,2.06,0,0,1,.3.28s0,0,0,.06Zm-20.71-.47s0,0,0,0a0,0,0,0,1,0,0l.36-.18s.05,0,.05,0a0,0,0,0,1,0,.06,2.28,2.28,0,0,0-.35.17Zm20.09,0h0L71,86.94s0,0,0,0a0,0,0,0,1,0,0l.36.18a0,0,0,0,1,0,0ZM52,86.81s0,0,0,0,0,0,0,0l.38-.13a0,0,0,0,1,0,.08l-.38.13Zm18.62,0h0l-.38-.13a0,0,0,0,1,0-.08l.39.13a0,0,0,0,1,0,0S70.61,86.8,70.59,86.8Zm-17.86-.23,0,0s0-.05,0-.05l.39-.11a.05.05,0,0,1,0,0,0,0,0,0,1,0,0l-.39.1Zm17.1,0h0l-.39-.1a.05.05,0,0,1,0,0s0,0,0,0l.39.1a.05.05,0,0,1,0,0S69.85,86.56,69.83,86.56Zm-16.32-.19s0,0,0,0a.05.05,0,0,1,0,0l.39-.08a0,0,0,0,1,0,0s0,0,0,.05l-.39.08Zm15.54,0h0l-.39-.08a0,0,0,0,1,0,0s0,0,0,0l.39.09s0,0,0,0S69.07,86.37,69.05,86.37ZM54.3,86.21s0,0,0,0,0,0,0-.05l.39-.07s0,0,0,0,0,0,0,0l-.4.07Zm14,0h0l-.4-.07a.05.05,0,0,1,0,0,0,0,0,0,1,0,0l.39.07s0,0,0,0A0,0,0,0,1,68.26,86.21Zm-13.17-.13s0,0,0,0a0,0,0,0,1,0,0l.4-.06a0,0,0,0,1,0,0s0,0,0,0l-.4.06Zm12.38,0h0l-.4-.06s0,0,0,0,0,0,0,0l.4.06s0,0,0,0A0,0,0,0,1,67.47,86.08ZM55.88,86a0,0,0,0,1,0-.08l.4,0a0,0,0,0,1,0,0,0,0,0,0,1,0,0l-.39,0Zm10.8,0h0l-.39,0s0,0,0,0,0,0,.05,0l.39,0a0,0,0,0,1,0,0A0,0,0,0,1,66.68,86Zm-10-.09a0,0,0,0,1,0,0s0,0,0,0l.4,0s0,0,0,0a0,0,0,0,1,0,0l-.4,0Zm9.2,0h0l-.4,0a0,0,0,0,1,0,0s0,0,0,0l.4,0s0,0,0,0A0,0,0,0,1,65.88,85.88Zm-8.4-.07a0,0,0,0,1,0,0s0,0,0,0l.4,0s0,0,.05,0a.07.07,0,0,1,0,0l-.4,0Zm7.6,0h0l-.4,0a0,0,0,0,1,0,0,.07.07,0,0,1,0,0l.4,0s0,0,0,0S65.1,85.8,65.08,85.8Zm-6.8,0a0,0,0,0,1,0,0s0,0,0,0l.4,0s0,0,0,0,0,0,0,0l-.4,0Zm6,0h0l-.4,0a0,0,0,0,1,0-.08h0l.4,0s0,0,0,0A0,0,0,0,1,64.28,85.75Zm-5.2,0a0,0,0,0,1,0,0s0,0,0,0l.41,0s0,0,0,0a0,0,0,0,1,0,0l-.4,0Zm4.4,0h-.4a0,0,0,0,1,0-.08h.41a0,0,0,0,1,0,0S63.5,85.7,63.48,85.7Zm-3.6,0a0,0,0,0,1,0,0,0,0,0,0,1,0,0h.4a0,0,0,0,1,0,0,0,0,0,0,1,0,0Zm2.8,0h-.4a0,0,0,0,1,0,0,0,0,0,0,1,0,0h.4s0,0,0,0A0,0,0,0,1,62.68,85.68Zm-2,0a0,0,0,0,1,0-.08h.4a0,0,0,0,1,0,0,0,0,0,0,1,0,0Zm1.2,0h-.4a0,0,0,0,1,0,0,0,0,0,0,1,0,0h.4a0,0,0,0,1,0,.08Z"/><path class="cls-10" d="M71.23,88c0,1.07-4.45,1.93-9.94,1.93S51.36,89,51.36,88,55.81,86,61.29,86,71.23,86.88,71.23,88Z"/><path class="cls-11" d="M51.56,88.34c.93-.88,4.93-1.54,9.73-1.54s8.81.66,9.74,1.54a.57.57,0,0,0,.2-.39c0-1.07-4.45-1.93-9.94-1.93s-9.93.86-9.93,1.93A.57.57,0,0,0,51.56,88.34Z"/><path class="cls-11" d="M58.1,89a1.5,1.5,0,0,1-.86-.39h-.56a2.22,2.22,0,0,1-.57,0c-.15,0-.22-.07-.22-.13s.07-.1.22-.13a2.79,2.79,0,0,1,.57,0h.52a1.25,1.25,0,0,1,.74-.49.82.82,0,0,1,.29-.07l.42,0a2.54,2.54,0,0,1,.59,0c.17,0,.26.06.26.1s0,0,0,.07l-.17.08a1.36,1.36,0,0,0-.39.21.29.29,0,0,0-.12.21q0,.14.21.21a1.81,1.81,0,0,0,.6.07,1.41,1.41,0,0,0,.39,0,1,1,0,0,0,.25-.11l.23-.18a2,2,0,0,1,1.13-.54,7.27,7.27,0,0,1,1.28-.09,8.17,8.17,0,0,1,1.59.14,1.72,1.72,0,0,1,.89.39h.58a2.9,2.9,0,0,1,.56.05c.15,0,.23.08.23.13s-.08.1-.22.13a2.32,2.32,0,0,1-.57,0h-.54a1.43,1.43,0,0,1-.72.42,1,1,0,0,1-.31.07l-.4,0a3.45,3.45,0,0,1-.6,0c-.17,0-.25-.06-.25-.11s0,0,0-.06l.17-.08.19-.08a1.57,1.57,0,0,0,.23-.13.23.23,0,0,0,.08-.16c0-.07-.07-.14-.22-.19a2.35,2.35,0,0,0-.6-.07,1.27,1.27,0,0,0-.55.09,1.2,1.2,0,0,0-.37.26,1.92,1.92,0,0,1-.41.31A2.13,2.13,0,0,1,61,89a7.31,7.31,0,0,1-1.29.09A7.12,7.12,0,0,1,58.1,89Z"/><path class="cls-16" d="M75.1,83.5c-1.39.52-.65,5.9,1.65,12s5.29,10.63,6.68,10.11l1.85-.7L77,82.8Z"/><path class="cls-9" d="M85.28,104.92c-1.39.53-4.38-4-6.68-10.11s-3-11.48-1.65-12,4.38,4,6.68,10.12S86.67,104.4,85.28,104.92Z"/><path class="cls-10" d="M78.9,94.7l-.07-.18a0,0,0,0,1,0-.06.05.05,0,0,1,.05,0h0l.07.18.07.19h0a0,0,0,0,1,0,.06.05.05,0,0,1,0,0Zm-.21-.56h0l-.14-.38a.05.05,0,0,1,0-.05,0,0,0,0,1,0,0h0l.13.37s0,0,0,0A0,0,0,0,1,78.69,94.14Zm.42,1.13a0,0,0,0,1,0-.06.05.05,0,0,1,0,0c0,.12.1.25.14.37h0a.05.05,0,0,1,0,0,0,0,0,0,1,0,0l-.15-.37Zm-.69-1.89h0c0-.12-.09-.25-.13-.38s0,0,0,0,0,0,.05,0,.08.25.13.38a.05.05,0,0,1,0,0S78.43,93.41,78.42,93.38Zm1,2.63a0,0,0,0,1,0-.05s0,0,0,0,.11.25.16.37h0a0,0,0,0,1,0,.05,0,0,0,0,1-.06,0L79.41,96Zm-1.24-3.39h0c0-.12-.09-.25-.13-.38a.05.05,0,0,1,0,0s0,0,.05,0h0l.12.38a0,0,0,0,1,0,.05A0,0,0,0,1,78.17,92.62Zm1.55,4.13a0,0,0,0,1,.07,0c.06.12.11.25.16.37s0,0,0,0a0,0,0,0,1-.05,0l-.16-.37Zm-1.8-4.89h0c0-.13-.07-.26-.11-.39a0,0,0,0,1,0,0s0,0,0,0l.12.38a0,0,0,0,1,0,0A0,0,0,0,1,77.92,91.86ZM80,97.48a0,0,0,0,1,0,0,0,0,0,0,1,.06,0c0,.13.11.25.16.37a0,0,0,1,1-.07,0L80,97.49ZM77.7,91.09h0c0-.13-.07-.26-.1-.39a0,0,0,0,1,0,0s0,0,0,0,.08.26.11.39,0,0,0,.05S77.7,91.11,77.7,91.09Zm2.68,7.12a0,0,0,0,1,.07,0c.06.12.12.24.17.36a.06.06,0,0,1,0,.06s0,0-.06,0-.11-.24-.17-.37Zm-2.9-7.89h0c0-.14-.07-.26-.1-.39s0-.05,0-.05,0,0,0,0,.06.25.1.38,0,0,0,0A0,0,0,0,1,77.48,90.32Zm3.25,8.61a0,0,0,0,1,.07,0l.18.36a0,0,0,0,1,0,0,0,0,0,0,1,0,0l-.18-.36Zm-3.44-9.39h0l-.09-.39s0-.05,0-.05a0,0,0,0,1,0,0l.09.39s0,0,0,0S77.29,89.56,77.29,89.54Zm3.8,10.11a0,0,0,0,1,0-.05s0,0,0,0,.13.24.19.36,0,0,0,0a.06.06,0,0,1-.06,0c-.06-.12-.12-.24-.19-.36Zm-4-10.89h0c0-.13-.06-.26-.08-.39s0,0,0,0a0,0,0,0,1,0,0l.09.39a.05.05,0,0,1,0,.05S77.12,88.78,77.11,88.76Zm4.36,11.59s0,0,0,0a0,0,0,0,1,.06,0l.19.35s0,0,0,0a0,0,0,0,1,0,0c-.07-.12-.14-.23-.2-.35ZM77,88h0c0-.14,0-.27-.07-.4a.05.05,0,0,1,0,0,0,0,0,0,1,0,0c0,.13.05.26.07.39s0,0,0,0A.05.05,0,0,1,77,88Zm4.93,13.08a0,0,0,0,1,0,0,0,0,0,0,1,.06,0l.21.34s0,0,0,.06,0,0,0,0l-.21-.34ZM76.82,87.18h0c0-.13,0-.27,0-.39s0,0,0,0a0,0,0,0,1,0,0c0,.13,0,.26.05.39a0,0,0,0,1,0,0A.05.05,0,0,1,76.82,87.18Zm5.48,14.54s0,0,0,0,0,0,.05,0l.23.33a.07.07,0,0,1,0,.06.06.06,0,0,1-.06,0c-.07-.11-.15-.22-.22-.34ZM76.73,86.39h0l0-.41a0,0,0,0,1,.08,0l0,.4a0,0,0,0,1,0,0Zm6,16s0,0,0,0,0,0,.06,0l.24.31s0,0,0,.06,0,0,0,0-.17-.2-.25-.32ZM76.69,85.59v-.42s0,0,0,0a0,0,0,0,1,0,0c0,.13,0,.26,0,.4a0,0,0,0,1,0,0A.05.05,0,0,1,76.69,85.59ZM83.25,103a0,0,0,0,1,0,0s0,0,0,0,.18.21.27.3a0,0,0,0,1,0,0,0,0,0,0,1-.06,0c-.08-.09-.18-.19-.27-.3ZM76.73,84.79v0a3.53,3.53,0,0,1,.08-.4.05.05,0,0,1,0,0s0,0,0,0a3,3,0,0,0-.08.39s0,0,0,0Zm7.09,18.79s0,0,0,0a.06.06,0,0,1,.06,0l.31.24a0,0,0,0,1,0,0s0,0-.06,0a2,2,0,0,1-.32-.24S83.82,103.59,83.82,103.58ZM77,84v0a.69.69,0,0,1,.32-.27,0,0,0,0,1,0,0h0s0,.05,0,.05A.66.66,0,0,0,77,84a0,0,0,0,1-.05,0S77,84,77,84Zm7.53,20s0,0,0,0,0,0,.05,0a.58.58,0,0,0,.37,0h0a0,0,0,0,1,.06,0h0s0,0,0,0h0a.63.63,0,0,1-.41,0S84.5,104,84.5,104ZM77.65,83.76v0a0,0,0,0,1,0,0,1.1,1.1,0,0,1,.37.17,0,0,0,0,1,0,.05s0,0-.06,0a1.25,1.25,0,0,0-.35-.17Zm7.54,20v0a1.27,1.27,0,0,0,.15-.35s0,0,0,0,0,0,0,0a1.32,1.32,0,0,1-.16.38,0,0,0,0,1-.05,0S85.19,103.73,85.19,103.72ZM78.33,84.16a.08.08,0,0,1,0,0,.06.06,0,0,1,.06,0,3.69,3.69,0,0,1,.29.28,0,0,0,0,1,0,0s0,0-.06,0a3.5,3.5,0,0,0-.28-.27ZM85.42,103v0c0-.12,0-.26,0-.4s0,0,0,0a0,0,0,0,1,0,0c0,.14,0,.28,0,.4a0,0,0,0,1,0,0ZM78.9,84.74s0,0,0,0a0,0,0,0,1,0,0c.09.09.17.2.26.31a0,0,0,0,1,0,0s0,0,0,0l-.26-.31Zm6.57,17.42h0c0-.13,0-.26,0-.4a0,0,0,0,1,0,0s0,0,0,0,0,.28,0,.41a0,0,0,0,1,0,0A0,0,0,0,1,85.47,102.16Zm-6.08-16.8a0,0,0,0,1,0,0s0,0,0,0l.24.32a.06.06,0,0,1,0,.06s0,0-.06,0l-.23-.33Zm6,16h0c0-.13,0-.26,0-.4s0,0,0,0a0,0,0,0,1,0,0c0,.14,0,.27,0,.4a.05.05,0,0,1,0,0A.05.05,0,0,1,85.42,101.36ZM79.85,86s0,0,0,0a0,0,0,0,1,.06,0l.22.34s0,0,0,0a0,0,0,0,1-.05,0c-.07-.12-.15-.23-.22-.34Zm5.48,14.54h0l-.06-.39s0,0,0,0a.05.05,0,0,1,0,0l.06.39a0,0,0,0,1,0,0S85.34,100.58,85.33,100.56Zm-5-13.86a0,0,0,0,1,0,0,0,0,0,0,1,.06,0l.2.34s0,0,0,.06a0,0,0,0,1-.06,0l-.2-.34ZM85.2,99.77h0c0-.13,0-.26-.08-.4a0,0,0,0,1,0,0s0,0,0,0,.06.26.08.39a0,0,0,0,1-.08,0ZM80.68,87.4a0,0,0,0,1,0-.05s0,0,0,0l.19.35a0,0,0,0,1,0,.06,0,0,0,0,1-.06,0l-.19-.35ZM85.05,99h0c0-.13-.05-.26-.08-.39s0,0,0,0a.05.05,0,0,1,.05,0c0,.13,0,.26.08.39a0,0,0,0,1,0,.05A0,0,0,0,1,85.05,99Zm-4-10.89a0,0,0,0,1,.07,0,3.9,3.9,0,0,1,.19.35,0,0,0,0,1,0,.06,0,0,0,0,1,0,0l-.19-.35Zm3.81,10.1h0c0-.13-.07-.26-.1-.39s0,0,0,0a.05.05,0,0,1,0,0l.09.39s0,0,0,0S84.87,98.22,84.87,98.2Zm-3.44-9.39a0,0,0,0,1,.07,0l.18.36a0,0,0,1,1-.08,0c0-.12-.11-.24-.17-.36Zm3.24,8.62h0c0-.12-.07-.25-.1-.38s0-.05,0-.05a0,0,0,0,1,0,0l.11.38s0,0,0,0A0,0,0,0,1,84.67,97.43Zm-2.89-7.89a0,0,0,0,1,0-.06s0,0,0,0,.11.25.17.37a0,0,0,1,1-.07,0c-.06-.12-.12-.24-.17-.36Zm2.68,7.11h0l-.12-.38s0,0,0,0,0,0,0,0,.08.26.11.39a0,0,0,0,1,0,.05S84.46,96.67,84.46,96.65Zm-2.35-6.39a0,0,0,0,1,0-.05,0,0,0,0,1,.06,0c0,.12.1.25.16.37a0,0,0,0,1,0,.05,0,0,0,0,1-.06,0c0-.12-.1-.24-.16-.36Zm2.12,5.63h0l-.12-.38s0,0,0,0a0,0,0,0,1,0,0h0l.12.38a.05.05,0,0,1,0,0A0,0,0,0,1,84.23,95.89ZM82.43,91s0,0,0,0a0,0,0,0,1,.05,0l.15.37s0,0,0,0a0,0,0,0,1,0,0c0-.13-.1-.25-.16-.37ZM84,95.12h0c0-.13-.09-.25-.13-.38s0,0,0,0a0,0,0,0,1,0,0h0l.12.39a0,0,0,0,1,0,.05S84,95.14,84,95.12Zm-1.25-3.38s0,0,0,0a0,0,0,0,1,0,0l.15.37h0a0,0,0,0,1,0,0,0,0,0,0,1-.06,0l-.15-.37Zm1,2.62h0c0-.12-.09-.25-.13-.38a0,0,0,0,1,0,0,0,0,0,0,1,0,0h0c0,.12.08.25.13.37a.06.06,0,0,1,0,.06A.05.05,0,0,1,83.73,94.36ZM83,92.48a0,0,0,0,1,0,0,0,0,0,0,1,.06,0c0,.13.09.25.14.38h0a0,0,0,0,1,0,0,0,0,0,0,1-.06,0c0-.13-.09-.25-.14-.38Zm.42,1.13h0c0-.13-.09-.25-.13-.38a0,0,0,1,1,.07,0h0l.14.38a0,0,0,0,1,0,0A0,0,0,0,1,83.46,93.61Z"/><ellipse class="cls-10" cx="81.12" cy="93.86" rx="1.93" ry="9.93" transform="translate(-27.87 34.6) rotate(-20.63)"/><path class="cls-11" d="M77.32,84.89c1.15.56,3.18,4.08,4.87,8.57s2.49,8.47,2,9.65a.54.54,0,0,0,.44,0c1-.38.24-4.84-1.7-10s-4.31-9-5.3-8.61A.5.5,0,0,0,77.32,84.89Z"/><path class="cls-11" d="M79,91.23a1.66,1.66,0,0,1,.06-.94l-.19-.52a2.41,2.41,0,0,1-.16-.55c0-.15,0-.23.05-.25s.11,0,.2.15a3.66,3.66,0,0,1,.25.52l.18.48a1.32,1.32,0,0,1,.72.53.92.92,0,0,1,.17.24,2.76,2.76,0,0,1,.16.39,3.23,3.23,0,0,1,.17.57c0,.17,0,.26,0,.28a.1.1,0,0,1-.08,0,.76.76,0,0,1-.13-.13,1.81,1.81,0,0,0-.34-.29.3.3,0,0,0-.24,0c-.08,0-.12.12-.12.26a1.93,1.93,0,0,0,.14.59,1.6,1.6,0,0,0,.18.35.92.92,0,0,0,.19.2,1.72,1.72,0,0,0,.25.14,2.29,2.29,0,0,1,.46.3,2.65,2.65,0,0,1,.45.58,8.33,8.33,0,0,1,.53,1.16,6.9,6.9,0,0,1,.42,1.54,1.7,1.7,0,0,1,0,1l.2.54a2.56,2.56,0,0,1,.15.55c0,.15,0,.23,0,.25s-.12,0-.2-.15a2.82,2.82,0,0,1-.25-.52l-.19-.5a1.58,1.58,0,0,1-.65-.53,1.67,1.67,0,0,1-.17-.26c-.05-.1-.1-.22-.16-.37a2.7,2.7,0,0,1-.16-.58c0-.17,0-.26,0-.27s0,0,.07,0a.72.72,0,0,1,.14.13l.14.15a1,1,0,0,0,.21.17.21.21,0,0,0,.17,0c.07,0,.11-.12.1-.27a2.34,2.34,0,0,0-.14-.59,1.44,1.44,0,0,0-.28-.49,1.59,1.59,0,0,0-.37-.25,1.62,1.62,0,0,1-.44-.27,2.42,2.42,0,0,1-.45-.58,7.14,7.14,0,0,1-.54-1.18A7.59,7.59,0,0,1,79,91.23Z"/><path class="cls-17" d="M117.84,12.35c-6.38,1.8-12-1.75-13.07-2.46a.5.5,0,0,1-.21-.25h0c-.16-.4-.5-.8-.66-.74s.09.47.09.47c-.28-.3-1.07-.09-.85.46a1,1,0,0,0,.83.55h0a.62.62,0,0,1,.3.16h0c1,.93,7.16,6.32,14.36,4Z"/><path class="cls-3" d="M121.42,11.12c-.62-.22-1.92.3-3.76.76h0A2.41,2.41,0,0,0,118.83,15a15.1,15.1,0,0,0,2.26-.94C122.22,13.42,123.07,11.71,121.42,11.12Z"/><path class="cls-16" d="M115.84,17.58c0-6.08-4.5-11-10-11h-.16c-.86,0-1.56,0-1.91,0l0,.21c-4.55,1.06-8,5.47-8,10.77h0c0,5.32,3.45,9.76,8,10.78l0,.22c.36,0,1,0,1.91,0h.07c5.55,0,10-4.92,10-11h0Z"/><ellipse class="cls-9" cx="104.13" cy="17.6" rx="10.05" ry="11.01"/><path class="cls-10" d="M103.72,27.51h0l-.57,0a.14.14,0,0,1-.12-.16.14.14,0,0,1,.15-.13,5.35,5.35,0,0,0,.55.05.15.15,0,0,1,.14.15A.14.14,0,0,1,103.72,27.51Zm1.11,0a.14.14,0,0,1-.14-.13.15.15,0,0,1,.13-.15l.55-.06a.14.14,0,0,1,.16.11.15.15,0,0,1-.12.17l-.56.06Zm-2.77-.23h0l-.55-.17a.15.15,0,0,1-.09-.18.16.16,0,0,1,.18-.09c.18.06.36.12.53.16a.14.14,0,0,1,.1.17A.13.13,0,0,1,102.06,27.26Zm4.42-.08a.13.13,0,0,1-.13-.1.15.15,0,0,1,.09-.18l.52-.17a.15.15,0,0,1,.19.08.15.15,0,0,1-.09.19l-.54.18Zm-6-.5-.06,0-.5-.26a.15.15,0,0,1,0-.2.13.13,0,0,1,.19-.05c.16.09.32.18.49.26a.14.14,0,0,1-.07.27Zm7.55-.14a.12.12,0,0,1-.12-.07.14.14,0,0,1,.06-.19c.16-.09.32-.18.47-.28a.15.15,0,0,1,.2.05.14.14,0,0,1,0,.19c-.16.1-.32.2-.49.29Zm-9-.74a.16.16,0,0,1-.09,0l-.44-.36a.14.14,0,1,1,.18-.21l.43.34a.14.14,0,0,1,0,.2A.14.14,0,0,1,99.06,25.8Zm10.37-.18a.14.14,0,0,1-.11-.06.14.14,0,0,1,0-.2q.21-.16.42-.36a.14.14,0,0,1,.19.21,5,5,0,0,1-.43.37A.12.12,0,0,1,109.43,25.62Zm-11.61-.95a.16.16,0,0,1-.11-.05c-.13-.14-.25-.28-.37-.43a.14.14,0,0,1,.22-.18l.36.42a.14.14,0,0,1,0,.2A.15.15,0,0,1,97.82,24.67Zm12.82-.22a.18.18,0,0,1-.1,0,.14.14,0,0,1,0-.2l.35-.43a.14.14,0,0,1,.19,0,.14.14,0,0,1,0,.2,5.07,5.07,0,0,1-.36.45A.12.12,0,0,1,110.64,24.45ZM96.8,23.34a.14.14,0,0,1-.12-.07c-.1-.16-.2-.32-.29-.49a.13.13,0,0,1,0-.19.14.14,0,0,1,.19.05c.09.16.19.32.29.48a.14.14,0,0,1,0,.19A.11.11,0,0,1,96.8,23.34Zm14.82-.26-.08,0a.15.15,0,0,1-.05-.19,4.67,4.67,0,0,0,.27-.49.16.16,0,0,1,.2-.06.17.17,0,0,1,.06.2l-.28.49A.14.14,0,0,1,111.62,23.08ZM96,21.85a.13.13,0,0,1-.13-.09,4.87,4.87,0,0,1-.21-.53.14.14,0,0,1,.08-.18.15.15,0,0,1,.19.09c.06.17.13.34.2.51a.15.15,0,0,1-.08.19Zm16.33-.28h0a.14.14,0,0,1-.08-.18c.07-.17.13-.35.19-.52a.13.13,0,0,1,.18-.09.15.15,0,0,1,.09.18c-.06.18-.13.36-.2.53A.13.13,0,0,1,112.35,21.57ZM95.49,20.25a.15.15,0,0,1-.14-.1l-.12-.56a.14.14,0,0,1,.12-.16.13.13,0,0,1,.16.11l.12.54a.14.14,0,0,1-.11.17ZM112.83,20h0a.16.16,0,0,1-.11-.17c0-.18.07-.36.1-.54a.15.15,0,0,1,.17-.12.14.14,0,0,1,.11.16c0,.19-.06.38-.1.56A.13.13,0,0,1,112.83,20ZM95.23,18.6a.15.15,0,0,1-.15-.13l0-.57a.15.15,0,0,1,.14-.15c.09,0,.15.06.15.14a4.93,4.93,0,0,0,0,.55.15.15,0,0,1-.13.16Zm17.82-.3h0a.14.14,0,0,1-.13-.15c0-.18,0-.37,0-.55v0a.14.14,0,0,1,.14-.14.15.15,0,0,1,.15.14v0c0,.2,0,.39,0,.57A.14.14,0,0,1,113.05,18.3ZM95.22,16.92h0a.15.15,0,0,1-.13-.15l.06-.57a.14.14,0,0,1,.28,0l-.06.55A.13.13,0,0,1,95.22,16.92ZM113,16.58a.14.14,0,0,1-.14-.12c0-.19,0-.37-.07-.55a.14.14,0,0,1,.12-.16.14.14,0,0,1,.16.11c0,.19.05.38.07.57a.13.13,0,0,1-.12.15ZM95.48,15.26h0a.16.16,0,0,1-.11-.18l.15-.54a.14.14,0,0,1,.18-.1.15.15,0,0,1,.09.18c-.05.17-.1.35-.14.53A.14.14,0,0,1,95.48,15.26Zm17.21-.33a.15.15,0,0,1-.14-.1,4.64,4.64,0,0,0-.16-.53.16.16,0,0,1,.09-.18.15.15,0,0,1,.18.09c.06.18.12.36.17.55a.15.15,0,0,1-.1.17ZM96,13.66h0a.13.13,0,0,1-.08-.18c.07-.18.15-.35.23-.52a.14.14,0,1,1,.26.12c-.08.17-.16.34-.23.51A.13.13,0,0,1,96,13.66Zm16.12-.3a.14.14,0,0,1-.13-.09l-.24-.49a.14.14,0,0,1,.06-.19.14.14,0,0,1,.19.06c.09.16.17.33.25.51a.14.14,0,0,1-.07.18ZM96.78,12.17a.11.11,0,0,1-.08,0,.13.13,0,0,1,0-.19c.1-.16.2-.32.31-.48a.15.15,0,0,1,.2,0,.14.14,0,0,1,0,.2l-.3.46A.16.16,0,0,1,96.78,12.17Zm14.52-.28a.14.14,0,0,1-.12-.06c-.11-.15-.21-.3-.33-.45a.14.14,0,0,1,0-.19.14.14,0,0,1,.2,0l.33.46a.14.14,0,0,1,0,.2A.13.13,0,0,1,111.3,11.89ZM97.79,10.84a.11.11,0,0,1-.09,0,.14.14,0,0,1,0-.2l.39-.41a.15.15,0,0,1,.2,0,.13.13,0,0,1,0,.2c-.13.13-.26.26-.38.4A.16.16,0,0,1,97.79,10.84Zm12.44-.25a.14.14,0,0,1-.1,0l-.39-.38a.13.13,0,0,1,0-.2.14.14,0,0,1,.2,0l.4.39a.13.13,0,0,1,0,.2A.13.13,0,0,1,110.23,10.59ZM99,9.7a.14.14,0,0,1-.11,0,.14.14,0,0,1,0-.2c.16-.12.31-.23.47-.33a.13.13,0,0,1,.19,0,.13.13,0,0,1,0,.19,5.15,5.15,0,0,0-.45.32ZM109,9.5a.11.11,0,0,1-.08,0c-.15-.11-.31-.21-.46-.3a.15.15,0,0,1,0-.2.15.15,0,0,1,.2-.05l.47.32a.13.13,0,0,1,0,.19A.13.13,0,0,1,109,9.5Zm-8.5-.68a.14.14,0,0,1-.07-.27c.17-.09.35-.17.52-.24a.15.15,0,0,1,.19.08.14.14,0,0,1-.08.18l-.5.23Zm7-.15h-.06l-.51-.21a.13.13,0,0,1-.08-.18.14.14,0,0,1,.18-.08c.18.06.36.14.53.21a.15.15,0,0,1,.07.19A.13.13,0,0,1,107.5,8.67ZM102,8.23a.14.14,0,0,1-.14-.11A.13.13,0,0,1,102,8l.55-.13a.15.15,0,0,1,.17.11.15.15,0,0,1-.11.17,5.23,5.23,0,0,0-.54.12Zm3.88-.08h0l-.54-.1a.14.14,0,1,1,0-.28l.56.11a.15.15,0,0,1,.11.17A.16.16,0,0,1,105.91,8.15ZM103.68,8a.14.14,0,0,1-.14-.14.15.15,0,0,1,.13-.15h.57a.14.14,0,0,1,.14.14.14.14,0,0,1-.14.14h-.11l-.44,0Z"/><ellipse class="cls-10" cx="104.13" cy="17.6" rx="7.88" ry="8.62"/><path class="cls-11" d="M97.36,17.6c0-4.56,3.23-8.28,7.32-8.6l-.55,0c-4.35,0-7.88,3.86-7.88,8.63s3.53,8.62,7.88,8.62l.55,0C100.59,25.88,97.36,22.16,97.36,17.6Z"/><path class="cls-11" d="M106.35,20.58a2.62,2.62,0,0,1-1.45.8v.52a.81.81,0,0,1-.19.54.66.66,0,0,1-.49.2.67.67,0,0,1-.5-.2.81.81,0,0,1-.19-.54v-.48a4.2,4.2,0,0,1-1.85-.69.79.79,0,0,1-.25-.27,1,1,0,0,1-.07-.39,1,1,0,0,1,.17-.56.49.49,0,0,1,.41-.23.66.66,0,0,1,.23,0,1.5,1.5,0,0,1,.3.16,3.43,3.43,0,0,0,.8.36,2.9,2.9,0,0,0,.79.11,1.3,1.3,0,0,0,.78-.19.63.63,0,0,0,.27-.56.47.47,0,0,0-.16-.37,1.4,1.4,0,0,0-.4-.23l-.69-.21a9.13,9.13,0,0,1-1.2-.41,2.18,2.18,0,0,1-.81-.65,1.89,1.89,0,0,1-.34-1.19,2.22,2.22,0,0,1,.54-1.49,2.68,2.68,0,0,1,1.44-.83v-.53a.74.74,0,0,1,.2-.53.64.64,0,0,1,.49-.21.66.66,0,0,1,.49.2.76.76,0,0,1,.19.54v.5a4,4,0,0,1,1.58.67.92.92,0,0,1,.25.28,1.07,1.07,0,0,1,.07.38.89.89,0,0,1-.18.56.48.48,0,0,1-.41.23.57.57,0,0,1-.22,0,2.34,2.34,0,0,1-.31-.16l-.3-.18a2.87,2.87,0,0,0-.51-.21,2,2,0,0,0-.57-.08,1.13,1.13,0,0,0-.71.21.67.67,0,0,0-.27.56.54.54,0,0,0,.31.51,4.09,4.09,0,0,0,1,.34,7.07,7.07,0,0,1,1.18.39,1.87,1.87,0,0,1,1.13,1.85A2.16,2.16,0,0,1,106.35,20.58Z"/><path class="cls-18" d="M108.41,43.67h0l3-1.47a.56.56,0,0,1,.54-.05,1.88,1.88,0,0,0,1.53-.06h0c.11,0,.12,0,.12,0v1.3c0,.19-.15.57-.94.58l-4.27,0C108.18,44.05,107.76,44,108.41,43.67Z"/><path class="cls-16" d="M122.55,24.43l-4.37-.86-2.78,3.72a9,9,0,0,0-1.63,3l-.18.93h0l-2.11,10.92a1.54,1.54,0,0,0,2.15.54l3.07-9.52h0l.13-.42a4.06,4.06,0,0,1,.88-1.31c.73-.8,1.84-2,2.18-2.28,1.91-1.66,1-1.61,1-1.61l-1.08-1.33C121.3,24.36,122.55,24.43,122.55,24.43Z"/><path class="cls-18" d="M120,51.56h0l3-1.43a.61.61,0,0,1,.55,0,1.88,1.88,0,0,0,1.53,0h0c.1,0,.12,0,.12,0l0,1.31c0,.19-.15.57-.94.56l-4.28,0C119.77,51.93,119.35,51.87,120,51.56Z"/><path class="cls-9" d="M125.13,23.87l-2.11.45-.21-1.1-4.63.35c-.31,1.8,3.66,12.73,4.85,23.61l.23,2.86a1.42,1.42,0,0,0,2,.06C125,48.49,125.13,23.87,125.13,23.87Z"/><path class="cls-4" d="M119.66,9.65c.22-.52.46-1.43,0-1.84s-4-.57-2.89-5.12c.34-1.45.77-1.82,1.19-1.66a2.46,2.46,0,0,1,3.5.22c1.33,1.48,2.21,2,1.82,4s-1.67,2.34-1.08,3.49c0,0,3.82,6.83,3.31,12.2a18.43,18.43,0,0,1-.38,2.92c-1.52.64-5,1.75-6.95-.3a5.4,5.4,0,0,0,0-2.89c-.52-1.94-2-3.91-.81-6.86A41.51,41.51,0,0,1,119.66,9.65Z"/><path class="cls-17" d="M118.6,14.31c-4,5.29-10.66,5.86-11.91,5.92a.53.53,0,0,1-.33-.07h0c-.36-.22-.88-.34-1-.2s.36.33.36.33c-.41-.07-.91.57-.41.88a1,1,0,0,0,1-.06h0a.66.66,0,0,1,.33-.06h0c1.36.15,9.53.73,13.87-5.46Z"/><path class="cls-3" d="M120.71,11.18c-.63.19-1.35,1.4-2.54,2.87h0A2.4,2.4,0,0,0,121,15.79a14.66,14.66,0,0,0,1.24-2.11C122.74,12.53,122.38,10.65,120.71,11.18Z"/><path class="cls-17" d="M119.76,9.38a4.37,4.37,0,0,0,2.53-.46l-.09-.17c-.59-1.15.68-1.47,1.08-3.49s-.49-2.53-1.82-4A2.46,2.46,0,0,0,118,1c-.42-.16-.85.21-1.19,1.66-1.08,4.55,2.44,4.7,2.89,5.12S119.94,8.86,119.76,9.38Z"/><path class="cls-18" d="M122.55,7.53c-.29.46-1.26-.09-1.26-1.83s-.94-3-2-2.88-2.58,1.24-3-.15,1-3,3.3-2.62S125.46,2.85,122.55,7.53Z"/><polygon class="cls-16" points="110.55 41.02 109.77 41.02 110.7 44.95 111.48 44.95 110.55 41.02"/></g></g></svg>