<svg xmlns="http://www.w3.org/2000/svg" viewBox="0 0 24.27 24.45"><defs><style>.cls-1{fill:#253d8f;}</style></defs><title>power</title><g id="Layer_2" data-name="Layer 2"><g id="Layer_1-2" data-name="Layer 1"><path class="cls-1" d="M12.13,24.45A12.14,12.14,0,0,1,4.27,3.07a1,1,0,0,1,1.41.12A1,1,0,0,1,5.56,4.6a10.14,10.14,0,1,0,16.71,7.71,9.79,9.79,0,0,0-3.75-7.7,1,1,0,0,1,1.26-1.55,11.78,11.78,0,0,1,4.49,9.25A12.16,12.16,0,0,1,12.13,24.45Z"/><path class="cls-1" d="M12.13,13.67a1,1,0,0,1-1-1V1a1,1,0,0,1,2,0V12.67A1,1,0,0,1,12.13,13.67Z"/></g></g></svg>