<svg xmlns="http://www.w3.org/2000/svg" viewBox="0 0 7.39 6.87"><defs><style>.cls-1{fill:#999;}</style></defs><title>review-g</title><g id="Layer_2" data-name="Layer 2"><g id="Layer_1-2" data-name="Layer 1"><path class="cls-1" d="M6.91,2.74H5.7V.61A.61.61,0,0,0,5.09,0H.61A.61.61,0,0,0,0,.61V4a.6.6,0,0,0,.61.6h.47L1.41,6a.24.24,0,0,0,.17.17h0a.25.25,0,0,0,.18-.08L3,4.64h.61v.8a.47.47,0,0,0,.47.47H5.5l.69.88a.25.25,0,0,0,.17.08h0a.23.23,0,0,0,.16-.17l.19-.79h.15a.48.48,0,0,0,.48-.47V3.21A.48.48,0,0,0,6.91,2.74ZM2.58,4.3,1.66,5.4l-.25-1a.23.23,0,0,0-.22-.17H.58a.16.16,0,0,1-.16-.16V.79A.16.16,0,0,1,.58.63H5.11a.17.17,0,0,1,.17.16V4.06a.17.17,0,0,1-.17.16H2.75A.21.21,0,0,0,2.58,4.3ZM7,5.46s0,0,0,0H6.5a.21.21,0,0,0-.21.16l-.13.48-.52-.57a.2.2,0,0,0-.16-.07H3.82s0,0,0,0V4.64H5.09A.6.6,0,0,0,5.7,4V3.17H6.94l0,0Z"/><path class="cls-1" d="M3.58,3.62a.19.19,0,0,1-.1,0l-.61-.32-.61.32a.21.21,0,0,1-.23,0,.22.22,0,0,1-.09-.21l.12-.68-.5-.48A.22.22,0,0,1,1.51,2a.2.2,0,0,1,.18-.15l.68-.1.3-.61A.23.23,0,0,1,2.87,1a.22.22,0,0,1,.2.13l.3.61.68.1A.2.2,0,0,1,4.23,2a.22.22,0,0,1-.05.23l-.49.48.11.68a.2.2,0,0,1-.09.21A.21.21,0,0,1,3.58,3.62ZM2.2,2.2l.25.24a.21.21,0,0,1,.06.2L2.45,3l.32-.17a.23.23,0,0,1,.2,0L3.29,3l-.06-.35a.21.21,0,0,1,.06-.2l.25-.24-.35-.05A.23.23,0,0,1,3,2l-.16-.31L2.71,2a.23.23,0,0,1-.16.13Z"/></g></g></svg>