<svg xmlns="http://www.w3.org/2000/svg" viewBox="0 0 48.86 32.97"><defs><style>.cls-1{fill:#3fa9f5;}.cls-2{fill:#253d8f;}</style></defs><title>s-balance</title><g id="Layer_2" data-name="Layer 2"><g id="Layer_1-2" data-name="Layer 1"><circle class="cls-1" cx="24.45" cy="16.52" r="12.61"/><path class="cls-2" d="M8.16,28.05H7.37A1.25,1.25,0,0,1,6.12,26.8V16A6.57,6.57,0,0,1,0,9.09,6.89,6.89,0,0,1,6.88,2.2h7.45L14.24.42A.4.4,0,0,1,14.47,0a.4.4,0,0,1,.44.07l5.31,4.94a.39.39,0,0,1,.13.28.38.38,0,0,1-.12.29l-4.94,5a.42.42,0,0,1-.43.09.4.4,0,0,1-.25-.36l-.07-1.91H6.92V26.8a.46.46,0,0,0,.45.46h.79a.39.39,0,0,1,.4.39A.4.4,0,0,1,8.16,28.05ZM6.88,3A6.1,6.1,0,0,0,.79,9.09a5.81,5.81,0,0,0,5.33,6.08V8a.4.4,0,0,1,.4-.4h8.41a.39.39,0,0,1,.39.39l0,1.38,4-4-4.3-4,.06,1.23a.38.38,0,0,1-.11.3.43.43,0,0,1-.29.12Z"/><path class="cls-2" d="M12.92,28.13H11.2a.4.4,0,1,1,0-.8h1.72a.4.4,0,0,1,0,.8Z"/><path class="cls-2" d="M17.18,28.13H15.11a.4.4,0,0,1,0-.8h2.07a.4.4,0,0,1,0,.8Z"/><path class="cls-2" d="M26.44,28.13H19a.4.4,0,0,1,0-.8h7.49a.4.4,0,0,1,0,.8Z"/><path class="cls-2" d="M42.34,25.27a.4.4,0,0,1-.4-.4V6.21c0-.4-.26-.74-.56-.74a.4.4,0,0,1,0-.8,1.46,1.46,0,0,1,1.36,1.54V24.87A.4.4,0,0,1,42.34,25.27Z"/><path class="cls-2" d="M29.73,5.43H22.05a.36.36,0,1,1,0-.72h7.68a.36.36,0,0,1,0,.72Z"/><path class="cls-2" d="M34.66,5.43H32.47a.36.36,0,0,1,0-.72h2.19a.36.36,0,1,1,0,.72Z"/><path class="cls-2" d="M37,5.43h-.37a.36.36,0,0,1,0-.72H37a.36.36,0,0,1,0,.72Z"/><path class="cls-2" d="M38.87,5.43H38.5a.36.36,0,1,1,0-.72h.37a.36.36,0,0,1,0,.72Z"/><path class="cls-2" d="M34.22,33a.39.39,0,0,1-.27-.11l-5.31-4.94a.41.41,0,0,1-.13-.29.38.38,0,0,1,.12-.28l4.94-5a.4.4,0,0,1,.43-.09.42.42,0,0,1,.25.36l.07,1.91h8a.4.4,0,0,1,.4.4.39.39,0,0,1-.4.39H33.93a.4.4,0,0,1-.4-.38l0-1.38-4,4,4.29,4-.05-1.23a.38.38,0,0,1,.11-.3.42.42,0,0,1,.28-.12H42a6.09,6.09,0,0,0,6.09-6.09,5.79,5.79,0,0,0-5.72-6.09.4.4,0,0,1-.4-.4.39.39,0,0,1,.4-.39,6.56,6.56,0,0,1,6.52,6.88A6.9,6.9,0,0,1,42,30.77H34.53l.08,1.78a.39.39,0,0,1-.23.38A.32.32,0,0,1,34.22,33Z"/><path class="cls-2" d="M23.28,21.19a.53.53,0,0,1-.11-.36v-.55h-1.4a.51.51,0,0,1-.38-.12.49.49,0,0,1-.12-.36V13.27a.49.49,0,0,1,.12-.36.51.51,0,0,1,.38-.12h1.4v-.56a.53.53,0,0,1,.11-.37.49.49,0,0,1,.38-.12h.69a.54.54,0,0,1,.39.12.51.51,0,0,1,.12.37v.56a3.3,3.3,0,0,1,1.87.47,1.83,1.83,0,0,1,.69,1.62,1.71,1.71,0,0,1-.25.93,1.4,1.4,0,0,1-.67.58,1.59,1.59,0,0,1,1.13,1.67,2,2,0,0,1-.73,1.69,3.46,3.46,0,0,1-2,.53v.55a.41.41,0,0,1-.15.38,1,1,0,0,1-.54.1h-.51A.49.49,0,0,1,23.28,21.19Zm1.41-5.37a1,1,0,0,0,.68-.22.83.83,0,0,0,.25-.64.83.83,0,0,0-.23-.65,1.1,1.1,0,0,0-.7-.19h-1.6v1.7ZM24.87,19a.85.85,0,0,0,.95-.94.91.91,0,0,0-.27-.71,1.13,1.13,0,0,0-.77-.24H23.09V19Z"/></g></g></svg>