<svg xmlns="http://www.w3.org/2000/svg" viewBox="0 0 89.93 56.71"><defs><style>.cls-1{fill:#fff;}.cls-2{fill:#e6e6e6;}.cls-3{fill:#253d8f;}</style></defs><title>s-group</title><g id="Layer_2" data-name="Layer 2"><g id="Layer_1-2" data-name="Layer 1"><path class="cls-1" d="M80.21,33.14a9.05,9.05,0,0,1-.83.81,9.64,9.64,0,0,1-13.56-.85h0a8,8,0,0,0-3.11,1,12.06,12.06,0,0,1,1.35,5.55V49H87V41A8,8,0,0,0,80.21,33.14Z"/><path class="cls-1" d="M23.53,34A9.61,9.61,0,0,1,10,33.1,8,8,0,0,0,2.9,41v8h23V39.67a12,12,0,0,1,1.33-5.53,8,8,0,0,0-2.84-1A9.05,9.05,0,0,1,23.53,34Z"/><path class="cls-2" d="M29.23,37.93V49.19H.73V47.83H25.17a1.05,1.05,0,0,0,1.09-1V36.57a7.21,7.21,0,0,0-3.09-5.84A7.59,7.59,0,0,1,29.23,37.93Z"/><path class="cls-2" d="M87.65,38.62V49.19H59.15V47.91H83.59A1,1,0,0,0,84.67,47V37.34a6.68,6.68,0,0,0-3.08-5.48C85.12,32.66,87.65,35.41,87.65,38.62Z"/><path class="cls-1" d="M17,26.93A6.89,6.89,0,0,0,23.93,20V15.87h0a6.89,6.89,0,0,0-13.78,0V20h0A6.89,6.89,0,0,0,17,26.93Z"/><path class="cls-2" d="M25,15.49v4.77a8.11,8.11,0,0,1-13.32,6.15,8,8,0,0,0,1.77.2,8.09,8.09,0,0,0,8.15-8V13.78a8.09,8.09,0,0,0-2.87-6.14A8.09,8.09,0,0,1,25,15.49Z"/><path class="cls-1" d="M72.88,26.93A6.89,6.89,0,0,0,79.77,20V15.87h0a6.89,6.89,0,1,0-13.78,0V20h0A6.89,6.89,0,0,0,72.88,26.93Z"/><path class="cls-2" d="M80.57,15.49v4.77a8.11,8.11,0,0,1-13.32,6.15,8,8,0,0,0,1.77.2,8.09,8.09,0,0,0,8.15-8V13.78A8.06,8.06,0,0,0,74.3,7.64,8.09,8.09,0,0,1,80.57,15.49Z"/><path class="cls-1" d="M44.8,23.78a8.1,8.1,0,0,0,8.14-8.06V11a8.1,8.1,0,0,0-16.2,0v4.77A8.11,8.11,0,0,0,44.8,23.78Z"/><path class="cls-1" d="M53.11,30.51a10.7,10.7,0,0,1-16.2,0,9.38,9.38,0,0,0-8.39,9.26V53.81H61.16V39.73A9.33,9.33,0,0,0,53.11,30.51Z"/><path class="cls-3" d="M73.08,29.83A9.79,9.79,0,0,0,82.67,20v-4a10,10,0,0,0-10-10,9.8,9.8,0,0,0-9.59,9.79v4A10,10,0,0,0,73.08,29.83ZM66,20V15.87a6.89,6.89,0,1,1,13.78,0h0V20A6.89,6.89,0,1,1,66,20Z"/><path class="cls-3" d="M44.89,26.67a11,11,0,0,0,11-11V11a11,11,0,0,0-22,0v4.77A11,11,0,0,0,44.89,26.67ZM36.74,11a8.1,8.1,0,0,1,16.2,0v4.77a8.1,8.1,0,0,1-16.2,0Z"/><path class="cls-3" d="M79.75,30.17a1.71,1.71,0,0,0-1.5.83,6.65,6.65,0,0,1-9.36.93,6.76,6.76,0,0,1-1.14-1.19,1.46,1.46,0,0,0-1.2-.59,10.83,10.83,0,0,0-5.34,1.56,12.2,12.2,0,0,0-8.51-4.22,1.75,1.75,0,0,0-1.49.87,7.81,7.81,0,0,1-11,1.1,7.67,7.67,0,0,1-1.33-1.4,1.46,1.46,0,0,0-1.21-.59,12.09,12.09,0,0,0-8.42,3.68c-.18.18-.36.38-.53.57a10.78,10.78,0,0,0-4.94-1.55,1.7,1.7,0,0,0-1.5.83,6.65,6.65,0,0,1-9.36.93,6.76,6.76,0,0,1-1.14-1.19,1.46,1.46,0,0,0-1.2-.59A10.87,10.87,0,0,0,0,41v9.41a1.45,1.45,0,0,0,1.45,1.45H25.62v3.38a1.44,1.44,0,0,0,1.45,1.45H62.61a1.45,1.45,0,0,0,1.45-1.46V51.88H88.48a1.45,1.45,0,0,0,1.45-1.45V41A10.88,10.88,0,0,0,79.75,30.17Zm-53.88,9.5V49H2.9V41A8,8,0,0,1,10,33.1,9.61,9.61,0,0,0,23.53,34a9.05,9.05,0,0,0,.83-.81,8,8,0,0,1,2.84,1A12,12,0,0,0,25.87,39.67ZM61.16,53.81H28.52V39.73a9.38,9.38,0,0,1,8.39-9.26,10.7,10.7,0,0,0,16.2,0,9.33,9.33,0,0,1,8,9.22ZM87,49h-23V39.67a12.06,12.06,0,0,0-1.35-5.55,8,8,0,0,1,3.11-1h0A9.64,9.64,0,0,0,79.38,34a9.05,9.05,0,0,0,.83-.81A8,8,0,0,1,87,41Z"/><path class="cls-3" d="M17.24,29.83A9.79,9.79,0,0,0,26.83,20v-4a10,10,0,0,0-10-10,9.8,9.8,0,0,0-9.59,9.79v4A10,10,0,0,0,17.24,29.83ZM10.15,20V15.87a6.89,6.89,0,0,1,13.78,0h0V20a6.89,6.89,0,0,1-13.78,0Z"/><path class="cls-2" d="M52.94,11v4.77a8.1,8.1,0,0,1-13.32,6.15,8.65,8.65,0,0,0,1.77.21A8.11,8.11,0,0,0,49.54,14V9.25A8.1,8.1,0,0,0,46.67,3.1,8.09,8.09,0,0,1,52.94,11Z"/><path class="cls-2" d="M61.16,39.73V53.81H28.52v-1.7h28a1.24,1.24,0,0,0,1.24-1.24V38a9.3,9.3,0,0,0-3.53-7.3A9.31,9.31,0,0,1,61.16,39.73Z"/></g></g></svg>