<svg xmlns="http://www.w3.org/2000/svg" viewBox="0 0 77.14 70"><defs><style>.cls-1{fill:#fff;}.cls-2{fill:#e6e6e6;}.cls-3{fill:#253d8f;}</style></defs><title>s-history</title><g id="Layer_2" data-name="Layer 2"><g id="Layer_1-2" data-name="Layer 1"><circle class="cls-1" cx="42.5" cy="34.87" r="31.5"/><path class="cls-2" d="M42.61,43.62a2.75,2.75,0,0,1-1.12-.24L27.05,37.11a2.83,2.83,0,1,1,2.25-5.19L42,37.43,56.32,23.1a2.82,2.82,0,0,1,4,4l-15.7,15.7A2.82,2.82,0,0,1,42.61,43.62Z"/><path class="cls-2" d="M74,34.87A31.5,31.5,0,0,1,19.66,56.56,31.49,31.49,0,0,0,60.43,9,31.44,31.44,0,0,1,74,34.87Z"/><path class="cls-3" d="M42.14,0a35,35,0,0,0-35,34.9A40.63,40.63,0,0,0,8.4,45.76L3.68,43a2.45,2.45,0,0,0-2.47,4.23l11.05,6.45.07,0a2.39,2.39,0,0,0,.37.15A1.25,1.25,0,0,0,13,54l.32,0c.08,0,.15,0,.23,0l.12,0h.12l.18,0a2.09,2.09,0,0,0,.34-.08l.28-.11a1.69,1.69,0,0,0,.29-.17,1.44,1.44,0,0,0,.25-.18,2.72,2.72,0,0,0,.24-.24,2.23,2.23,0,0,0,.19-.24s.08-.09.11-.14,0-.08,0-.12.08-.12.11-.19L20.16,41.6a2.44,2.44,0,1,0-4.53-1.83l-2.26,5.59A36,36,0,0,1,12,35a30.1,30.1,0,1,1,30.1,30.1,2.45,2.45,0,0,0,0,4.9,35,35,0,0,0,0-70ZM41.2,39.71a2.58,2.58,0,0,0,.77.16c.06,0,.11,0,.16,0a2.66,2.66,0,0,0,.84-.16l.21-.11a2.27,2.27,0,0,0,.56-.37.91.91,0,0,0,.13-.08L59.16,23.89a2.45,2.45,0,0,0-3.46-3.47L41.56,34.55,28.88,29.24A2.45,2.45,0,0,0,27,33.76l14.2,6Z"/></g></g></svg>