<svg xmlns="http://www.w3.org/2000/svg" viewBox="0 0 69.99 70"><defs><style>.cls-1{fill:#e6e6e6;}.cls-2{fill:#253d8f;}</style></defs><title>s-order</title><g id="Layer_2" data-name="Layer 2"><g id="Layer_1-2" data-name="Layer 1"><path class="cls-1" d="M19.35,12.19s2.86,2.55,4.86,4.55c.17.17-.18.82,0,1l7,7,2-1-6-7v-2l-7-5-1,2Z"/><path class="cls-1" d="M38.78,29.87,50.21,41.74s2,4-4,4l3.5,1.5,2-2,1-2v-3l-1-2-2-2-9-9L37.9,29.43Z"/><path class="cls-1" d="M53.21,15.74s-2,12-13.21,8.2a1.3,1.3,0,0,0-1.35.39L20.21,42.74s-2,2-3-1v3l1.43.72a2.75,2.75,0,0,0,1.2.28h.79a1.39,1.39,0,0,0,1-.41l.6-.59L39.68,27.26a1.42,1.42,0,0,1,1.26-.38l3.7.75a1.43,1.43,0,0,0,1-.21l2.52-1.68L50.81,24a1.38,1.38,0,0,0,.55-.71l.82-2.46a1.34,1.34,0,0,1,.07-.18l1-1.91S55.21,15.74,53.21,15.74Z"/><path class="cls-1" d="M60.73,49.74H35.86a5.18,5.18,0,0,0-5.11,4.17c-1,5.32-4.23,13.83-14.54,13.83v1l5.81-1a2.49,2.49,0,0,0,.37-.09l5.33-1.78a2.31,2.31,0,0,0,.9-.54c1.25-1.15,4.9-4.84,5.86-9.11a2.49,2.49,0,0,1,2.46-2l23.75.41a2.47,2.47,0,0,0,2.52-2.47h0A2.48,2.48,0,0,0,60.73,49.74Z"/><path class="cls-1" d="M68.21,7.24v41A6.51,6.51,0,0,1,58.71,54a6.51,6.51,0,0,0,3.5-5.77v-41a6.51,6.51,0,0,0-1.9-4.6,6.86,6.86,0,0,0-1.6-1.17,6.5,6.5,0,0,1,9.5,5.77Z"/><path class="cls-2" d="M54,13.5a1.15,1.15,0,0,0-.85-.69,1.19,1.19,0,0,0-1,.32L46.28,19H42.91v-3.4l5.86-5.91a1.16,1.16,0,0,0,.32-1.05,1.18,1.18,0,0,0-.69-.84A10.65,10.65,0,0,0,34.18,21.09l-.69.7L28.34,16.6l0,0a1.3,1.3,0,0,0,.22-.29,1.18,1.18,0,0,0-.33-1.45L20.72,9a1.16,1.16,0,0,0-1.55.09l-3.35,3.36A1.17,1.17,0,0,0,15.73,14l5.86,7.58a1.18,1.18,0,0,0,.85.45,1.16,1.16,0,0,0,.9-.36l5.15,5.18L16.63,38.71a4.76,4.76,0,0,0,0,6.69,4.66,4.66,0,0,0,6.68,0L33.48,35.18,44.29,46a5.9,5.9,0,1,0,8.34-8.36l-9.34-9.39A10.66,10.66,0,0,0,54,13.5ZM24.17,19.17a1.2,1.2,0,0,0-1.55-.1l-4.43-5.72,1.9-1.9,5.69,4.44a1.62,1.62,0,0,0-.1.18.84.84,0,0,0-.13.44c-.08.75-.08.54,6.28,6.94l-1.7,1.71ZM21.66,43.8a2.39,2.39,0,1,1-3.36-3.4l15.9-16,0-.05c.26-.23-.64.67,2.09-2.1A1.17,1.17,0,0,0,36.58,21,8.34,8.34,0,0,1,45.71,9.48l-4.83,4.87a1.2,1.2,0,0,0-.33.82v5a1.16,1.16,0,0,0,1.16,1.16h5a1.13,1.13,0,0,0,.82-.34l4.82-4.85A8.3,8.3,0,0,1,41,25.38a1.15,1.15,0,0,0-1.28.25l-2,2.06-5,5-11,11.06Zm29.3.61a3.63,3.63,0,0,1-5,0L35.11,33.55l5-5.08L51,39.33a3.6,3.6,0,0,1,0,5.07ZM61.82,0H8.17A8.18,8.18,0,0,0,0,8.16V47.8A8.17,8.17,0,0,0,8.17,56h11.7c0,2.08-.45,6.83-4.19,9.89A2.33,2.33,0,0,0,17.28,70c5.77-.4,15.7-2.79,18.61-14H61.82A8.17,8.17,0,0,0,70,47.8V8.16A8.18,8.18,0,0,0,61.82,0Zm5.94,47.82a5.83,5.83,0,0,1-5.82,5.82c-28.32,0-26.82,0-27.16.07a1.09,1.09,0,0,0-.65.54,2.84,2.84,0,0,0-.14.32C31.73,65.13,22.55,67.32,17.32,67.66c5.82-4.78,5-12.65,5-13,0,0-.1-.33-.12-.38a2.11,2.11,0,0,0-.26-.35c-.47-.42.17-.31-13.6-.31A5.83,5.83,0,0,1,2.5,47.82V8.19A5.83,5.83,0,0,1,8.33,2.36H61.94a5.83,5.83,0,0,1,5.82,5.83ZM8.26,4.58H7.1a1.2,1.2,0,0,0-1.17.9A1.19,1.19,0,0,0,7.08,6.94H8.24a1.18,1.18,0,1,0,0-2.36Zm10.5,0H12.9a1.2,1.2,0,0,0-1.17.9,1.18,1.18,0,0,0,1.15,1.46h5.9a1.18,1.18,0,0,0,1.15-1.46A1.19,1.19,0,0,0,18.76,4.58Zm33.79,44.3H51.39a1.18,1.18,0,1,0,0,2.36h1.16a1.19,1.19,0,0,0,1.17-.9A1.18,1.18,0,0,0,52.55,48.88Zm10.52,0H57.19a1.18,1.18,0,1,0,0,2.36h5.88a1.19,1.19,0,0,0,1.17-.9A1.18,1.18,0,0,0,63.07,48.88Z"/></g></g></svg>