<svg xmlns="http://www.w3.org/2000/svg" viewBox="0 0 53.49 70"><defs><style>.cls-1{fill:#fff;}.cls-2{fill:#e6e6e6;}.cls-3{fill:#253d8f;}</style></defs><title>s-report</title><g id="Layer_2" data-name="Layer 2"><g id="Layer_1-2" data-name="Layer 1"><path class="cls-1" d="M52.68,12.42a6,6,0,0,0-1.76-4.27L45.27,2.47A6.09,6.09,0,0,0,41,.7h-.34V12.76h12Z"/><path class="cls-2" d="M49,6.21s5,6.3-8,6.3H53S53,8.91,49,6.21Z"/><path class="cls-1" d="M36.09,14.84V1.39H6.7A5.34,5.34,0,0,0,1.37,6.73V63.28A5.35,5.35,0,0,0,6.7,68.63h40a5.4,5.4,0,0,0,5.39-5.4V17.47H38.71A2.62,2.62,0,0,1,36.09,14.84Zm5,39.16H12.38a1.38,1.38,0,0,1,0-2.75H41.12a1.38,1.38,0,0,1,0,2.75Zm0-7H12.38a1.37,1.37,0,0,1,0-2.74H41.12a1.37,1.37,0,0,1,0,2.74Zm0-7H12.38a1.37,1.37,0,0,1,0-2.74H41.12a1.37,1.37,0,0,1,0,2.74Zm1.37-8.37A1.37,1.37,0,0,1,41.12,33H12.38a1.37,1.37,0,1,1,0-2.74H41.12A1.37,1.37,0,0,1,42.49,31.63Z"/><path class="cls-2" d="M52.06,17.94a1.49,1.49,0,0,0-1.47-1.44H49.21a1.5,1.5,0,0,0-.37,0l-.82,0H45.69v.14L38.22,17c-.45,0-.86-1.2-1.18-1.52a1.72,1.72,0,0,1-.51-1.24V.81a.71.71,0,0,0-.79-.7L30.63,1V17.78A3.23,3.23,0,0,0,33.86,21H44.22a1.47,1.47,0,0,1,1.47,1.48V61.41a1,1,0,0,1,0,.18c-.1.83-1.13,7-7.65,7.91h8.84a1.32,1.32,0,0,0,.34,0c1-.23,5.82-1.68,5.82-8Z"/><path class="cls-3" d="M53.38,13.46H40V0h1a6.76,6.76,0,0,1,4.77,2l5.66,5.69a6.72,6.72,0,0,1,2,4.76Zm-12-1.4H52a5.3,5.3,0,0,0-1.54-3.42L44.77,3a5.47,5.47,0,0,0-3.42-1.55Z"/><path class="cls-3" d="M52.81,16.09H38.71a1.25,1.25,0,0,1-1.25-1.25V.7A.69.69,0,0,0,36.77,0H6.7A6.72,6.72,0,0,0,0,6.73V63.28A6.72,6.72,0,0,0,6.7,70h40a6.77,6.77,0,0,0,6.75-6.77V16.78A.68.68,0,0,0,52.81,16.09Zm-.68,47.14a5.4,5.4,0,0,1-5.39,5.4H6.7a5.35,5.35,0,0,1-5.33-5.35V6.73A5.34,5.34,0,0,1,6.7,1.39H36.09V14.84a2.62,2.62,0,0,0,2.62,2.63H52.13Z"/><path class="cls-3" d="M11,31.63A1.37,1.37,0,0,0,12.38,33H41.12a1.37,1.37,0,1,0,0-2.74H12.38A1.37,1.37,0,0,0,11,31.63Z"/><path class="cls-3" d="M41.12,37.26H12.38a1.37,1.37,0,0,0,0,2.74H41.12a1.37,1.37,0,0,0,0-2.74Z"/><path class="cls-3" d="M41.12,44.26H12.38a1.37,1.37,0,0,0,0,2.74H41.12a1.37,1.37,0,0,0,0-2.74Z"/><path class="cls-3" d="M41.12,51.25H12.38a1.38,1.38,0,0,0,0,2.75H41.12a1.38,1.38,0,0,0,0-2.75Z"/></g></g></svg>