<svg xmlns="http://www.w3.org/2000/svg" viewBox="0 0 73.54 70"><defs><style>.cls-1{fill:#fff;}.cls-2{fill:#e6e6e6;}.cls-3{fill:#253d8f;}</style></defs><title>s-star</title><g id="Layer_2" data-name="Layer 2"><g id="Layer_1-2" data-name="Layer 1"><path class="cls-1" d="M46.83,23.86,36.77,3.47,26.71,23.86a1.06,1.06,0,0,1-.81.59L3.4,27.72,19.68,43.58a1.1,1.1,0,0,1,.31,1l-3.84,22.4L36.27,56.37a1,1,0,0,1,1,0L57.39,66.94l-3.84-22.4a1.1,1.1,0,0,1,.31-1L70.14,27.72l-22.5-3.27A1.08,1.08,0,0,1,46.83,23.86Z"/><polygon class="cls-2" points="36.62 1.3 36.62 34.9 47.82 23.7 36.62 1.3"/><polygon class="cls-2" points="36.62 34.9 72.32 27.2 54.82 44.7 36.62 34.9"/><polygon class="cls-2" points="36.62 34.9 58.32 68.5 36.62 57.3 36.62 34.9"/><polygon class="cls-2" points="36.62 34.9 15.62 68.5 19.12 44.7 36.62 34.9"/><polygon class="cls-2" points="2.32 27.2 36.62 34.9 25.42 23 2.32 27.2"/><path class="cls-3" d="M72.62,25.89l-24.1-3.5L37.74.55a1.13,1.13,0,0,0-1.94,0L25,22.39.92,25.89a1.08,1.08,0,0,0-.59,1.85l17.43,17-4.11,24a1.06,1.06,0,0,0,.43,1.05,1.07,1.07,0,0,0,1.14.09L36.77,58.54,58.33,69.88a1.08,1.08,0,0,0,.5.12,1,1,0,0,0,.63-.21,1.06,1.06,0,0,0,.43-1.05l-4.11-24,17.43-17a1.07,1.07,0,0,0,.28-1.11A1.1,1.1,0,0,0,72.62,25.89ZM53.86,43.58a1.1,1.1,0,0,0-.31,1l3.84,22.4L37.27,56.37a1,1,0,0,0-1,0L16.15,66.94,20,44.54a1.1,1.1,0,0,0-.31-1L3.4,27.72l22.5-3.27a1.06,1.06,0,0,0,.81-.59L36.77,3.47,46.83,23.86a1.08,1.08,0,0,0,.81.59l22.5,3.27Z"/></g></g></svg>