<svg xmlns="http://www.w3.org/2000/svg" viewBox="0 0 37.36 37.36"><defs><style>.cls-1{fill:#f2f2f2;}.cls-2{fill:#fff;}.cls-3{fill:#e6e6e6;}.cls-4{fill:#999;}</style></defs><title>s-wallet-w</title><g id="Layer_2" data-name="Layer 2"><g id="Layer_1-2" data-name="Layer 1"><circle class="cls-1" cx="18.68" cy="18.68" r="18.68"/><path class="cls-2" d="M25.05,13,22.73,8.8a.43.43,0,0,0-.57-.16L14.38,13Z"/><path class="cls-3" d="M27.58,13a1.25,1.25,0,0,0-1.24-1.11H25.4L26,13Z"/><path class="cls-2" d="M21.91,20.7v-.19a2.58,2.58,0,0,1,2.59-2.58h3.09V13.81H10.2a.41.41,0,0,1-.41-.51.42.42,0,0,1,.42-.33H12.6l2-1.11H9.92a1.25,1.25,0,0,0-1.26,1.25v14.4a1.26,1.26,0,0,0,1.26,1.26H26.33a1.26,1.26,0,0,0,1.26-1.26V23.28H24.5A2.59,2.59,0,0,1,21.91,20.7Z"/><path class="cls-2" d="M24.51,18.78a1.74,1.74,0,0,0-1.75,1.74v.17a1.74,1.74,0,0,0,1.75,1.74h4.13V18.78H24.51Zm.38,2.81a.93.93,0,1,1,.93-.93A.93.93,0,0,1,24.89,21.59Z"/><path class="cls-4" d="M24.89,19.74a.93.93,0,1,0,.93.92A.93.93,0,0,0,24.89,19.74Z"/><path class="cls-4" d="M28.44,13.11a2.1,2.1,0,0,0-2.1-2.1H24.93L23.47,8.39a1.25,1.25,0,0,0-1.09-.65,1.33,1.33,0,0,0-.62.16L16.19,11H10a2.1,2.1,0,0,0-2.1,2.1V27.52A2.1,2.1,0,0,0,10,29.61H26.34a2.1,2.1,0,0,0,2.1-2.09V23.28h1V17.93h-1Zm-2.1-1.25A1.25,1.25,0,0,1,27.58,13H26l-.61-1.11ZM22.16,8.64a.43.43,0,0,1,.57.16L25.05,13H14.38Zm5.43,18.87a1.26,1.26,0,0,1-1.26,1.26H9.92a1.26,1.26,0,0,1-1.26-1.26V13.11a1.25,1.25,0,0,1,1.26-1.25h4.67L12.6,13H10.21a.42.42,0,0,0-.42.33.41.41,0,0,0,.41.51H27.59v4.12H24.5a2.58,2.58,0,0,0-2.59,2.58v.19a2.59,2.59,0,0,0,2.59,2.58h3.09Zm1.05-8.73v3.65H24.51a1.74,1.74,0,0,1-1.75-1.74v-.17a1.74,1.74,0,0,1,1.75-1.74h4.13Z"/><path class="cls-3" d="M27.59,13.82v4.11H24.5a2.58,2.58,0,0,0-2.59,2.58v.19A2.64,2.64,0,0,0,22.26,22,2.6,2.6,0,0,1,20,19.45v-.19a2.58,2.58,0,0,1,2.58-2.58H25a.76.76,0,0,0,.75-.75V13.82Z"/><path class="cls-3" d="M27.59,23.28v4.23a1.25,1.25,0,0,1-1.26,1.25H9.92a1.25,1.25,0,0,1-1.26-1.25h15.8a1.26,1.26,0,0,0,1.26-1.25v-3Z"/><path class="cls-3" d="M27.7,18.78v2.34a.69.69,0,0,1-.69.69H23.57a2.13,2.13,0,0,1-.45-.06,1.75,1.75,0,0,0,1.38.68h4.13V18.78Z"/><path class="cls-3" d="M25.05,13H14.38l1-.54h7.31a.67.67,0,0,0,.59-1L21.8,8.84l.36-.2a.42.42,0,0,1,.57.16Z"/></g></g></svg>