<svg xmlns="http://www.w3.org/2000/svg" viewBox="0 0 69.17 70"><defs><style>.cls-1{fill:#fff;}.cls-2{fill:#e6e6e6;}.cls-3{fill:#253d8f;}</style></defs><title>s-wallet</title><g id="Layer_2" data-name="Layer 2"><g id="Layer_1-2" data-name="Layer 1"><path class="cls-1" d="M55,16.71,47.56,3.38a1.37,1.37,0,0,0-1.83-.52L20.82,16.71Z"/><path class="cls-2" d="M63.06,16.71a4,4,0,0,0-4-3.55h-3l2,3.55Z"/><path class="cls-1" d="M44.93,41.46v-.59a8.28,8.28,0,0,1,8.27-8.28h9.91V19.43H7.43a1.35,1.35,0,0,1-1.31-1.66,1.37,1.37,0,0,1,1.36-1.06h7.63l6.39-3.55h-15a4,4,0,0,0-4,4V63.25a4,4,0,0,0,4,4H59.08a4,4,0,0,0,4-4V49.73H53.2A8.27,8.27,0,0,1,44.93,41.46Z"/><path class="cls-1" d="M53.23,35.31a5.58,5.58,0,0,0-5.58,5.59v.53A5.58,5.58,0,0,0,53.23,47H66.45V35.31H53.23Zm1.23,9a3,3,0,1,1,3-3A3,3,0,0,1,54.46,44.31Z"/><path class="cls-3" d="M54.46,38.38a3,3,0,1,0,3,3A3,3,0,0,0,54.46,38.38Z"/><path class="cls-3" d="M65.83,17.16a6.72,6.72,0,0,0-6.72-6.72H54.58L49.93,2.07A4,4,0,0,0,46.42,0a4.06,4.06,0,0,0-2,.51L26.63,10.44H6.72A6.72,6.72,0,0,0,0,17.16V63.28A6.72,6.72,0,0,0,6.72,70H59.11a6.72,6.72,0,0,0,6.72-6.72V49.73h3.34V32.59H65.83Zm-6.72-4a4,4,0,0,1,4,3.55h-5l-2-3.55ZM45.73,2.86a1.37,1.37,0,0,1,1.83.52L55,16.71H20.82Zm17.38,60.4a4,4,0,0,1-4,4H6.54a4,4,0,0,1-4-4V17.19a4,4,0,0,1,4-4h15l-6.39,3.55H7.48a1.37,1.37,0,0,0-1.36,1.06,1.35,1.35,0,0,0,1.31,1.66H63.11V32.59H53.2a8.28,8.28,0,0,0-8.27,8.28v.59a8.27,8.27,0,0,0,8.27,8.27h9.91Zm3.34-27.95V47H53.23a5.58,5.58,0,0,1-5.58-5.58V40.9a5.58,5.58,0,0,1,5.58-5.59H66.45Z"/><path class="cls-2" d="M63.11,19.43V32.59H53.2a8.27,8.27,0,0,0-8.27,8.27v.6a8.26,8.26,0,0,0,1.13,4.19,8.26,8.26,0,0,1-7.13-8.19v-.59a8.28,8.28,0,0,1,8.28-8.28h7.52a2.39,2.39,0,0,0,2.38-2.39V19.43Z"/><path class="cls-2" d="M63.11,49.73V63.26a4,4,0,0,1-4,4H6.54a4,4,0,0,1-4-4H53.08a4,4,0,0,0,4-4V49.73Z"/><path class="cls-2" d="M63.45,35.31v7.5a2.21,2.21,0,0,1-2.2,2.2h-11a5.55,5.55,0,0,1-1.43-.19A5.58,5.58,0,0,0,53.23,47H66.45V35.31Z"/><path class="cls-2" d="M55,16.71H20.82L23.9,15H47.3a2.16,2.16,0,0,0,1.89-3.21L44.58,3.5l1.15-.64a1.35,1.35,0,0,1,1.83.52Z"/></g></g></svg>