<svg xmlns="http://www.w3.org/2000/svg" viewBox="0 0 255.8 175.26"><defs><style>.cls-1{fill:none;stroke:#fff;stroke-linecap:round;stroke-linejoin:round;stroke-width:3px;}.cls-2{fill:#faaf3b;}.cls-3{fill:#fff;opacity:0.05;}</style></defs><title>star-over</title><g id="Layer_2" data-name="Layer 2"><g id="Layer_1-2" data-name="Layer 1"><path class="cls-1" d="M47.66,81.38a83.84,83.84,0,0,1,6.93-26.52A84.81,84.81,0,0,1,60,44.75"/><path class="cls-1" d="M47.88,99.25a84.54,84.54,0,0,1-.58-10"/><path class="cls-1" d="M85,159.63a84.64,84.64,0,0,1-34.84-48.48"/><path class="cls-1" d="M131.8,173.76A84.11,84.11,0,0,1,94,164.85"/><path class="cls-1" d="M188.46,151.94A84.22,84.22,0,0,1,149,172"/><path class="cls-1" d="M215.71,99.25a84.17,84.17,0,0,1-17.83,42.67"/><path class="cls-1" d="M199.33,38.46a84.15,84.15,0,0,1,17,50.8"/><path class="cls-1" d="M139.88,5.14a84.2,84.2,0,0,1,49.88,22.63"/><path class="cls-1" d="M114.35,6.56a85,85,0,0,1,17.45-1.8"/><path class="cls-1" d="M68,33.82a84.8,84.8,0,0,1,38.4-25.19"/><polygon class="cls-2" points="131.79 44.75 146.26 74.05 178.59 78.75 155.19 101.56 160.72 133.76 131.79 118.56 102.87 133.76 108.4 101.56 85 78.75 117.33 74.05 131.79 44.75"/><polygon class="cls-3" points="238.9 21.62 244.12 32.2 255.8 33.9 247.35 42.13 249.34 53.76 238.9 48.27 228.46 53.76 230.45 42.13 222 33.9 233.68 32.2 238.9 21.62"/><polygon class="cls-3" points="16.9 129.62 22.12 140.2 33.8 141.9 25.35 150.13 27.34 161.76 16.9 156.27 6.46 161.76 8.45 150.13 0 141.9 11.68 140.2 16.9 129.62"/><polygon class="cls-3" points="54.9 0 58.07 6.42 65.16 7.45 60.03 12.45 61.24 19.51 54.9 16.18 48.56 19.51 49.77 12.45 44.64 7.45 51.73 6.42 54.9 0"/><polygon class="cls-3" points="224.9 140.5 227.58 145.94 233.57 146.81 229.24 151.04 230.26 157.01 224.9 154.19 219.53 157.01 220.56 151.04 216.22 146.81 222.22 145.94 224.9 140.5"/></g></g></svg>