<svg xmlns="http://www.w3.org/2000/svg" viewBox="0 0 32.81 32.81"><defs><style>.cls-1{fill:#fa9200;}.cls-2{fill:none;stroke:#fa9200;stroke-miterlimit:10;stroke-width:0.5px;}</style></defs><title>trash-circle-org</title><g id="Layer_2" data-name="Layer 2"><g id="Layer_1-2" data-name="Layer 1"><path class="cls-1" d="M20.6,24.8H12.2a3,3,0,0,1-.64-.27,1.58,1.58,0,0,1-.67-1.35c-.08-1.12-.18-2.24-.27-3.36s-.19-2.24-.29-3.37-.19-2.31-.28-3.46a.2.2,0,0,0-.15-.2A1.44,1.44,0,0,1,9.09,11,1.47,1.47,0,0,1,10.55,10H13c0-.17,0-.32,0-.46a1.4,1.4,0,0,1,.61-1.21,4.34,4.34,0,0,1,.7-.3h4.27l0,0a1.45,1.45,0,0,1,1.25,1.34,4.12,4.12,0,0,1,0,.61h2.42a1.5,1.5,0,0,1,1.42.93,1.48,1.48,0,0,1-.8,1.91.22.22,0,0,0-.11.15q0,.3-.06.6c-.13,1.52-.25,3-.38,4.56l-.42,5.11A1.55,1.55,0,0,1,20.6,24.8Zm1.17-11.86H11l.27,3.21c.09,1.12.19,2.24.28,3.36s.2,2.5.31,3.74c0,.42.2.57.62.57h7.86a.5.5,0,0,0,.54-.47c0-.08,0-.16,0-.23l.18-2.19c.09-1.13.19-2.26.28-3.38s.17-2,.25-3C21.68,14,21.73,13.49,21.77,12.94Zm-5.35-2H10.63c-.39,0-.62.18-.62.49s.23.49.62.49H22.28a.5.5,0,0,0,.49-.32.49.49,0,0,0-.53-.66Zm-2.48-1h4.92c0-.16,0-.3,0-.45A.48.48,0,0,0,18.34,9H14.49a.5.5,0,0,0-.55.54Z"/><path class="cls-1" d="M14.44,22.35a.48.48,0,0,1-.34.46.47.47,0,0,1-.56-.2.66.66,0,0,1-.09-.27q-.18-3-.37-5.94c0-.61-.08-1.21-.11-1.82a.81.81,0,0,1,0-.16.49.49,0,1,1,1,0c.06.87.11,1.75.16,2.62.09,1.36.17,2.71.26,4.07C14.38,21.46,14.41,21.86,14.44,22.35Z"/><path class="cls-1" d="M18.37,22.27c.1-1.52.19-3,.29-4.49.07-1.12.13-2.24.2-3.36a.49.49,0,0,1,.68-.47.48.48,0,0,1,.3.53c0,.58-.07,1.17-.1,1.75-.06,1-.13,2-.19,3s-.13,2.1-.19,3.15a.5.5,0,1,1-1-.09Z"/><path class="cls-1" d="M16.9,18.37c0,1.31,0,2.61,0,3.92a.49.49,0,1,1-1,0V14.51a.86.86,0,0,1,0-.16.48.48,0,0,1,.5-.44.49.49,0,0,1,.47.49c0,.45,0,.9,0,1.35v2.62Z"/><circle class="cls-2" cx="16.4" cy="16.4" r="16.15"/></g></g></svg>