<svg xmlns="http://www.w3.org/2000/svg" viewBox="0 0 28.34 32.25"><defs><style>.cls-1{fill:#fb9300;}</style></defs><title>trash-org</title><g id="Layer_2" data-name="Layer 2"><g id="Layer_1-2" data-name="Layer 1"><path class="cls-1" d="M22.23,32.25H6.1a8.37,8.37,0,0,1-1.23-.51,3.08,3.08,0,0,1-1.29-2.59c-.15-2.16-.34-4.31-.52-6.47s-.37-4.3-.55-6.46S2.14,11.79,2,9.57a.4.4,0,0,0-.29-.38A2.79,2.79,0,0,1,.12,5.83,2.82,2.82,0,0,1,2.93,3.78H7.55v-.9A2.69,2.69,0,0,1,8.73.57,6.92,6.92,0,0,1,10.07,0h8.19s.06,0,.09,0A2.79,2.79,0,0,1,20.76,2.6a11.61,11.61,0,0,1,0,1.18h4.65a2.88,2.88,0,0,1,2.73,1.78A2.84,2.84,0,0,1,26.6,9.23a.4.4,0,0,0-.21.28c-.06.39-.09.78-.12,1.16-.24,2.92-.47,5.84-.71,8.75-.27,3.28-.55,6.55-.81,9.82a3.28,3.28,0,0,1-.89,2.19A3.37,3.37,0,0,1,22.23,32.25ZM24.48,9.47H3.86c.17,2.07.33,4.11.5,6.16s.37,4.31.54,6.46c.2,2.4.39,4.79.6,7.19.06.8.39,1.08,1.19,1.08H16.2c1.86,0,3.72,0,5.58,0a1,1,0,0,0,1-.91c0-.14,0-.29,0-.43.12-1.41.23-2.81.35-4.21.18-2.16.35-4.33.53-6.49l.48-5.68C24.3,11.59,24.39,10.54,24.48,9.47ZM14.2,5.67H3.08c-.75,0-1.19.35-1.19,1s.44.94,1.19.94H25.44a.95.95,0,1,0-.06-1.89ZM9.44,3.76h9.45c0-.3,0-.59,0-.87a1,1,0,0,0-1-1H10.49a1,1,0,0,0-1.05,1Z"/><path class="cls-1" d="M10.39,27.55a.9.9,0,0,1-.65.87.89.89,0,0,1-1.07-.37,1.14,1.14,0,0,1-.17-.53q-.36-5.7-.71-11.4c-.07-1.16-.15-2.32-.22-3.49a1.58,1.58,0,0,1,0-.31.93.93,0,0,1,.9-1,1,1,0,0,1,1,.9c.11,1.68.21,3.35.32,5l.48,7.82C10.29,25.84,10.33,26.6,10.39,27.55Z"/><path class="cls-1" d="M18,27.4c.18-2.92.36-5.78.54-8.64.14-2.15.27-4.29.4-6.44a1,1,0,0,1,1.31-.91,1,1,0,0,1,.58,1l-.21,3.36c-.12,1.91-.24,3.81-.35,5.72s-.25,4-.38,6.06A.95.95,0,1,1,18,27.4Z"/><path class="cls-1" d="M15.11,19.9v7.52a.95.95,0,1,1-1.89,0V12.5c0-.11,0-.21,0-.32a.94.94,0,0,1,1.88.11c0,.86,0,1.72,0,2.58v5Z"/></g></g></svg>