<svg xmlns="http://www.w3.org/2000/svg" viewBox="0 0 30 30"><defs><style>.cls-1{fill:gray;}</style></defs><title>username</title><g id="Layer_2" data-name="Layer 2"><g id="Layer_1-2" data-name="Layer 1"><path class="cls-1" d="M30,15A15,15,0,1,0,5.82,26.85c0-.28.12-.55.19-.81a14.24,14.24,0,1,1,18,0c.07.26.14.53.19.81A15,15,0,0,0,30,15Z"/><path class="cls-1" d="M6.72,26.57c-.07.27-.12.54-.17.82a15,15,0,0,0,16.9,0c-.05-.28-.1-.55-.17-.82a14.17,14.17,0,0,1-16.56,0Z"/><path class="cls-1" d="M18.68,20.44a7.64,7.64,0,0,0-.92-.42,6.1,6.1,0,0,1-5.52,0,7.64,7.64,0,0,0-.92.42,6.92,6.92,0,0,0,7.36,0Z"/><path class="cls-1" d="M8.87,14.55a6.13,6.13,0,1,1,9.75,4.94,7.6,7.6,0,0,1,.8.42,7,7,0,1,0-8.84,0,7.6,7.6,0,0,1,.8-.42A6.14,6.14,0,0,1,8.87,14.55Z"/><path class="cls-1" d="M11.32,20.44a8.19,8.19,0,0,1-.74-.53A10.28,10.28,0,0,0,6,26l.71.53A9.43,9.43,0,0,1,11.32,20.44Z"/><path class="cls-1" d="M19.42,19.91a8.19,8.19,0,0,1-.74.53,9.43,9.43,0,0,1,4.6,6.13L24,26A10.28,10.28,0,0,0,19.42,19.91Z"/><path class="cls-1" d="M23.28,26.57c.07.27.12.54.17.82.25-.17.49-.36.73-.54-.05-.28-.12-.55-.19-.81Z"/><path class="cls-1" d="M6.72,26.57,6,26c-.07.26-.14.53-.19.81.24.18.48.37.73.54C6.6,27.11,6.65,26.84,6.72,26.57Z"/><path class="cls-1" d="M17.76,20a7.64,7.64,0,0,1,.92.42,8.19,8.19,0,0,0,.74-.53,7.6,7.6,0,0,0-.8-.42A6.84,6.84,0,0,1,17.76,20Z"/><path class="cls-1" d="M11.38,19.49a7.6,7.6,0,0,0-.8.42,8.19,8.19,0,0,0,.74.53,7.64,7.64,0,0,1,.92-.42A6.84,6.84,0,0,1,11.38,19.49Z"/></g></g></svg>