<svg xmlns="http://www.w3.org/2000/svg" viewBox="0 0 50 50"><defs><style>.cls-1{fill:#253d8f;}.cls-2{fill:#e6e6e6;}</style></defs><title>users-circle-b</title><g id="Layer_2" data-name="Layer 2"><g id="Layer_1-2" data-name="Layer 1"><circle class="cls-1" cx="25" cy="25" r="25"/><path class="cls-2" d="M27.43,16.37a5.22,5.22,0,0,1,2.42,3.87,4.2,4.2,0,1,0-2.42-3.87Zm-2.75,9a4.2,4.2,0,1,0-4.21-4.2A4.2,4.2,0,0,0,24.68,25.35Zm2.16.7H22.67a5.38,5.38,0,0,0-5.38,5.38v5.36l.32.11a24.62,24.62,0,0,0,7.62,1.29,15,15,0,0,0,6.66-1.32l.29-.15h0V31.43A5.38,5.38,0,0,0,26.84,26.05Zm7.78-4.64H30.41a5.7,5.7,0,0,1-1.72,3.95,7,7,0,0,1,4.91,6.7v1.47a15.23,15.23,0,0,0,6.07-1.3l.3-.15h0V26.79A5.38,5.38,0,0,0,34.62,21.41ZM16.93,21a4.13,4.13,0,0,0,2.23-.65,5.21,5.21,0,0,1,2-3.31c0-.08,0-.16,0-.24a4.2,4.2,0,1,0-4.2,4.2Zm3.82,4.39a5.18,5.18,0,0,1-1.58-3.21l-.42-.4H15.14a5.37,5.37,0,0,0-5.37,5.38V31.6l.3.09a25.27,25.27,0,0,0,6.08,1.14V31.51A6.38,6.38,0,0,1,20.75,25.4Z"/></g></g></svg>