<svg xmlns="http://www.w3.org/2000/svg" viewBox="0 0 109.59 89.94"><defs><style>.cls-1{fill:#fbb03b;}.cls-2{fill:#fff;}.cls-3{fill:#f15a24;}</style></defs><title>v-warning</title><g id="Layer_2" data-name="Layer 2"><g id="Layer_1-2" data-name="Layer 1"><path class="cls-1" d="M104,89.94H8.75a5.55,5.55,0,0,1-4.88-8.31L46.34,8.48a9.68,9.68,0,0,1,16.52-.27l45.88,73.26A5.55,5.55,0,0,1,104,89.94Z"/><path class="cls-2" d="M53.08,5.92A3.91,3.91,0,0,1,56.46,7.8L103.56,84H6L49.63,7.92a3.89,3.89,0,0,1,3.45-2m0-5.92a9.82,9.82,0,0,0-8.59,5L.78,81.27a5.79,5.79,0,0,0,5,8.67h98a5.8,5.8,0,0,0,4.93-8.84L61.5,4.69A9.82,9.82,0,0,0,53.08,0Z"/><path class="cls-3" d="M54.8,63.26h0a3.72,3.72,0,0,1-3.71-3.71V28a3.71,3.71,0,0,1,3.71-3.7h0A3.7,3.7,0,0,1,58.5,28V59.55A3.71,3.71,0,0,1,54.8,63.26Z"/><path class="cls-3" d="M54.8,75.19h0A4.19,4.19,0,0,1,50.62,71h0a4.18,4.18,0,0,1,4.18-4.17h0A4.18,4.18,0,0,1,59,71h0A4.19,4.19,0,0,1,54.8,75.19Z"/></g></g></svg>