<svg xmlns="http://www.w3.org/2000/svg" viewBox="0 0 19.57 20"><defs><style>.cls-1{fill:#fa9200;}.cls-2{fill:#fff;}</style></defs><title>verify</title><g id="Layer_2" data-name="Layer 2"><g id="Layer_1-2" data-name="Layer 1"><path class="cls-1" d="M19.55,12.3c-.23,1-2.27,1.16-2.75,2s.25,2.72-.47,3.34-2.49-.4-3.38,0S11.58,19.92,10.61,20,8.86,18.21,7.9,18s-2.52,1.07-3.32.59-.4-2.5-1-3.22-2.67-.6-3-1.48,1.15-2.24,1.07-3.2-1.81-2-1.58-3,2.26-1.16,2.75-2S2.52,3,3.24,2.4s2.49.4,3.37,0S8,.08,9,0s1.76,1.79,2.71,2S14.19.94,15,1.42s.39,2.5,1,3.22,2.66.6,3,1.48S17.88,8.36,18,9.32,19.77,11.34,19.55,12.3Z"/><path class="cls-2" d="M8.19,14l-3-4a.59.59,0,0,1,.94-.7l2.16,2.87,5.22-5.9a.58.58,0,1,1,.87.78Z"/></g></g></svg>