<svg xmlns="http://www.w3.org/2000/svg" viewBox="0 0 18.55 14.16"><defs><style>.cls-1{fill:#fff;}</style></defs><title>warning-w</title><g id="Layer_2" data-name="Layer 2"><g id="Layer_1-2" data-name="Layer 1"><path class="cls-1" d="M17.48,14.16H1.07a1.06,1.06,0,0,1-.88-1.67l8.2-12a1.07,1.07,0,0,1,1.77,0l8.2,12a1.06,1.06,0,0,1,.06,1.1A1,1,0,0,1,17.48,14.16ZM9.27.45a.59.59,0,0,0-.51.27l-8.21,12a.63.63,0,0,0,0,.65.62.62,0,0,0,.55.33H17.48a.62.62,0,0,0,.51-1L9.79.72A.61.61,0,0,0,9.27.45Z"/><path class="cls-1" d="M8.83,11.5a.36.36,0,0,1-.13-.28V11a.36.36,0,0,1,.13-.29.57.57,0,0,1,.34-.1h.21a.5.5,0,0,1,.34.11.35.35,0,0,1,.12.28v.2a.35.35,0,0,1-.12.28.5.5,0,0,1-.34.11H9.17A.51.51,0,0,1,8.83,11.5Zm.14-2a.25.25,0,0,1-.11-.22l0-4.4a.33.33,0,0,1,.07-.24.33.33,0,0,1,.23-.07h.34a.33.33,0,0,1,.23.07.33.33,0,0,1,.07.24l-.06,4.4a.24.24,0,0,1-.12.22.45.45,0,0,1-.3.08A.48.48,0,0,1,9,9.51Z"/></g></g></svg>