<svg xmlns="http://www.w3.org/2000/svg" viewBox="0 0 9.49 7.35"><defs><style>.cls-1{fill:#f7931e;}</style></defs><title>warning-y</title><g id="Layer_2" data-name="Layer 2"><g id="Layer_1-2" data-name="Layer 1"><path class="cls-1" d="M.77,7.35h8a.76.76,0,0,0,.67-.41.75.75,0,0,0,0-.79L5.38.31a.8.8,0,0,0-1.27,0l-4,5.84a.77.77,0,0,0,0,.79A.76.76,0,0,0,.77,7.35ZM4.75.7l4,5.85L9,6.43H9l-.22.2h-8l0-.08L4.7.72S4.73.7,4.75.7Z"/><path class="cls-1" d="M4.53,5A.38.38,0,0,0,4.75,5,.35.35,0,0,0,5,5a.26.26,0,0,0,.11-.21l0-2.14A.32.32,0,0,0,5,2.4a.28.28,0,0,0-.21-.07H4.67a.28.28,0,0,0-.21.07.32.32,0,0,0-.06.2l0,2.14A.26.26,0,0,0,4.53,5Z"/><path class="cls-1" d="M4.45,5.9A.36.36,0,0,0,4.7,6h.1a.41.41,0,0,0,.25-.08.33.33,0,0,0,.1-.23v-.1a.33.33,0,0,0-.1-.23.39.39,0,0,0-.25-.08H4.7a.41.41,0,0,0-.25.08.26.26,0,0,0-.1.23v.1a.26.26,0,0,0,.1.23Z"/></g></g></svg>